<mxfile modified="2020-08-17T07:06:05.001Z" host="app.diagrams.net" agent="5.0 (Windows NT 10.0; Win64; x64) AppleWebKit/537.36 (KHTML, like Gecko) Chrome/83.0.4103.116 Safari/537.36 OPR/69.0.3686.95" etag="KAUVR6jqdHqN6RWxqNfU" version="13.6.2" type="github">
  <diagram id="WI9T0HZ2pTsCkuznbFz-" name="Page-1">
    <mxGraphModel dx="953" dy="548" grid="1" gridSize="10" guides="1" tooltips="1" connect="1" arrows="1" fold="1" page="1" pageScale="1" pageWidth="3300" pageHeight="2339" math="0" shadow="0">
      <root>
        <mxCell id="0" />
        <mxCell id="1" parent="0" />
        <mxCell id="FYxI648YfG9HQdf40o8M-7" value="&lt;font&gt;&lt;span style=&quot;font-size: 11px&quot;&gt;Creacion de NavBar&amp;nbsp;&lt;/span&gt;&lt;span style=&quot;font-size: 11px&quot;&gt;(Navigation Drawer)&lt;/span&gt;&lt;br&gt;&lt;span style=&quot;font-size: 11px&quot;&gt;Es un tipo de Layout&lt;/span&gt;&lt;br&gt;&lt;span style=&quot;font-size: 11px&quot;&gt;https://material.io/develop/android&lt;/span&gt;&lt;br&gt;&lt;/font&gt;" style="text;html=1;strokeColor=none;fillColor=none;align=center;verticalAlign=middle;whiteSpace=wrap;rounded=0;labelPosition=center;verticalLabelPosition=middle;textDirection=ltr;" vertex="1" parent="1">
          <mxGeometry x="10" y="160" width="230" height="50" as="geometry" />
        </mxCell>
        <mxCell id="FYxI648YfG9HQdf40o8M-9" value="&lt;b&gt;&lt;font style=&quot;font-size: 14px&quot;&gt;Agregando Material Design&lt;/font&gt;&lt;/b&gt;&lt;font color=&quot;#6c767d&quot;&gt;&lt;b&gt;&lt;font&gt;&lt;br style=&quot;font-size: 10px&quot;&gt;&lt;font style=&quot;font-size: 11px&quot;&gt;Importar en build.gradle (Module app)&lt;/font&gt;&lt;br&gt;&lt;/font&gt;&lt;/b&gt;&lt;/font&gt;&lt;br style=&quot;font-size: 14px&quot;&gt;&lt;pre style=&quot;background-color: rgb(255 , 255 , 255) ; font-family: &amp;#34;consolas&amp;#34; ; font-size: 8px&quot;&gt;&lt;pre style=&quot;font-family: &amp;#34;consolas&amp;#34;&quot;&gt;implementation &lt;span style=&quot;color: #008000 ; font-weight: bold&quot;&gt;&#39;com.google.android.material:material:1.1.0&#39;&lt;/span&gt;&lt;/pre&gt;&lt;/pre&gt;" style="html=1;shadow=0;dashed=0;shape=mxgraph.bootstrap.rrect;rSize=5;strokeColor=#DFDFDF;html=1;whiteSpace=wrap;fillColor=#ffffff;fontColor=#000000;verticalAlign=top;align=left;spacing=20;fontSize=14;" vertex="1" parent="1">
          <mxGeometry x="10" y="10" width="310" height="100" as="geometry" />
        </mxCell>
        <mxCell id="FYxI648YfG9HQdf40o8M-10" value="" style="shape=image;verticalLabelPosition=bottom;labelBackgroundColor=#ffffff;verticalAlign=top;aspect=fixed;imageAspect=0;image=data:image/png,iVBORw0KGgoAAAANSUhEUgAAAXUAAAIICAYAAACRqX5KAAAgAElEQVR4XuydB5wkR3X/fx0mbI53ezkqS6AckGRJICEwGBwwYBOMjSM4Zxz+OOccwAaMbXIw0ThgGwwmKaAACOXT5dvbvLMTO/f/83vVtds32jvd6fb2drU1p9HuznSoet39rVe/evXKStM0TZIEfEVRJO9isQjbtuWzlfxiuYMggOu68l4NL8/z4DgOCoXCaigufN+XcpZKpVVR3jAMEccxyuXyqiiveebO8GVKAc/zEUcpkJJp1nFP+ORv+EmKNNtj4fuF3/S31gmOe+wJn7zHwidqS3nmLKBUzD9zi5WbJdOfp7AcwC04sOI4Tg8dOnSGLWsObyxgLGAscLoWSJFaKSwksFILSB3YSVk+S+0AqR0Jt5PEQhIBLlwU0gJmR0N87F334FMf+ia6SkNIk5CshsWNUwtO6sjx9JugtC0blmWBjmOcKqdXHF3bhuU48nuSpOIEp0kKx3ZQcFyk4iCnsr/irUK2fJom8pajpTZs15ZvkySEhRiOHJ7HDTOnmueXo4HEtsDtbVgJYCcRXB7JdhGkKZJCCxt2l3DzS3YbqJ/ubWb2NxYwFlguCzwF1K0QqS3IRxopWLtJAXNHQ3zs3ffgk+//BrqKw7BSNgqpgjps2Kl9DNTF/7Xoe1sCXbYfC1C3EKf0+lNYlg3bdlQDwJ3kM0sgT7ir/XiEGGyK5D9L/ocktQTcKYHMFohQV18hiiO4bDwsW+oSJ4k0VAQ7z2VbVgZ1ls1ByGMUPYzsKuKmF+8yUF+u29Gcx1jAWOB0LfDUUCf7UnrJsQ07seEmLuaOxvjYe+7BJ97zNXQX18EhhInZDOYK6grM9IblJUBWIKZvreCewrItkU+TmKBVnjUhm0Yx6NA7LsHLnVIkivRI6KHTq+bhRNa2Ber8yYPw2LZFb181JHESIw5jOY/tOsrLT3huR0DPE1lxCEeO6iDgz0ILIzuLuPFFOwzUT/c2M/sbCxgLLJcFTgz1xAoVSClVJNSWLYF6dYxQvxcff/fX0F1YB5dyC/GdSS6EurjV3FU8aflVvGZCPLYI8Hge6q7jiFdOiGuPHjG9d8ChhiK/0mtXnjr9dOI3tQhwJadYcABpgbJeAEvE3oGUg957Ig2ASEAi2ai/xcunPJMkcB32SmyElHcKLazbXsD1L9pmoL5ct6M5j7GAscDpWuAkoE5KUhJJXYG6EzmYG4vxiffeh0++9xvodTfAjQl95RWLjq4pnhWPkkiMmKI7LIKTUKe3TW/aVd61QzCz8RApBrA5SpkqDZ7Si2oc+IW4/0htBXYeR0k5JdgcExDphsekAy7dAukhuK5DtiNOYyRpNF8WCupJGouERIU9Tm2E3K3QwvA2F9e/cKuB+uneZmZ/YwFjgeWywMlBnfILoU5N3Y4cVEYDfOK99+PTH3oU6zq2o5iWRJpRcsuCt8xfKacQ5J7voeHVkVqxgroMSqawHRtWDLjUu2MgiWMBeme5S6JVKMuEQYggDkQbj5MItpuqQVEO6LK5oEYeWigXOtBR7kLRLcugL9lN752g5yAsGwCqLW7RguWk8MMWml4DYeTBYgNj2YhhI6L3XvQwtNXGc15goL5cd6M5j7GAscBpW+AkNHXK6ZRFEgdFuyhQnz7Uwifedz8+/8mDuHTH9dg2vB0lq6gGN7V3rsJhRM+uN+oYnRjFkbHDAtLUoT6eCKAJfid1pVFgxEtnuQOD/UNYN7Qevb19KLgFzM3NYXJyEtXqLKr1OfiEMCOu6cxTMLEtdHV0Y6BvCOuHN6K/ZwgltwNgDyK1UXAdBEEsobm2C1gFoOnVcPjoARwZO4hmqyZjAo5tI0psRFR8ij4Gt9q47vYtxlM/7fvMHMBYwFhgmSzwVFCPkAjUU1ixjaJbghO5mDzYxCffez++9O+juGLXTdg+uANFFFWZrVQUEmrxoqPbKcIowL7D+/DwnofQChriZcNVA6b0oBkqSa2+u6sXG9ZtwKaRjejv7YdjFxCzRUlTeF4LRyeOYnT8MCr1WSRgZA6RHiOJYlHW1w9twNZNOzEyvBmdpW6J2ElZ7kJxPgqGUkuMCLNzk9h36HFMzIxK4+JQFkoSRImFmFE0JV889euev9lAfZnuRnMaYwFjgdO2wFNBPRSoM/yPerVjuQL1mcO+aOpf+NRhXL37udg2sBNFlMTbFeE6i2yhPAI7QRD7OHL0CO75xldFfkGB6ojEv8jmVmihw+3G5o1bsGXjVgz0DKJcKCFNKZtQ6xa1G7VmFQeP7Mf+I/sQpQFiDuRSY2HoI1KUS13o6xrA7u3nY/3QJpGMoiBFqVCSSJgoZYx8iIZXw979j2F08hCixENqMTZeafNU9yMO5rpNDG9zcJ2RX077LjMHMBYwFlg2C5wk1DmhCAUlkUSOTD76xHvvxec/eQjXnnMrdgzsEqjzxUFRFfaiBkITK4YfehibPIo777sTNh16eumEOwc7Ka2Hrkgmu3echw3rNqHkluGKtkKdXcWqUwsPYx/jU0fx2L5HMNecRWJHgE0Nnh2EFGEQo7Pcg60bdmD75l3o7uiDRWlH4ueVXBNELMso9h18HDPVSdgFljWSaByOBwjUHQuh3cD67a6B+rLdi+ZExgLGAktggaWA+m3YObALJUKdsksWfphN0xR4e6EvIL37vjtgFYHUZQQMgUxP3UIhKWHdwEact/MCDA+sF/1e5ntaDlKGNjKU0eIkpQi15hwe2/8oDo3tR+JEgJMwOEeiV5q1Fno6+9HT1Y8dm3dhy8hWlAqdiDxGvCQSaTNXn8UTBx7HVGUCrbCBGD5sR6YyqVh4A/UluK/MIYwFjAXOkgVOH+rX7L4NO/tzUKefLiOmCVJbxZJzYJOe+t33fUVBnfq1zRBHxplbKKZlgfq5O89XUI9VzHmBMz6FtRRfJFweDb+Ox/Y/jP1HnkBo+eKtM9yc0TOBF6Jc6JT3yMAIztlxHnq7+xEFnMjE6JcYh44exBMH94gE45RseFFTIl8KjIfnBCgD9bN0L5rTGgsYCyyBBZYG6pRf6KmL8pJJMIS5QNvOQ/1OgTrDCWMrlu9kglFaRH/XEHbvPA+b1m9GwSojiTi/n7C2kFJ+oRrjxJicmcDDex9EpT6FwPLE42cIu8g41FdiGx1uGZ3FLmzbtA1bNmyVgVKeZ3pmGk8cfALj0+Oi8xc7XPhJgAQRipIqINPUjfyyBPeWOYSxgLHAWbDA6UP92t23YcfgsVCnZ80oGIKdHnmQaep337cAdcoyMoGI20Yqxnzn1nOwfcsuGey0EhdJIKm3VCy7A7TCFvYe2oNH9j2IxA4Q2p546pzuH0c2XKuAJExQtAry7uvqw4XnX4Sh/kEEvocn9u/DodFDqPtNWK4Kq0zYKWD0S5qgwMlOxlM/C/ehOaWxgLHAElng9KF+ze5bsb3dU8/yKCaEthUjjKipU345FupKU0/VYGhsYeO6zdi2aQeG+0fQVeqBjYKa0GRBBlun5qawf3QvDo3vA4oRIttHbEWwnQIsRt8krpLyJcDGgWsXcM6O3di6aTNmZmew/8ABzMzNIrIiOEUXfhxAsn4x0UAcg2OmBupLdGuZwxgLGAucDQs8NdQZOBJL9AsnCOkZpSE+8R5GvxzA5btvxpa+bSpOXSIadfSLOjapHCUhJqbHcc99d8Mu0utWXrJ488So5SAKInSVutHfO4TBvnUY6l+HrnK3TB4KwwAzlVmMTx/BXKuCVlRHZLVkoJT/LJspeosyiclhC6ACaySCprujG9u3bBPpZWZ2Fq3Ak3BKy7URJpzdmsqs1wLDIplEDC4iBxL9sm67i+e8wOR+ORt3pjmnsYCxwNO0ACUSlWGxPZ+6j9QORc+W2BDmdIkZ0uiiMhri4++5B5/+l0exY/gi9BV6IfEq7atfZKlvie5Go47Do0fmpRQ1mKoGVZnQi7KJ5GhxCigXO9HT2YtSsUM+i6MI9WYdtXolA3KKMPUl8kXSDVA2iZn3hVkXlTZOgZ/T/pMowUD/ALxmE2EcIZLEXlnuL/JfUgdYbLLU1Fm4nIiKwG5geLuL6283UH+at5bZzVjAWGDZLSBpWtTEHZWzxYEdl5XWbRHqXCiD39oSWmgT6pJ6N8JH3/VVfPw996PbGYIdMSEWS8/MiNlPnSVRH52wJTqzTIn5hY0IVb51hkXJ6cUc6tlcJsl5LsHoKiuj0uuzRmF+J7WIhm5YVH30SkZZ/XKrLukUNVkwo0oQnHBQllC3EDoNSej1HJ0m4PDhw8t+fcwJjQWMBYwFTtUCauWjxTx1RpYwMoQAZfZFBXTJpz4W4SP/fDc+9u770FMchKvDXjKoqzyNTIerUvCqRIrqM1nBSDIyZgvWqU7AfGOQX05OPHmVdzeLrFmAtNru6fytLaT3V2XLug1IrQIDaATqIr/cniX0MlA/1VvLbG8sYCxwNizwVFBXucuZJoCLZDhwU+WpL0B9iMOZ80XnghayQIa47Op3WbxCpHa1kIUCOqGf5VeX1TG4Ab/LQTY7qoQs5hqOY2HeDuk8rPWx8vA/HtTV7FZ66kyNEDpNJb/oNAEG6mfj9jTnNBYwFjhVC5wI6ik9dZ2SPLFFfqGnXjka4WPv+mrmqQ/DVZnU56UPrW1rqMtaoPTYBerSROg9xHOPJQ1vlrY3W/puwRNvr1F+wehcWsgnee4nC3sNfq53ygYsk1/sOtbtyHnqZuHpU721zPbGAsYCZ8MCJwV1etbMl86Vj2Ilv3Dh6Y+9+370cDk7Ne1nQc/OBizF85ZFMwh1etvZakj8LFuzlMvJUbfnrE4tgyhvPS+55C3T7omfLLyP58Hr/VV4pdLUGf1Sz+SXLPXukSNHzsb1Mec0FjAWMBY4aQuIXp2NLKroQwd20pEl4vJkoFQ0da4bSk+dOVnoqY8G+Mg/ZZp6YT1cmc6fLR2n9XQtvwjYKcHo5e0U6MU/zuhNqC9IKmqwVeQW9V/23YngraSb48syFPX194ubRw0Wq9wvKvqljuHtjhooTZIkrVQqJ21Ys6GxgLGAscBZscCi0S+lY6JfmHOFMYD8R6DbsYPpwy186B134EPvvBvd7joUJCAwW8ZOBkupoetPFND5mVqyLlsgOsdqiWmhpp6NmMo2IoVol12lxVUKS/sAadZFkIYj8/bZQs0rMypqhuWRBiyv2OTaCbU6KaHuykCpb9dU6l1CPU3TlDmAzctYwFjAWGClW0CFBjL6hczLArglIoXJuCK18HS2sDMHS5kxd/JAE+//uy/jA++4E102F57OoM71QeehriGvBkklfnxefc9S4YpvrLMwKiDLUqTag59XRlR448JrQapRn2lPXcW6P3m7vCevt19oHFQSSIZlclIU86nTU69haCuhvklBfaVfSFM+YwFjAWMBhbcM6vKHWrBZhaVwxqcMYYLTk+ip6wWdpw408b63fgkfeNud6HLWiQfPyUey6PO8N55Fv2RyzEIkTDaoqk6igKwZn10Stcj0sWzO1lHKPjxRNMupR7+okqiappaSX3xLeerXPN9A3TwpxgLGAqvIAqcNdXu9mp4v4koWriix6HxlselZvLqi90I44wmhvow2lBWbJLkvB0ptJI4lUOdydtcaT30Zr4Q5lbGAscBpW2ApoO6mBRXHTk+dUS0CdTVwOj8JaT5mfeH7eelkMU/9tGt28geg7GJlUGc6SOZ+CQTqloH6yZvRbGksYCywEixw+lAfEU3dSVXelWOhnskxmb7C6Brx3zPoz9dfJh4tvLSmvlz2UVDnQKmSXwh15akbqC/XNTDnMRYwFlgiC5wJqKv1irLZozpdAMvbBnUJRpHNVgLUU9gSp56FNGZQv8bIL0t0p5nDGAsYCyyLBc4c1Fl87akrD30hTYCWZ7IqSgKxs+2pG6gvyw1nTmIsYCxwZi1wslCX+JcsOkaiX97yZXzg7Xegy1byi5uTXzhgql55+SXL3DU/UKqjX1aApy4hneqdchWlnKa+pJ56e1xkPsLn5C6zClXK4pNys7L0kbLYz/nooVM/w8mVw2xlLGAssFItoAiRzatZNKRRzbKUFUDpTifA1P4W3vfWr2RQV3HqhLok88qSdan65gdKVcZG9amKZ5+PW3zKgVJNQ/1T75s7xryB9Ryh9rww6sxPjmPPYvQzsC9AvSqa+pJBncXJT1/KV0F1Yxa5RRhX+qTXQpD+sVnO1DRc+UwuxELA/7GVXjjZAvLbDHOiqHzTTqzUZ9mUy1ggZ4HMATwG6nEuTj0HdZl85OH9b70TH3g7Jx8NwWVaXsnMyAgYFdOuoa699YU49ScPlKq8L8qz17NP1d/aMVWrJHEGkkKKTjuQZYCUSUw6+YyKN1fpD9Rx1SIfqg7HOrmymobMJJ331C218pFvK6hfd/vGpZl8xFPJ9Ny2YkiFjgfRDOoLX+tJBQvNoAb7MYCXg+rk9pkZ9SSvNigv/Jkd86mmWRmoG3QYC6wCC2QAZM7Z+c59lEFdLcYMRqJn4dyTB3y87613ZVAflAWbNdTpqauBUsUVlU5X/W1xlecnRb+kWbpdvT2jaPT+GtAKvnrmq8ojoyDNiBrBsrBGTZhSP9U+qhnIQ12DPasM88lLY0FNnXs4iNwFqF+7lFDXfveTOhrHhboivqp6olYOYZUkdlTlLtbtFn9JUqaaXLjfuLKImuKrWj3F4/aTqeM86XXCMq2Ce9oU0VhgTVsgW4WCnvo81Ns99TzUA7xv3lNfaqgvNAKqMBrQCxdIOeHaS1cNxTyCclBXn2XEOsZT18dSHr3FJe0E6lz5KAtpzDz1JYW6LuQx0stJSB0K6wsdF4J6/jrlbtz2bAaLx4YudGHUrlmL2/4AGKivaSSYyq92C5wC1BNgcj899QX55fQ8dcoxx9JuIY5d86edQwsZIQltleOLCbsyz15mhuahpJWFNulYtkkyT52RlWcQ6vkqHFOMp4B6/mvdYRGvfL4T0qaM59zuvFn1Lfpkb10PdLTdxAbqq/2pNuVf0xY4GagvDJRO7vfaoL6gqZ+6/LIY1Bcf0Dz2Eml4tUNdwygPpby+kP9dUVIt50eoU8Y5Q576ovfXKQA967SIvJKIm64WXp1f2zVbkLU9b077edsGpee/fpIEY6C+ppFgKr/aLXCKUD9AqH9FJfSy16GQGyhdOqhr6UTTJtMbMp7p7JI5USYX7Xei69Hu+mZDp8sD9TZSLohGTy5xthB3vo0izBPJSaxf6sLxszhWgwOio9uEvXqrEQsl18hwQluytIW20Xjqq/0xNuU3FlAWyAghi1KcSFPPeeoCdcapE+rDKHDxDIlTV7lfTm2gtN1Tz0fi6UHNHOAl53qsUgNLjKDWNRS7FkIl865nnox5rqrfZTg3Sz18Bj31dg0pfwMe6z/ntxSvnCpRmiKIYoRRDOZ2j+MYURTB9320Wh68Vks+cx0bxWIR5XIZnR1l+VksFeE4LhwbCvS5V7vnftzglsW0HPMMGQsYC6xAC2QEkR95qOdT76pBSR2nPnmAcep68hE9dRdO8vShrobqlAQikJ1ftFrLMHpQNEM4gW5Hku9dBX9nDZIskC0L62XRMRmhclq7lluyM6nzSeIx9XOZoc6FW5X7rEGehZnL32GYwA9DqR+B3fIChHEsUTB+EGB2ZgYHDx7Anj17cPDAATSbDRQLLjo7O9Hf14/1I+uxbdtWbN++HSMj69HT3Y1yqSievOSxz+yTJAwggnj5cikk/JFRNguIl8gbhgnJ2oPHRf8KvMFNkYwF1poFTgT1ZD6fOp9zycSYWhjf35BFMj78D3ehA/TUmdDLfdqeuujCWY9BsUT9qZbB49tFysWLiD/HAuwIiR0iTn3AjuE4DtKY0gT7CK4APeGaqpLj3UKSxLCsKBuQ1d49B1t1vLsKJ5H/nzlNPdO4dDSOtGBqNW7dmIpunmnmcZzAawXwwhBhECLwA3ieh1q9jsmpSRw4cACPPvIo9jz2KLh+aq1eQxJHKLgOSsUiXMdFuaOMDRtGcPHFF+OSiy/G7t3nYMuWLejv70VXVyfiJG/sFI6ThT9mUNePQj6qRmdtW2uPiamvscDqscDxoU6JgyJHxGc/y5iOKMXEgQY+/M478YG33YFyMoxiWjg9qDMuXa/AZDG8UC+dqjzuhLC2HHqSiJNQgG4XY4RpE2HUEiAXnBLSyIZjl4G0gJSSkF1AwXEQhr5a2Ug8doZqslfAXokjb+Wpq24C12PNTz5aspBG5ZLP90WyAc9slDfTz6MECKNUJBbfD0VWCaMQtVoDMzMzmJqcwL59e/HwQw9i3779GDs6itnZGYRBgILriqftOg6KhQLiOEIQ+PL5+vXrsX3bNmzfuQsXXngxLrrkIuzauRNDQ0MoFLKQRrbaosUfe+sqoKsWTznoxktfPQ+3KenatICWLwiWvPxCby0B1z4i1G3LhWvZiL1YrVH6zq/g3W/5InrsERTSoqx+ZFkq/e6paupcA1VPHiJ4mQJXyMFZqomLOLHhuCU4roOGX4PlRrAKIVLHQ6nDFkUh9FK06iGSyIGFEpAW4Vp0WB0EgQfbVt46oa6OrSZUWexhzK9vSlnnTEJd+jucwLowyzNRqRcQxSn8MIYXEMaReOmNZgP1WgPjE5M4fOgg9jz+CB579BHsfWIPatWadEFSeSuDCZSzu5heO793bBuFgosCdfaOTmzYuAWXXXEFbrzxRlx26bMxMjKMYrEwv7+EAdkcHFl4HDg0q46rh1vX5qNiam0ssPItME8XlZelHepIZI1SmZqTZryIIFB/z1s+h/f+3ZcwWNoGJ6am/vSgLi4gVxuSoAyCN4ZNbz2TXwjdOHZgu0XYjo1W2IBTjhHbLQwMl3HuhVuwfngQ44cr2LdnFDPTDSRRATbKsLh4BzPbJIFAHchDnQ1YQUFdZswqL/4MQj0Tq+0F/VynDvAjaufUzEN4fogoUvr51OQ0Dh46hMOHDuPQwf144rGHMX70CKpzcwh8HylFqQy41Jkcx0YSxwh8D3EYCJgJdNt2RA+ntOMUyxjZsBGXXnYZbr75Jlx15RXYuHEEXV1dKBZpDA6mMt/DvPiiBh44Ls3omvZk+Cv/LjclNBZYQxY4GairNUr5PFtJIgORM0da+ODbvogPvv0ulJJhuHHhNKHuSOOhoB5lUKdEojzpmA2GXZAxuiBtwSqGKHSEuOSKbbjuhosxNNiLmbEavvC5B/Dow4cQeNT4O5Aw3SJ7GXaSeelhtuKqOja9eQG7uKGE/pmEeuboZlK6+LxsYwj0hhfBC8J5Tz0KYzTqDTz++BP4xgMP4ODBg5ieGEdlahx+s4bQ9+F7HpIkUiGMBHDCUYcUKaEe+oijQACvs6yxm+MWO2AVSogTC6VSAVdeeSVuueUWXHbZpdi9awcGBwdQKLCro4YymHZApBdpcS3E9PylO3a8aPc19OyYqhoLrEgLyMicKtkinjp9dPHUs/BoK2FmFAdzYwE+89FH8OF/uBvThwMU4lKmqZ+6/CK5WSxHTm+Bg5mEepwl2CLUC0gkv0sBlpMitgJEVgNdgxZuuvUSXHvD+egslZD4Pj758a/j6/c+Dr9BAagTUWgjjRKUSi5SDqpaGdSlF+DASgj1YiYTiwaC1LHOkKaegzq7JRzYDeIEzSBC0wsQRAni1ILnBWg0Wjg6No777rkP937ta5gYG0PQasKKPCD2BepxFMItOHBdVwZIW40mkigUySUMfPlM6/iUaCQ5ZqEMu1hGLGsPAt09Pbj00mfjumuvxeWXX4bzzz8Hw8ODKBQKcLIRZmnTJeadshEvl06xuSLvaFMoY4E1boFcnLdAnd6rTmSogE/+BAkdPhsFxqEnFmqTCe76n8P44NvuwBMPTKCQEOqFp6Wpy3xOy5XhNwX1MAd1JuxyYTslRLGNKI5glxJEdg1Op4dLr9qFq669AH29PajP1vH5z34TTzxyBKFXhJV2IQmpl0NUhTRtIUUe6m4O6pRf6DZTpz9TUJdsYcq4Uao89BYHQ8MAfsSWk5nTLAH65NQ0Hn3scdzxpa/gkUceQ6NWg51GKFoR0siTAVAJL8xkEXrnjFlnjFAUhvC8lkCfk5EkoYCagoqI/rdbRLHUIZ53qVzG4GC/hDzSW7/iistw+eWXY2hoAJ3lUpYwLBu5zkT2Y3Imr/HHx1TfWGDlWUBDnT8JdVc57ln4ybynnhXckkmLNmoTMf7nIw/hfX//ZVRGIxST8mlBHSgoT90KM6hHWT4WlYXRtgl1CyGhXgQSt4XYqaJ3nY0tOwYxONCPylgNhw5Mo1FJgLgbSDqBuCBRM8rF9JSnrlnIumr5hdkjxYs/kaeuJ9+0X8X5EMWFyJZFL3T2dWwBfkgPPRSoB2kqkKfnTga3mi0cPngI9959D7569104engUzVoNLkeQUx9h0EQYhhLHydBFyi8xJyUx9DGKEIURInrscZTlV49FhiHX2dGijmU7rmqliwWZqNTd3Y2du3bimmuvwW233YotWzZjw/p1osfnY01Vm6QnD6y829mUyFjAWIABiyr3yfyEnTzULca+qNAHUd+jBHZiozLq40PvuAPv//uvoBANoMjoF4lTP3X5RcRbhiByXQfbA2yO70UqayK7CTq9buoihYvEcRBZPtJiE5EzC7vcQKlkIWkCsVeEnfTCSrqQRmXYjIBxXJGX7Ux60emAdZZHGaiVsGwZOTjBQOnpQj3DY5gADS9EjZILJxI5rkA9iEKJYvFbLRzcuxdf/N/P4Zv33YvGXBWh76FgJ7DtEEkayUQkeuoS5wkLARsIj8CPpDtDuMdRJAMhehKA6OMxZRTGh9pgHLzo7IUiHLeATVs24+qrr8Ztt92GzZs3icbe29cj4UMCdkbYSMubrU1onh5jAWOBFWiBE0FdpbxVk/HVJCA7W3tian5G6Z3osrjyEdMEPJ3JRyrixkJRYsdTgbqKKedLTd0XMRhpTF29BDgd8JMIaclDaaCFwY1AV0UxRnEAACAASURBVJcNvxJherQJr16EFXfCSjpEj+dcJR31oi4AJSZ66ZR9WCE2ICrM8cQzSk8T6pKISwZGU9S9EA1OKOKHjoNY4tNDaX28RgOH9+3FFz77WTz+wDdgxRHW9fejo2ijWLZhcwUP38dctYa5ypzEsDcaTbRaPiKmD0hSBGGMKKF3rppokdYE6okUwmbSeMo1NmNF6bk7GFq3Dpc861m4+eabsXXrVuzevRPbd2xDd2eH7JtEkUTX2Da9d/MyFjAWWJkWoBeuMxVmmvq8p66hrqJfKLvIagoxoKDO5exU7hcuZ/f0FslQULcJdfYI7EDJIFm+AJnvQl+TxksYyl1AgjICK0SxN8IFVw7hqhu3YXCwE9WxFj7/6a9j32PTQNSFotODOExl7LAgh+f6EWp2KqGuBmiZaoA9A8rPKsXA8WeUPk2oz+dCTy1EMdDwIzSDAEGSIGTngAOSbGFkzmyMZq2KA3sex7133oGwXkPZsXHejm3o6Syjo6OANI0wW5nFgX2HsH//fhlQJeA5WcnzA0kfIDli4lSiVWIm+yKUaYA4VlC3CXVCP4XtcATaRnd3D7aJtn4ZLrnkEuzctQMXXXgBNoyskwlMURgI1B2nsDLvZVMqYwFjAQXSbCEKkUo5UHocqBN44vSeSahzcpDM/KRXzkFORr8Q6ipPFWwXPhUGp4mhbQU85/k78OzrRiQgpAtD+PePPoCv3bUPrboN1+pEEltIowCOmwFZJhwdD+rsGbhPH+r6fmpnv4Z6kljwghi1pg8/YqC9QzUkg26W1SyNUZudwWMPfhNjhw/iol27ULQSDPX1ortchGMl8P0WpqensX/fPuzfux+Hj4xiamoGtXoTnu9LaCQ99ZAeexzD50BsECjPnWGP1LVsF8z3EjHk0WG8KCcoldDf34ftO3ZIJMzg4CC2bNqI659zLXbu2JHlhVGrLplZpYYexgIr1QJnG+pq5M1JiqKpKy+dPQQ6pCp+XP7Uk4YkVYCF0G6i0N/CxdcO4Oqbt6G/pxuVIy6++sU92PPgBGqVGGlUhI0CHFvFvwtrxVMv5Dx1Znukpx6cvqe+GNTngZ6ym2Gh2YpQb/kI6ZUTrDYQJtmwBX/3PcxMjOHowf0oWRbO3bEVLmPD0wQOoRy0EPgt1Ot1Afvk+CSOHh3D4SNHMDY2gVqzJUBvcVZqkkiYpBcEaPo+gpiTmjjLVMW2y4wy5n+wHVgOR6NdlEolSSmwYcMGBC0PPT1deO1rXo0XvvAF6O3tlgFX2d7Eqa/UJ9qUa81bYIVAXQZKKZ4rqFMCUdo3E4gxaiOS2fCOQ+29gHpYg9XZxODWELsu6sbwUB+mDgXY98g0qlMJ0qgTdtoBQtOxVJ4qOqmcFctB2QX5hefS8gs99dOQX44HdZnJKYOZQL0ZCnCljWG6AMtCRFlEZl0BrUYd0+OjSPwW1ol37qKQxMxnhshryjv0W2jWG6jVapibq2FmekbAPnp0HBNT06jU6qg2PXhhhICpB6IYDUKdvYM4QJKEqnvGkWnpElmiqRPWlGWY4bFcKiFotdDR0YFXfe/34LWvfQ127tiuvHXjqa95bBgDrGQLnH2oi5ZNSYSDo1aI1Kb3zFnt2cTGNJU04CrFCWe8d8BPQ6SlJqLSOJzuCopFhgKW4FVd2HEfnIQhjUwTwKReKZKY4KZ4xIaCUC9kmrr21BlCeSahnlpoegnqjRBM2hVzRleWbpezu9KUs61iNGpVmTXaWXQw2FVGgVpUGKDoWIj9FkKvJd58s95EvVpDvV5Dda6K6ekZTE7N4MjRcRydmMTkbFV6BB6jaeIUrSCUlL3U7JNUTVCi5EKIU8+f99ZhqYlHlIbCULT0G65/Dn78jW/EjTfeINEy4qWb1Lsr+ak2ZVvTFlgJUJe4GkmLS685tRlWmEFd9PSE8SESfBEGQKnYCxQcNJM5uD1VrNtmo6e7gGYlxPSYj7BRkpBGKy6Jp07pJUkZ0kioM3Aj56kztkdi488w1JkRrdGKUW+qFkv55tmQhoY6EgSNGuqVaXQVHdHSe8ouYq/JSE4Z8aX0wtmkoR/IhKRaZQ7V6hwqc1VUZucwOjaOA0eOYnRiGjO1OlpRCj8BvIhZ2Rjiw8FYyjCB8s7FU1dwJ+QJ82KJhkvhez7SOMLWLVvwcz/3s3jlK1+JEhN/ZRr8mn5uTOWNBVasBVYI1KkECGCjLKcYPWkOaCqoW8ywmEZAzAi8DkldEDoN7LpkAFdcvw39fR2oVyJ86XMP4NCeaVhxF1yrC1FA7z5AoSiufhb9ovK9qOmYZwjqKvhfzUpiBAozLzZbMbyI1VFJKFXgkRq4JOI5uSiitDI3g66CjUIaoewyX3wIK4kkQZcfcpWjFpDEAvSZySk06lWRYqrVOsYmp3Dg8CgOHZ3AxGwVTQ6Ypg68WA2acqDVTkPJRcwoFsazu4UC3EJJEtZzQlOxWIbX8uSCJFGMvt5evObVr8Ib3vgGbNqyxXjqK/ZhNgUzFpCRw7Mc/aKiF21J5sXQcZaHzmMZaVpS6UrErfXg2IFKR8JiOxE6B4FrbtqJy6/fimLZQdzswH984l48dP9BBC0XDsqII86QD1AoKICrgVINdclYtfSeOourxn8zqMcxmj4HKymF0EtnBdU/iSNnSkrGl0cBwmYNnQVb3n59Dp0u4HCyke8JiLlgRhAGMhdsdmoSk+NjaNbrItvMVauYmqrg0Ng4Dh6dwNj0HOoyY9VBmNqSP5mDEwwVQhyiXO6QCUg+JyrFnFjkoKurB8ViCb4fiN7FPO3Ma/zcW27Gr7zpVyRlrwTKm5Tqhh/GAivUAisN6mxm6EVzvgsXu+AUf8q/HlzHR5qoCZOJHaBzIMa1t+zEt9x2EQY4UDoa4j8/+XV84569aNUsuHaHTJy0wBn1jOajpKyhzpFHlW53yeWXdqizwEzY1SDUU1YnS7AjmXgV1G3O1oxD1CrTaM3Noq+jiO6SCytsoVqZFKg3Wy3U/ZYk4ykVXFSmJlGdYVA+Z4+G8H0P0zNzODI+gUNHJ3F4YgbTtSaaYQqfaQjYHCYhnDiAnSbiobPVczijtMBwIzUISo2d+dQZ6ZJGnJkF7Ny5A7/xW2/GC174IrjFktHUV+jjbIplLLBSPHUJwZCxQ3rrOU+dfJHZpcpT56CqJJjl4h1OA1vP7cIlV27G4FAfJkY9fP3+gxg7UEcalVBwOhXUUw9R7MnxVd50euqEOsf7sugXJhKTyUdLFKeel18ocTQ9H40gQQAHseRFyG4+mXBESSRFGgaYGD2IscP70d9RwrYNwwLgJx5/BH69Dg4X9w0PoqOnWwYxp44ewczEOLx6DSEjY5jIyw8wW61jdHIGRyZmcHS2iplGgBbzwTCKMo7gJiFctaKGyC+iqTMXDLVy5lSIGcfO7GlSUklHwOQ6b/7NN+Plr3g5yh3dsq95GQsYC6xEC6wAT50+swTYqTS/jPJLrBJSWbyCmjq504LDlLxMwxuXZMEMP/Zgl5voGU5Q6rDQbISYm41hBUpPtyRZFwXskCOQKvWATD7SA6VnEOr5S83p//WWh2aQIrAIdTVNVl6pWg2EnjpnSdVmpjA3NQ4n9jHQVUZfZxH7Hn8EXr2BYkcJXQMDKHV2wG81UZ2aQm1mEpXpCTTmKuKtM0VAwwswPVfH6HQFRyZnMV6pY64VyBJ5PI8bhzIAStM4QnfKKbZ465brImSKAWZ9DCNJ+MWVk/r6+vCmN/0yXvG9r0RXd5+B+kp8lk2ZjAUUVM6+pn4M1LlIBT32BXmEU/iRtkSIdpkj3e+Ebfcgtoj7BhK3CrgtiXBJYhcl9MPiAhmh0tELLh1PhmYz1p2fLTPUqYEL1MMUYQZ10dwlRVqqEtxQfolCtKoV1GemgLCJnpIjEszRQ/vRrNfgByGsUhHFjk7EgQcJfI9aqEyOozI9icj3pAMQxkCtFWBsZg4HxiZxaGIWU1XONiXMQ5RsoLPEfC/MuRAjCJgnhjnt2U3hQhjMHcOpvUBvby/K5bJkcXzjj78BL/vul6G7b0BCIM3LWMBYYCVaYCVAnWOBlF/oqavolySLtFMpAwIgoacOFK1eRH4XEqbWtctInVBS8MJpAq4vuV6cpEdi1JNI0oChUEiRJkwUxnTjywx1mjcIAtSbHppcUNphcKJk11KZymS6LD31GInv4ci+J3Bo7x4M9XTi3B1b0KrO4MiBvahXKth/8CBSt4CB4XUS4thTLqKvq4SgUUV1ZkoSgal4IRetMMF4pYq9h8ex98g4xmdqaLR8uDawef0Qztu9E70DA5iensVje57A+NQMEsafU0vnBF566aUi1o+MCNApx7zu+78P3/my70Jf36B49OZlLGAssBItsAKgzjyF85o6NW7KLyrN7rFQj1GwuoC4B2FQkm0I8sSuInU92AWA/qub9MAGMzSqPOq2TeWhAZvpAiRWvd1TZ1bISBb/oLzztBN66cubz/2ioV5rtNCKgMh1VULIbBlBLmJBPZ0pABi6eGTfXjz8jfsx2NOJi87ZifFDBzA1Poqi6+DI2BgK5U5ZXzQJfZTsVCSa0KtjbmoC1dkZWbeUXjSjXaZrDew7oqA+OVNDy/cx0NeDC3btwLYtmzE8MgK7UMJd934Nd91zH2bmqnCKJUnFy4aIgvrIyAi6ursl1cDrf/D1eNWrX43e/kGJaTcvYwFjgZVogRUC9Uxjlln8RDFzv2SRfwSuy+yNSYBUvO8uJGlR8p5bboDYqiKxyDIXUeDCtXrgoISUybxSJgLjTFW9RjOvAccpdZZGNeFJVlySlAQnGig9ievHQUWRVnIzLplMq95ooR7GSNyiDJRKpEmmqau8LhFcLklXncb06CFYkS/SCwdCOYN0YKBPIt/dcqcKOWzWkYa+rITkN6oiwcxOTojWHidqRaVay8dUpYYj45OoNluy37qBPgz1dKFUKOLCyy5HuXsQDz2xHx//t//E/sNHYbsFOMWC5GePYy6XV5Al7xif/v2v/wG89Du+E7301BdWpT4Jq5hNjAWMBZbPAmcf6gqzinEKdToliYReiC7OCBgCmhMdLXra4sVbEq+eEthZaskkcWRhDIvJUmRaTyrrmrJhkOhBeanc8BlUs4WoZfRSwH58T/0krspiUGeECTMo1oMYsVOQkEYVlq9CGgl1iUhJfMBrIGpW5d2ozGBmahLdXV0YHh5GqbNLRog5iBk0G4h95oKpo1mdEU99bnoCXquBkJE2TQ8tzjptepisVCSxV093D3o7ioBPLcrGjc97AUp9w3j84Dje95GPY8+Bw7JYR2pbsnISy9bRUca6kRGcd8GFePVrXo2bnnsrOrt6TEjjSdwLZhNjgbNjgZUB9bxju+Do6gku85EimYnyq6nNyxgZo/V37ZNjsu2UG53LHJs51vPLfaqQyojrUNhVDG21cO3tG7m0XuaCP8VVWgzqzIxYbzLGPEbE7sQ81FUOdcaMF5IQhTSAFdQR1isI6nOYnRiTZey2b9+G3r5+WcxC9G7mSvdbAvZWbQa16QmJgKnPTUsudnrrjGlnjmI/5Lk9ybvQQxjHAVK/hcGhdbj4yusQ2GWMztTwwY99Co/s3S8LYavxWzY7CTZv3YwdO3di246deMUrvweXX3U1CsWykV/OztNqzmoscBIWWMlQP4niL9EmanUlPat1iaHOpecaLU/N7uSKQwJ1lZN8AeqUX3zAryKozcps0urUhEB965bNGBgcFJgS6jweE3u1GlU0ZidRmRqTJGD16ixqlRm0mg3Jqx5GjG1R0TCcMMTsi616HUXbwnnnX4i+kS04MlPDeKWBT336M3jiwCEZLGXCrmKR0TEWdu/ehR27CPUd+K6XvVw8djYu1LrMy1jAWGAlWsBAXXz3MwF18XY56isad4AqF7BIbMTM75t1F2SdUZFfIriRh6RZQbMyCW9uVrTy2clJlIoudu48B8Pr1otswkFMj+CuV1DLQb02O43ZmUm0Wg1JsysNB9P7MglmqQOlUhm+56Gr3IFd554Hu6MHB8Zncf9Dj+POe7+O6UoVdqEgmRn7+/tRKhWwdetmbNy0CRdcdBFe/JKXisfONAFqnVKTK2AlPtKmTGvdAgbqZwzqhLnWlZizpdry0eQSc2D+FzWvSuLUOSEoieCELTRnxnH4iUcxcfgAOl1LPPIo9PGsSy7Fpi1bZTIQ1ydtVKsivdQrM5ibGcfM5FFUqKvPzUi6AKZ54cIXMkM0BdxSWWaCFotFDPQPoW9wGHNeiIf2HMJ//99XcHRqViQarkDChTK2bd2Cgf5eDA8NYmjdMK657jrcfPPzMCgNC730vIa11h8iU39jgZVkAQP1Mw51gp3adtXzUQ+5QAahrkZrxVNPqKnHcCIPrZlxHHzsYYwf3Ivuoi0LVXDhjIsuuhgbN29GqdyBIPBRn6vIAGljbgbV2UnMTnEC0gQ8r4GYGR3ZoNiuhAgxO2OxowsDQ+vQPzCEwaENCGLg/gcfxWf+7w48cuAIwBQBrivl6erqwvnnn4sNI8Po7+3Fps2bcNNzn4tLL70cxXInLFmj1Cxpt5IeY1MWY4EFCxioLwvUCdYqdXWGCmZQl9jNLE7djWMUEh9ps4raxFF4lWmUrETWK23U6wLW/v4BtTqS56FZq6BRq6BVq6BemcLczCSqlWnx6uM0lhmhMjsUlqyA1NHTi81bdwjY/TDFo3v24877H8BXv/YoYrcAu6AmRTElANcpvfCiCzAyPIi+3h6ce+55uOXWW7HrnHNFymFjYeQXAxFjgZVqAQP1ZYE61yFtBAFqXgA/ZhZ15lvhSiCcYBXDTRIUmRa3VUPUqMAJWiimsSTrCnxPpuq7jiMpKhm22GxU4TVr8OqUYSqo02uvVuAHnry5+DQHSXkuZojs6O7Blu07YRfKOHD4KO77+kN4/OAoJiotlDo7kWYzXR3HxrrBIVx8CaE+hN6eblx+xRW4/qabMLJxE+JILVqtBkqNpr5SH2tTrrVsAQP1JYX68W4lhsh7cSS6OqfrR5zp5KiVOrikUyFJUWYaSb+OoDaDqDYL+C2ZaSqLs1rKi44TpthtodWswW81ELUa8BjTLmCfg+c1UW/U1ULTSSp53Ct1put1MLR+BPWmj/2HRjE6OY2ZKlMXJIgsSi9FOMzUaFkYHhzApZdegnVDg9gwsh433nwzLr38cnR192bpec1A6VpGhqn7SreAgfqyQJ0nCdNE5JeaLArNpC8FtYpQonT1IkLAq6Ny9BBmjx6GNzcj65O6jo2uzk70dHeho1xAkihvPfQaCP0mWvWqhDNWqbM36xKjXmPudcnhHmKmWsPMXA09/YOIEgtjkzOYrtZk0Y4gteEnSqYpFIroKBXR09WFyy59FtYPD+LKq67CTbfcgk2bt8psU5XIS+vpxlNf6Y+3Kd9atICB+rJBnd66L9o6vXW1ADVlDNtyYMWRLIiRNKuoToyiMnYElcmjEqvut1oig2wcWY9NG0dQKtrwCXSvIT854ag2N4vaXAXVOhN3eag1W5iTfDMJZmtNTE7Poru3XwZEp2YqmJiexVzDR+IUAbcsi2BTsC8VixgeHMS5u3fi2quvwK3Pvx3nXXghSqUOWLaCuoroMUBfi7gwdV4NFjBQXzaoc6ZmnKZoBhFqzQCtgCtiq8k+dhpLDnU7aKI1O4nmzISk4fWqswi8Frq7ujE02I/uziKShHHqNXjNurwbtTkBer1WRctvSU+gWm9hrt7CbKOJmbkmWlGM7t4+hGGESq2Oyhy99zq8GCh0dMNyCwJ1TjoaGV6Hiy+6AK98xctx7fXXo29gUMpoWa4KleSCsrncNqvhNjdlNBZYOxYwUF82qEvy+hQI4hR1P0LDC+EFTLaSyiKtXGjaCppoTI0J1JnXhYm90jhGuVhEZ2cJRReII4Y51tCsV8VLr9fmRE9vZjNJK7WGaOd1L8RkpYZK3UNn3wB6+wcwOTmF6ekpGUit1Joyy9UtdcHiknaOi87OMrZu3oKXvuTb8OIXvRBbt+9Qy9dlUS+MqDE++trBg6nparSAgfoyQp1L19Fbt+FFjIZh+oBIvGdmMS9aqcSqh/UZhLUKYq8ug6URF5q2AJcBM1aIKGiJjt7guzaHRnUOjVoNTeZ88XxUqnV4QSJe+NRcHTUvwsD6Deju6cfokcOYmZ4EV2Oaa3hohSlKnT3iqVNTHxoaxJVXXoHXve51OGf3TpQ7u1W8u54sZRuor8bH3JR5LVnAQH35oC45weit2whT6utcei5Go0lvPJT1tp3YE7BbUQtxq46owZDGFuIoQBL58LwqgpaSXZjHpdHgIKmGektS5taz6JowsTHXCmVt1I6ePhRLHZiemkCjPocw5HYhUreIju5+iX5h0rDzzj8Xt99+O2688QZ0dHTKuqVciJrL3VFyYQ1M1t21BAhT19VnAQP15YV6yizBXAWEEScQXb1W9xF6gaxmZDOLYshQxRqiZg2x10QYtCR/erNOeFcQeHVZaNprNSWpF7V0Lnfneb5kcIxTC5YMgBYlXDFIeD6uP1pEZXoK1cosoiSWSVDFzm445S4UO3qw+9zzcMONN+Cmm28WbZ0pBTjJiMfkAKnDCUqxWp7USOqr71E3JV4rFjBQXz6o80wp08OrxPGSKj6FhDc2ai0EXhNpEiKkJ87ZotUZBM26AF0Nhs5IAi966nHoy/Z+U4U1JjElHKkKkjRFqaMLpY5urv2Bhh9IEjGmJqjX6piampZUwF09fejuH0KYuti66xzcfNttuP7Gb0Ff/4DILdTOWUb1U2eAN4r6WkGDqedqtYCB+vJCXS3cAVkAO4NmnAB+GCPwPIk/5yzS2uyUpNTl9P96tYIGszY2azJwSoh7jRrSKBAt3uLqIWksC1gTv8z7wvS4hVKnZFTkotfTcyrixSPg6bnDRmd3n8gyW3aegxufeyuefeXVGBhaD9thA6BhrlN3qfzq6mXyvqzWx92Uey1YwEB9maGufF61oNMC2LkqE/Okc41RptWtzzH74iSa1VkkYQDEIaw0gBMHsiLS1OSYDJby84TvKEQchkg4A1VyDzhwi2XYhaIspXfo6BjGJ6bgh1wElrleStiybSeuuO56PPuKq7D9nPPQ3Tcgs1yZ3TG/zqqKStdQ5zcm7e5aQIOp42q1gIH6MkJdL79EiWQB7CJxcCySHnySIPR9CVdkLhdKLVYcAkmENPQQNlXK3bmZKYlNj7jUdhoL+L1WSxoFGdfkhCamIbBsiUs/eOgIZipVwCmh3NWHDZu34arrb8C1N9yMgXXrUSh1SENAwZyLShuor9YH2pTbWMBAfZmhroQNLjxNh5qDpaJfqwmdImIz10sUKM2cA6JBqylhi63aLMLmHOwkEIgT6hwsRUIv3Vdhjc0mbNdBoVCSvOdcm3R6toKjY+MIUwsbtmzHeRddit3nXYitu8/F4LoRybzIRTXY0DBfu4a6Vs+Np24wYSywmixgoL5MUBdaqzfzvTA8UJbZVkq1WnFbveRXbpckEupIwFNTZ770uamjakENG6jOzYpHb6XU1RP4Xgv1ekPkF6eglpyjp85om3JHF0a27cDI1p3oG1yHcrkTTpFvNbGIg6vS3ORCW3QyADUAqwUjI7+spsfblHUtWsBAfRmhzgFNWThPgV2vU5rT1+f5KaOpsQof5OBnGCDymoj8JhAzBLKlwhOrc5JDnVBP4ljerltAd083evoGRFaxXReFzi6Uerl4dYnR8LCdogyWhswQWSxLoxKrHABwskD0J0FdGiQD9bWICVPn1WQBA/Xlgzp94WwCkpB9Huxq0JTLzglIM32d3rHia+blJ9w/UoOjhHyaIIoipEkkurpqMCxYaSpg5xJ2zH0uB3SyWaE8hHymcr2Iym8pDT3bXZ2/PcZFyp1BPZWpravpLjdlNRZYQxYwUD8LUM+omQsNzEfDaAlmQdPWw5bZVvSoCXEtwiskL9y0BHA2C3QevtxWBmdVYzIfh67Bnrvl9XmPCVw0UF9DUDBVXd0WMFBfRqhnWrmcUYsbCqEayxrNxw5S6lssD269V37v/K3Ylh73GHgveNn55kLvnS/Z/Ja6h0H5JTVTSlf3Q29K/8y2gIH6MkG9Hb55bC/42flQQu2x52/A9u9z7vki9+mTJZLF9s83JIs3Jpk2w6ZHInRE6DcvYwFjgRVpAQP1ZYS6BvvJwXax+0VPWFrqe+nYJmYRZs976jyziocxL2MBY4GVaAED9WWF+vE97ZO7OfL7L+RlORbCec9bb/Pkoy/srbO8LEgtJ3LD1WCseRkLGAusVAsYqC8b1NuGM+WOOBU8Lqjvas+TbSAWU9DVvsR5vmnQN2m2Rz54Pn//nkqhV+p9b8plLPCMtYCB+rJBXSYZ5eJU8kOZ7fLH4vdbtrdIIe1k1RE12Z6yTdvL0mm6jnM3P2mXvMySO5+B+jMWB6ZizwQLGKifVahrb/3koJ7NSJ33rtvcZzmIjGRmI69tlJaJQ3kiZ9ses0++/3CcYVMD9WfCk2/q8Iy1gIH6skF9MfmlXYI5MS/znvoid6QwWh9hMU89D3XdT6D3To88F9yoo1vymz8pj8Ez9okwFTMWWOUWMFBfNqjzRIvp4Kfm+J6skn4y92Wbp653kYlLuRUyTuZQZhtjAWOBFWIBA/VlhfoKueqmGMYCxgLPWAsYqBuoP2NvblMxY4G1aAEDdQP1tXjfmzobCzxjLWCgbqD+jL25TcWMBdaiBQzUDdTX4n1v6mws8Iy1gIG6gfoz9uY2FTMWWIsWMFA3UD+F+55L5Vkm98spWMxsaiyw3BYwUDdQP849R4CLcTKI828N9dUM9mdKPZYbFeZ8q8UCBuprCuoa1Pr2PB6c8+BrB/tqAXp7XfN1Nj2O1QIoU85Tt4CBuoH6Kdw1qx2Gq738p3CpzKZr1gIG6msO6u1ga/e8kyQRySX/ufZ6V6v80l5nA/c1GCjBAwAAIABJREFUS7w1UHED9TUH9fxdvZiUoqHO7RaD+WqRX3Q9WR/Ww3Gc+aq3jxesgSfdVHHNWMBAfU1B/enc13EcCxRt25b3anvp8QGWezWWf7XZ25T3bFvAQH3NQz0/oEiAe54nXm2xWBQI0jNfbZ5tvh6FQmHeS19MWjrbj6A5v7HA0lrAQH1ZoU44Eji+7yMMQxAyrusKQEul0pN07Hw44VPJHqcKXq0ra0+WP2u1Gh566CGB+M6dOzE0NCRlO5VytN+gT0e/ZsNC+2jb5KWTEz0A2gbVahUPP/wwyuUytm3bhr6+PgH78cqSt4XcEMeJxT9RXfLHONlrlT/X07HT0sLAHO2ZYQED9SWD+mL6M6GtH1z+3mg0cODAAezZswdHjhwRuBOcW7duxYUXXoiBgYF5iBL+hJpuCLTXrGWE/LH5mf67XWJoD+3TnjePTy9W7xdFER577DH87d/+rZTtp3/6p3HNNdegq6trfuBUH4vnyJ9P69b63O0Nhj5nvg6LwV/X9Y477sChQ4ewYcMGXHLJJRgeHl5UOtHH1edjnVgP2vctb3kLuru78X3f931i23zZ2svJ8vMzLTXR7nzpBk8PHOvt9Hf6c11uNhz5MYn89/l9tO30tdTn0eXK9yieqoF4ZoDI1GLpLGCgvuRQ1w9kHnz8bGpqCvfeey/++7//W+DZarXkOhIE/f39uPHGG3HTTTfh3HPPFZDqB54eq35pXZs/Ca88nLTu3X5+gkqfJ/9dHoQEB8/D8v3Yj/0Ypqen8ad/+qd40YtehN7e3mM8XG6r66ahxXPoY/On7oFoILVLOIv9raE3OjqKv/iLv8A999yD888/H6997WulcWEDpF/tDV2+QaVd7r77brzpTW+S3s9v/dZv4TnPec78vrr8uiHUdmCd8r0dXUZt/3wDqL1+3WDnoZxvRNt7ONpG7b2qE3npZhxg6XC3No5koL5kUNdQavfC+GDPzc3hs5/9LP7pn/4J+/fvx0UXXSRvwoEAJYQofTz/+c/HD/3QD2HXrl3HeOztXiP3I2z4k8fXgKeH2R69ogHCz7V3rgHGY+iGIggC3HnnnfiRH/kR8Pff/u3fxotf/GLpPWh4aUkkD0D9O4+d95zzenzeA803RPq4eW+UdvqTP/kT3HfffeKh0x4E++Dg4DEav248WD9db5aBx//CF76AX/3VX0VHR8c81HV52r37PJgXA75uQPidloHy5c33fPQ2+jPt2efhzmvFN4/FcvN3vihz6cZR9xR02dYGjEwtl8YCBupLCnUNX+0FauBRSnjXu96F97znPbjsssvwAz/wA3jWs54lDzVh/j//8z8iF2zcuBE/+ZM/iec+97niZfJB15DOe4y6m5/3/Agf/q3Bw54AP6OurMvD7zTE+R3lH30OHp8gfeMb34iDBw/ir/7qr/Bt3/ZtokdrgHJfHoMg4v55nVp7+7qcrBuhmpdpdG9CQy3fWGnv/2/+5m/wL//yL9LYcXva62d/9mdxxRVXiLeuveK8xMNzsL4sA8/5la98Bb/8y7+Mzs5OaZyuvfZaASZtypcez9A9GN1Y6Z5HHsrt3rhuQHTduS9t2Gw25weX842eflB5TDaWWlbTttT2yUs3+R7O0jzo5ihrxwIG6ksG9fYutQYuH+LHH38cb3/72/GRj3wEL3nJS8T7vOCCCwQyBOsTTzyB9773vaK533DDDbj99tvR09MjkSj04rn/5OSkQIsaPPe96qqrRDMmKOj9f+1rXxPYPvvZz8bExAS+/vWvC2gon7ABufzyywVyBCNBRN2cxz58+LAcY/369fL53/3d3wnU//7v/x633XabQJTH3rdvn5y3UqmIfLRu3Tpcf/312L59u5yPA6x79+6VXgmPRw//yiuvFAmFZcg3ACxnu25NyB09elRkk29+85syUEt7sN4/9VM/he/4ju8Qm+SlFl48lpVSDXV0nvecc86Rhuuv//qv5z11lpPXg/Xjdg888IBo9rQvbULJi9vQBjx+vV6XbVhn9hb44jVi3Wm/8847D5deeqlcD/ZuHnzwQTnnpk2bpPHh97w2uhHjOTlwS/vwGDznjh075LrQfpTb8hJOvlE52UHitQMtU9MTW8BAfcmhrj27PNQJnne+851497vfLTB4/etfL/o5vWC+CF+CmZChzMABQoLlox/9qEgJBCXByAaAHizhQW//uuuuk4bhi1/8ovQCOAi7efNm8VpnZ2flJ4/Nc77mNa8R3Z5AoW5Nb/i//uu/BMiEJcFC6LEcPM+f/dmfSY+Bx/nHf/xH/O///q9EkjCyhPVho0KphnD613/9V/meUGU5WfaZmRkB+ite8QppqPLavPbUCa+8Fs8ey//7f/9P4MrGjzD8+Mc/jpe//OX44R/+YTmX9qZ5LjZKH/zgBwXAtBHHJghXgpcAJTB//dd/Xc7PRoS2ZL0feeQRsQN7MePj41L/b/mWb5ExBJaZ4x+Uyj7zmc9IuWkX1onHZWNIeYxl4THZ6NDGtD09dvYsXvnKV8q14fa0NRtINozsRRD2tCmvNaH+3d/93bj66qvneyG696JlKqOpG4ifmgUM1Jcc6u2DXvybwCGw/uEf/kGgQMgSNPTotmzZgpGREQEMIcE3YfyNb3wDf/AHfyDQYQNAr5dA/bd/+zfxZL/9278dP/qjPyqRM4QPZQt6jPQ66ZXTY2UDwO8IHIKRHi89aMoTv/u7vytA4iAkvXuCieChh0/g/PEf/7H0GHgMSjH//u//Ph8iyHMSWhyApKdPABLi9HZZTkLxP/7jP6SchDrhzwYhry23yxoE3V/+5V/ife97H77ru74L3/M93yNyEM/NOv38z/+8nE+PJ/B8bMj++Z//WWDO8rDOhOh//ud/SmPFqJdf+ZVfkXKx8aCNPvWpT4nNb7nlFultfPWrX5XteVxG/Hznd36neNPclj0r2osROIQ1Ic2GgeXi8VgnNnw8LxsgXhv2zFjnV7/61dKrYsPMevH6coyCx2Kj+MlPflLszOgc1peNuZbQtLSlG7BTe6jN1mvbAgbqSw71/OCYjjzhZ4QNvVnCkXIKAUGvmh4fIU9o0AOk10gv9NFHHxUwEja33nqrfEfAEmT0TtkgvPnNb5YBVzYYb33rW0VSoEf+spe9TLYn2Ng7oF5PsNELZu/gwx/+MP78z/9cYP5Lv/RLcn5C/XOf+5wMUrKsBBE9VwKaUgajdii/EHpsCNhboBfJxocSBOHHz+npEtD0iHksNl4sJ/fVA5H5wV3+TrhRnqAOTg+bP6nn06P+wz/8Q4Egy8mGiR42PWfKPQTv/fffLwPM7LmwsWHDR9CzceAYBc/NxoDnoO15LNabdeax6OWzgeP5qd1zUJayzzve8Q584AMfEC+achntx2N86Utfku25De3D8/I6cmyEnzOCiBr+G97wBrERy8jj0C7sbdAetDXLQkmHx2UPilDXYx95x8B46msb0adeewP1JYN6XkbQ8NIRJzoqgh4gvVdqwIQJ3wQodVvCg5IDZQB20Qkubs9uP711gpKQpuTw+c9/XqQFQkRDnRDi9vRoCRsCi6D5xCc+gd/5nd+Rrj7ByMaEPYaPfexjAp6f+ImfEE+Xkgi9Vg7U0rMnyOmpE+oMMfz0pz+N173udfjBH/xB8VC1TMAGiCBlg8PysVfCMhOSlJwo03CwUg8M60HEfJSObgQIQNpCSyb0xtkgvf/975eGiuGWu3fvlnOzAfrN3/xNafRYLnq7bLDYy2E9aAc2kAxpJGT5IohZVpaT9eLv/PmhD31IYM+6s4dA+YmSExtQNmLs4VDjZ5l5/djoEMzsgVDrp615bMb40968JvT6eY3YC2DjRvu+8IUvlOvLngelGD32wAYxH7KZh7vR1E8da2t7DwP1JYO6HujSsoKGXj66gZ/Reyd4KFsQ0F/+8pdl4JGDcnzgCS567YQAJ+FQKqHOTQDwM8KTHh7B8Ru/8Ru4+OKLpQfAAU4ClcAhPNjdJ3goNxCS2ivnMQhKHpewJwyppxNkhCHPT5jSk+dAqZZfCCd6rPRM6YFqb5sSDr1TlpUNlC6nbsAox9BbJtR12J4OxdT2YCNCQNMLZt0pLRGiLNP//d//ia7Ov3/8x39cei20IUMff+/3fk8kDjZMOmKI3jQbzV/8xV8UG/Dc9I55bjaiPAclJpaP14zb0/b8m40c5RA2qBzYZmNCaPP4lFj44jFoY5aNUKekQvuxIaN2zrKyV8J9eG3YgLCx4rgHbUOPnL0oyjDsLdCDZ0PWHvuuwZQPn1zbsDK1PzkLGKgvGdS1d6V1UC298POxsTEBMQFP741aLiFD745wv+uuu46ZAUkoE/T0kOlBUv8lBKi3U24gxAkCeqGMtqDnTnAQ6owe4f46sobd/F/4hV8Qnf3Xfu3XBCzclg0KY7mp/xJK/JwwpERAD/+P/uiP5j116tqUXwh0vjkGwBcbDZaF4ZqEI89BSNEbp8ZMTZowZKNCgGmo67BAHoMNHOUbjh+wzoQe7cPy04b04tlY0LNlL4GDzPSMeV5Cnb0MetjPe97z5sMz2cDoyUeEOiUOeuU8BxszNhDsQbAebLRoI/Ys2Gix/gS21tQ11Old8/pR9qHdeDxuy+9pP/7NhoAaOhtcQp115otSmo6m4ZgKG2k2hux1cP+bb755Psom/+AaTf3kMGa2ylvAQH1JoZ6f6MMD65mf9A6pMdMDfulLXyoasNZQCUMOUNJTJeAYDUEPmQNy9MQJCEKR8GYjQFBSFqBE8/u///sCUgKXmjq/J8C/9Vu/VSBI6DIyhYDj/oQ6u/nao6Snybh0erv0Tgl6ApLeJaGuNXU2LoyU4faUOghDAo5gon5Nj5a6MAcH6Z3yO/ZAKPdwsJL10PKLtoueaENos07sabBs7AWw7Doyhh4sy8NGkR43pRDWhQ0By0ibcRyBjRM9c56b9iZ4CX+tqTNcktvQJpRGWDfakJBl+Vh31o8NB23RDnUCmMcm/GlHlpvbU55heempE+oc76ANeA42cAQ6y8jrzYaK2+kQVzYQr3rVq+Q4bGj0AKlOV5Dv0RhwGQucnAUM1JcU6tpbzw+WEhAEHKFFEBG47OLT8yOECHp2zamJ8yHmQ07Pkho2tWh6lIQO4UgwEaCMnCD86KnTGyRweXwC6+d+7ufkHAQWIc9ttadMuBPI1NN1g0D4sSwED6UOhjLyPNSH6fET3JRieA5G27DsjB4hgNiLYGPCBovn5CAj4Uedmo0Jj0HZhw0Wy6khpQf/6BHTOydAOShMQFLHZyOj5R3akoOx1L3ZABKAbDzo7XI/euWUXug1s26ELc/NiBx6/Dw3B3DZWyLIWQY2Ni94wQvkHGxQqXkTvjw2eyJ8sV4ENKUget2UTFgWDt4yooa9ItqD32up621ve5sMirJXxcaH14iNHo9NXZ8euQ45pYRD/Z2NpNbfeXzdm8lHwJzcw2y2MhagBQzUlwzqWjvXNxbBpafOc6CTWisHDgkmRmPQcyV42f2nJECvjXoywUJNlhEtBBIfcsKOIOVxqF8TEhyspMdIzZpePb1vyiaM4MhDnYAjuAlXgoTHJsjowRJQ7DkQxGx86IVSV2eZ2Miwx8Bzak+d4MzLL2yQCE+em8cgtOiRMoKF3jL35efUt+nJt0+yIYAZBkj404NlxA0bNHrYWnqgXSldELy0E23xMz/zM+L1ssfC89OOHI8geCnVsHGirMUIITZ8tDXrRHmFXjLLwsaSL9qTIYrU1L//+79ftuG5Oe7AKCHKI9TyeWyClteJjSMbTI4/MEpHQ512YK+Dnjr34TViGQl7Ap4yGr13jmsQ9myYKCexoWSkjoY6f2qoG1AZC5yaBQzUlwTq7flBFpvKTgmB3iY1V8KMUNAzKwklwu97v/d7xYPk33zgGc5HDZ3wJGgYzcGHn/uzy09I0wNkT4ChiwQzQUN4EDQEJQc4KVMQ6pRWCBx6mYQ9wc1yESI8NsHDhojeOaHP4xCGjJYhKFk+TqxhlIme5s5eBmUHNjTUlVkn6tx6diYhz4gSetPcj8fXU+U5QEk9nuUngOlBc+IVgZ3Pf0LPn145ey+UXujdsjGjl09oMhKGvQvaiOdgr4Z1YBnoBRPqtAftr2HKMQTKPQyD5LlYdg56sqfEhpSNBWUtXg/KO1oeYcPHGH72bGgPNny8XrS1nrDEng/LSIBzEJgNEq+jTsugc9Yztp5RPfypJ2fpdAl6NqoZKD01pJmtDdSXBOpadtHxxVo60LlWCDqCkw8zPT2CQc8qJFAoGxBSesq4zhNCmHEQjx4vP6O3TrgwHp0QosfJvwlHet88FgFBD5FwIOTpjROaBDZlCEoSPBY9U3rlLA8Bx+/15B2CnNsSTgQR9WY2MtTv2SgQYho2hBu/Y0QJf/JFr5Zvlotl4HEJOD3Nn/vqxoPlpjRCmNNLZ4Ogp8nrc+jZo2w4GP7HBkpHx9Ajp7dNzZ2Q5rlYRnrkvB56QJTHYr10tBGlKjYA/J5AJnzZYLKOLAPrw/OxHuxB8bw8HhsLHoP1oszCxpjnZX1oT/ZSdIoEDmbzvOw98Hi8bmxQuS8bMR6X11Rn5dT11kA3gDIWOHULGKgvGdS1t84DLpacSXvvfKAJQp1UitvSM+WbcMhnMWRjQElFZx/k93zTy+d+9D61BssGg1DgZxqG3IZA5Pn0eXSOdpaHwOax9NR6Hovb88Xf+eZ2BCDLwt7BYot5sHzcJl8G7svjc3+dnExLCnrMgcfkPvxbr1DEn3mo6wFTHotlYz14bB3XzWOwftr71V6+TizGMueTkGl76HPqpGM606Xen+fjm/aiTXWWR+7H8/GnngWsex56H9qPElI+CyPPy++1JMfz6P31vXG8sMZTf7DNHmvXAgbqSwZ1GaJIU7mX2j3N9husPab9RF3s/DH1cfTEnePtt9g+unzt+7Rv257moL1ex3tYdJ3yYXjHO3b+HMf7/VQeysXOo/fX9W2/Nu3fL3a+49lxseuZt+vx7gP9ub5H8sdZzO6nYgOzrbGAsoCB+pJC3dxWxgLGAsYCZ9cCBuoG6mf3DjRnNxYwFlhSCxioG6gv6Q1lDmYsYCxwdi1goG6gfnbvQHN2YwFjgSW1gIG6gfqS3lDmYMYCxgJn1wIG6gbqZ/cONGc3FjAWWFILGKgvGdTz4WpyUMuSS3WiULX2cD59bdv3bT/G8c6l99cx6IzVZiy0XrA5f+8sFur3VPdW+3nby9V+TIZesgw6Pp1x23obHfbJ73Xsto6XX8x+PAaPp9Mx6Bmt7TZ+qtDAp7pOi10TXVZdrvZz6Hrq2HnWiXHvOr79eHZfLCT1eOVrD2M90T1xMrNQn8pOT3UvmO+fvgVOFEZ8vOtysuG1JqRRXRcrBSykIIVTy0HkAL5dxdBWC9fevhFW2v6kLXI9NWz0RdGLQei/FwOD/k7DKr8gQj7Wvf0YOjeInqjU/hDze86o5ExUzgrlTEkeI//OL/x8okYoX27uTwDryVV60o02R37iFCfbcNYqZ8UScJw1ydmsejo89+HEJ5aRE5e4LycCsaz5yT46rQAn/HB73Uhw8g5nfurJSvrcemITy5ovj66jToms66WvUzuw9axX3SBp2+nP9Wxhfs6y6fVhaVfOkGW9OIuWs2/zqYZ5Pp0KIG/bfPl1HfLXhfXWjWL+Ouh5Afqe0PssVi/9nb5X8w3s00eU2fNULKCdE9q+PSXE8ZxAPQFP34snPp/x1JcM6pr72uvUa2nyAdIA5e/5dKrch8DjPnqmpv6MP/mZvgn0Q59ftFmfi5XIg57bMqEWV+lhoitOm9dQ0mXQ+2pQ6IZFn0fPYm1fTi3vSWgPlecnXPOw0Im1CCPWg5AnsJl2mMckoPW0es4Q1bNCmRedU/25j77JeSxmuGR+F87U1AuNcJo+3zq1gJ4Bm28EdRn5YLSvLpSvy/EmKdHe/C7f4Oq0Dzo9ACFOezPnDKf9M3slM0syVTDTGegZrflG+Hheur6P8nbXD3W+J8bfWQ7WWX+vvXk9+5U21eve5o+b7+0Yj/1UkLw02+Z9RP385zOY8nrqGef6+uWvmYH6U1+HJfHUNYA0DHlh2oGgwZl/oPMw0Xm0894np5bzgmsI82+dUkBPhdc3hAY7P2fmRuZD0Qsj5yWOfLKsfJm098m66Cn57VBneQkLfq49UN3w6P3peTPzIUGsE14RcvRmmZGQ3jo9eCYDY5pd5kEh5Jmwi7lUmMWSicB4HCYcY04Z1pv5aZhXhZ/rJfToCbM3wjwrLAe9fN3I6an/ug78yc90IjXWhekFuF8ejvqh0w2e9oZpV9pF53vX5+HnellCnoP5dNigMjcPGyiej6/88XQ++XZ468aD10X3Klge3SC1N1gsP1/cT19X5rLRaSH0vdEO9fx9136Nn/qRMVs8XQvkZTTtaOWP1S6z5Z3Ek5HVjPyirLkkUNdgW6yLpJev44POhFAEEFPgctFpAoJAY/IrrhbEjIxMNMWEWsy9zYtKD5XeoE6Cxa49YcGEUPRSeU4mimKiMMouhCaPw6RhhCqhR8Dz3Hzg+SJwCERmD+S5eWwmAmO5mN1QDGNZx4wNaKBwW0KV5WXCMJ20i/sSxiwLV2MijJljnedh4i56s0xlS++V9SHUWTYuBEL4MG0t7cFMjPTqmfeGybMo3dAjJ9B5bgKekGMd6RUTZjwGz6OXp9OLU7DRoD0IbW7DfQld2oFv2p4eNpOp8Vi0HyHH3g3LqXsMTAbG/VhnXR6WncdlA8X6MdEYexK0CbdlKmKd3TH/QLIMtDm34zViMjPuy0ZLN6hMVMay8NqzXkzURpvQTryOXKWKchaThNEmtA0bRDYgvKa8Prwe2m5ajslLPtoRMVB/uog+9f30M9TeA9fOoL4m+tnLN8bcJt87W/zsRn5ZMqhrr03DUF88trz04vjQEyIEOmHEzwkOPnj0YJnFjw8vLxohwQeNqyDxxe/093zwdVZBZjWkbsu/KWXwPAQEj0OoEIpcxIHnJGT5PSHHYxCcTF1L2BMIBI0GDFPuEq6L3WAsH71V1ocZCQlx1pWQ1l62Bgu9dYKNUCXE+GZ6WzYaOtshGyXWgcdkRkqCko0VYamhRxizoSPo+ObxeV56+IQt32wgWXd+z+PQBvybkKd9CW32WlhfLqxBWLMRY73Z+LC+zJbJz3k8noM2Yp24OhIzQbKeBCnryuvHjI48L+vCBknXjXZlA047MrWv7nnpBol2ePDBB6VxIKTZCLIxIIC5PcvI/Xk+1pMND68lFxphI8HyMI0wryXtxUaVDRJBQNvSptyeDRAbA2YA1VKeBoGGO89hoH7qcH66e+R78rpnzevLZ5jXhA4K70k9hqJ5wvuD97TuIR///AbqSwr1vFamu1G8iIQfPSuCgw8YH2KCgIDgQ6klBu2JEWZct5RLzfFhpHRBqBN+BAnPw1V5eCw2DIQEvWDquZQueOGZY5ww4+pFhBUXauaDzlSzBBxvEB6TvQjCjT95HgKL3rVefSiv02rvgvIHGw3ejExNSwByAQvWj+Bkil16kISnzqrIc7N+1Jm5Hf+mTbgdoc/z8zM2VOyF8CZnw0Eb/X/23gTOruK68z/3vq1b3doRSOy7MGCMjdkMBsdbvOHEydhxYieO4zjLJHHW+U/yyfKZJLMkmZnPZCaZZOzEdhJDFjubzeJ4xTbGgIVYJIRASAIBAgm0S7295d7/53vqnvfq3X6v+/XyGtGqp0/rdd9bt5ZTdX/n1K9OncKSRia0h8ENUFM2sw0+yM/ONkVutOuGG27QdtIerH3yITY6sxnS2DmlKBNObqKfyA8Q5xkUEvUA2PkbqxmwJE+zsgF05MmCMLHUOS4PBQqok546WLx2e4Hpe2YotI9nkTOKCKAmLflDnaFY6F/6hvZRZ+SG/DAKOAELJcBB3MiD++SDrHgOYLjllltU8dEntkBtFqBvsfc2rZ8tjIXnOtErZjAx/piNoYAZZ/ztW+m8c/QdY42xiXHjr+9Mlm4A9XkFdeso38I1Sx1Lj87DSoZW4eWns+zYOYCflxdw49v4Z6xNO7T4yiuvVGDnw8EVvLD8zX2ABKsYkAdkAXkoCECePAA2PqQBSKgXioVy+Ga6zqACTDhYwigYn+OzBTmsCCgg2sOsAqACUABO6B4AFvAEGFE08NzMEvhwXJ1RNCgCAJHnACGADSsdYAL0GOgAHXKi/kbNUBbtZRGYOlEP7iFTDrZAEdqhHNQTbp90LMIiZ+gJrH8Am+scMIIiRDaAqFFD1ItDSGwmQjnICuXDrAb5owiQ3ac+9Sk9TAPZGg1m9AtlWEhj5MXRfcgFK9ooI/LDoqfvAHUUI0qBb8qjzigrlDSy4iQtZMmY4G9kTdts8Zh8AHVkTR0tjr5Zfv53gN2Fk0DeS4l+4h3gHTaMMGuce4x93gcOegE3bHbXu6UeiyQR/n0iUaI/CY4VEkmcFvSyNET27RqTW/7sHvm7T9wjQ/FJUkyLUkhjiSJ+IilInBXJE+66jqGk4L71b+fG3WlsLbThMG+cel7QRsEA1AAWFh6AgWUFuMOj8rIBXkzHLV46IIGlB/2ChqazoQgAaCx7OhsgMg6cqTrgDJBxH6sTaxBQB/h4sQF5gI+/0fZY21jm5AvVwUACtABfjsTjmTz/ah2DlYwVDU3AION52oYlSx3Ii+P4AP+bbrpJy2PQcg3LEhqB+kIZMWD5oU1f/epXVakBdsiOuthhGAAl7TWrnb9pC9NV49VRAIA69eAedUNBAurkj+cNwAcAAn5G83DMIG2wM0RRBMx06BssYztG0A6QRnZcw6oGMOlP8uBUKJ5B7sxkoF+YySAPWxil/znCj3bwrFld5gWB0qC+KAfWVQz0kZWtSZCWk6tQUoA6eTNGDNRRWFwD1E05MFvLv1iBelk4MLeS/MVRA3jGAMYU7yPvFWOL/qPvGKfMvAC6EllRAAAgAElEQVR030NmKlB394BuQoFHIkkGuIp0aXYncjhPkkYk+3ZNZKD+nQzUCz2AeiSR5n0cg3rq/NQbmZ/6qjMjueYtPfqpG/Xi+xib4OkkLDHz3AAMARuAHcuak4WwTLEK0cy8nBxDx6IioICVBshDTWAdApZMvwE5LHUDKl5wpvS8vF//+tcVWABRXmiOozNQ55v6cAA1QAi4Yd0yoKgLtA8Dyt8sZG1hsNEe6BzaCqUBJYJ1CdgDgoAceQN6WJbcp/4ctIwiA/j5G0WGtQzNYW6YXEcOPIMipI3IBuWDLFByyIM2UzZWKqCObGkL9YCe4B6WO5YxbSd/rpE/Fi8vC3UBzDlDFAUACDOroX2sQQCsKFJmCcwqOM+V/qLvAFkAl/uAPEqW81OZ4QDq0EUoCSxy86xBdjxL3xoVRTtpgx3Hh9xRbsievjNO3Rae4e2RM8ci0h4DdeqDYqUvWadhZgCoM56w+GlX3gPGLKqFtqIWHkqPzxJ9N2R+553EQMPoYPaLcuZ9Zqz4h9NMuwYCnqtVjtcVfxQlTbGo2Y7jGdxpLQP1ouzbVZe//fN75eaP3y1D0SopC5Z6JHFmqWOru3HifqIIKz8CMT3L3Kz5LFWzMEV9z46fn/6AaOr2QVkVqE6SSiONJS0WpVo4KqvOSOWqN/cI6mRunHP+JQHEecl5QQEm6AMsTUCHToNb5mUH4MiDe1henIEJiANCgBgWLLwa4ACHS14Ak/G0dDxgBSCQJ+AEqPJCAwpoel5wLGeAz6x9pnYAMc8AkB/72McU0Hz3Ol9ZkQarmw8WMRYswEf5lMc3wMS0EqDEcgbAsUCx3BmsADazCSwQgBJgNCsboKRsgNxoIICc31GEyIbZDJYqZdN+FAPyxdoBxLFuAFQsIACPeywa0xc8j5yQNy8IZ7VSZ1vYpC+QF/2DtUx+WMkAKkrFjg9EiVAHQPbmm2/W+5SJ4uDlBJRJg2JB3igeqCjqQ/uRO7LBOueFpm0oaWRJf2PN0//UB2WLrBgvWPsslFIefzMezOff6Cv6E1CnTPocxW5Umm0eo/+mBYj5ef9CLj1IwICd8cX4ZqwxJsyd1TyYpuwzcE6xLhGJayLCT1FSKUkKuAHFGOyKxeNux2W9JPt3JfK3/++78pmPf0eWRCtlIC0o5RIrgGcg3gR1rvp0TAdL3U0KJs0OzZDw1x97EM2Mk6C+CugcdrUnBYlKgPoRWXW6yDVvPq23HaVWSd9lyX4HXAE1Xm4sMTteDnDjReUFBgTM/xzLFKCCMwXIAHnygLYANPjAqWIJAwKUg1XOYAA0+CE9Ly/WPWWiGPgAZIA6lpwtrmFxMqCoFyD43ve+V9PaJhubMprvs5UHuBvHB4BjFQIyDETAE4uDaygZ2kT7sF6xTimL+zzHde4D7IAxygqgpM6AHhQMv1sZtg2fGQd5A9iAurUbZUH7aBdpAUFoEUAQAIUKIk/kz4C99dZb9dtcKSkH4EdOgD+LudSVdnMNyxqe2859BUBRcswwUKAANu1nUZv+5XcUFGUayKOkkC958k396Eueh3ZivFAP5GvUDLLlPvWBl0f5MSbIA6MBYwHZIQvaTxrqS7vsjFX6NYD6jDFiwR6gr+2IRzuK0Qwqo0NnDupAHBsZC27jfCoSQ7NH7HFIJK2XZd+Tqfztx++Tz3zi22qpD6QlKSqnnoG6gji/Z1ROZqHDrxtQt3Hquk1f72T3W1MEdMN8gHoUt2YG+Q7SEAHsok9SSaOiJIWCTMSHZfXpIte+9czeQN12fLUa2CoGEMBSY4oNGDAdZ0rFC07jjHPHWgPwzJ0QQAC0ACLyAODNrQkA54U3mgQQ5KUmL/OtBuTM0kVJMBiwwI1DJy18Ps8aOAKuWAgAEXX2d63SIkAC4AAYAC/ypU62tR8QBqDIm/aiJABrQAUqxQ8TwLMArrl4cp/60n6egQ7iecCRDxYrdSd/5M09/sYKJV+1T5JElRuAyAtCPVCa1BkFZ66bpLd1A9rK4CUfyrbFavJGXsiNsgBm+ov2ko42Y82jOJAFIE//YWXxw7P0D+3jh7TIB5mi4AFvXmD6kfFgwEtdbPGZb+4jF+pHncibNgLwXKfNXGNsUTfLh/rawebUtRP9Eiz1BcPrngrKL6Q2odDbMzJlRh0tdSx0zht2oO4s6LQF6rWyvPhUKjd//Dtyy198S4bjNTKQVKSIhWugnlnpaQqNgkbIQL5JqmTUjK3JNkHf1bZF3bhZQjuo63whUwBtnM2U1zuPXZcPoJ4mDWWH4mJFGjHzkkOy+vRIrn3LDEDdNGneJckKpyH+zk7bzZmPw2JWMs8BniYAn9bhd/Lix3Zy+rsU7TkbJPldpPY8ZZhXi03Pme5BIQCM/syD/AENAAhwsgVAa7e/+43nbCes/ztp7UBmfrfyAUbSm38udTHXQoASwLdFWcsPBWMf8rFDvZm1AKi0A8WC1QtNgrIyS9XkY32SHyB+u60/fR9ju09+tvPTZGxyMLn4ljH3qKcdMm4yID+bgZCPycX6xmTNt/3OM6S1evkzKlNwXLNnfDAwIySAek9Yu6CJjMa1cW7jyPqyN1DHHDf6BVCHfslAXUEW/5cx+AlJ6xV58elUbvnEXXLLX9wpQ9EpUmkskTgpNTl1Z6U7K99Z5y1vFx+wMwhX6sP4d89ebxnzmo8Buf+7gTrflNEN7NV/p6soUrx80glJ44YUShWppqlUo8Ny8plFufZNZ/VmqVvu/stioG0vqE21SWs8mW/h2wtm4G0vq7+g4newr0XzL6mv8U1T+kBk/JzPlfO77VgDYEyp+GVaOfk6+sBlgGJprCyLGmlKy+pDOugCAzPSU465TmKVYmGjUCjHNh9BPxnvb+6AWNTmH2/3sJZZwPUVmw6jLPKj74FiSscUqe+hYO3imnki+JYU9fK35ZviNPlZWj98gYG6jRU/P6sj9fb7jrSm0JmV5Te0mPwsb8vHNwo6GQoLilyhsI4S8PHAQNwUu/93dzQzTt1AncVSwNwtlhpkxlFDJB11xHdjQPY905CbP3GnfOYTX5El6SlSagxJISm3FkqzBVNF5TQSLPbWx2iZ5uiVQuby2EbJOCDSRJPpFx/g8yDvl+WDfPfrCurRmCQotrgg1UZdksKYrDtnQK7+nrN7B3WzlAxsfXDzX2yz7PxNBHkr0J71FYIJg2sGIH7n+iBpL7Cv9Q3cDWRJY/lY3RlUFpzLBwGetVmB5enXrdPAI28DFgMav2xfEZr1yTVLY+1lxgBVQflWN6gTqIdOsxxoLJ6BRsHKh67Byje5+VawycTA27fK/T6zcsya9gOO5ZWC30aTi688rcy88jN55e/nA5X5cvMVe37W4Y8BP8/87wFfjx8J+NjQaTblK/eOtW7SL4B6g5UxtXgV1LFsM1SPpCFRNKYaIG2U5cVnJuSWT35V/v6vvyZDhTVSTivqx16IMwqGGX3m+WLArt8ZrjqrufU3XjOOBmn/5MdkvyTvJhR1kQIunLHUkkTick3WnFaRy67ucaG0E4D71lAna9ef+vqNtY7L0xsmAANIX+P5NIoPRgbcfBv4mAVpAbny4G0A7isnAye/HCvfpol+ewEoo1T8YFRW9/xU0q+nb2maXP247DbYydenmYyGsgh3/oAxC9qUmD1nssrL39qS7yMr22Ym1g7f8vDlmbfSeWn9aXV+5mN1zveJr3T8WZZv6ftt8MHeBwe/j4K13i9ImX2+Zlx1Urz5sdq1FKM2cGtkZ5GCeqHpfuhs3RaoS6MkB16oyec/e5fc8a/fkRVDqySGtotwCyxIFOPaCEDHyqW7seWDfDtnrmAeG6D7G5Kao9umE7MX1HRPpo4iiuKSpHEJS1EK5VSGV4qcfv7wzCx13/Lzy+0EnD7Q57lNA3abqueBIj9N819iA+VOYNupzDwgGbeer3MnKyFPN1n7jVfOTxmt/G78tJVtz5viySuwTrQIafJg7afLt8va7SuYbtaR36/52VNeoef73ZevzXIMjP12+c/5sxXrz/wMwE+fp2DUUMnWS6yMvLI3AMmPvenel3C/vxLwaVt/HHTCkI41aQN1gB1Qx0rPqA8FdWbRE871MSnJ4f01ufPLG+Xb33hQhpcsEYkmJI6hGd3uUeev7gBdAR6wN8s9u+aZ7ZreqJZuhsqcpZhROZ3y0U1RaVEiqUgUlyUulqRQFikvaciKkwq9g/qcK9khg2mnW1MUOpdn+9GWmeT5cq77TNo5X2mDvOZLkosgnyaoGxfjFhTdOUDuk7LxKKo5L5G0IAdfHJV773pYNnz3ESkUE4mKhPzOQB2rOw/qTVdHZ8mrUZnRL1pKAUD1Pn3YfDRVT0VpLHFakigtsYIpUaEkxXIk5QGRJcvilxbUF8EQC00IEggSWEgJtIE6BRuou0oA5EkK/VLPQD2Sg/uOyX33PCQPbNwshVIqUbEqUSGVQtF3a8TzquWxZh4xPkvQBPbY7WC1T8+zjHmSE+u/bJ1iCxW/FeKSxKVYSuVYBpcA9v78eZ4KDdkECQQJBAn0RwLm4+LZyjn371RB3YX2wpPl4IEj8t37HpCHH35EiuWSxEWRqODozBZoO3dax7E7ekX/KX+euTzqpiZHz3QDdeennvNWNFf1phbocj/v0m5N9JusG58SiaO6FKKG1o21gTguSLFUkPJAAPX+jLuQa5BAkEAfJNB0f2la6JNCpCioJhmoO4eYQ4cOy8b7H5DNm7dIqVwSKeJYAYizZ8Lx6Kyc4qrITk4Der3etkHJUelRXJSU656nom+ta9wWT9G0OTRqEC6nEqZzdMw7ONrfsYJ6Qwq6IMyiLzSRU0oa0ypY6n0YeyHLIIEggT5IwFnf7pNZy76Vnt0BVAE7Pvx/+PBBDYXx6FYH6grkhUK2sTEL7KXUi7PcAXNAWzcZNS31lhcMlroDZi9YgLew2XRSaLPnW+LQ+mUByNrdIh1sd79vFJP5/JBPqoDuQgZjtQdQ78PAC1kGCQQJ9EcCOVDPbde3MqE/bH8QntyHDx+SBx/eKI899qiUS2UpRAB60dEvGY8O5RKrN0yLblHqJXYA7Kx3SnDWvPvDINnuuRoo/dI01TuFCbAdpc57p5W22/W8NDPP+YyKoZ7mX88sIljq/Rl9IdcggSCBeZeA+aaTcbHpxpgvRkHdcE444/igPLhpozz++FapFJdIMSrp4mKxABftFkfdj3nCOJB2/Hn2rd4vxq0Xsr1ILVDXOmReMM5Sz5MrPtBr4lnFhGm2VcuiDKgmlxXrB3EUQH3eh13IMEggSKBfEjBQB8VaG47ypSVE5rWAixmoP7TpAXn88cdkoDQkRakoTVEsAuoG6C1QB9wdRpuFbpZ4K1Qv+38iAoC1+za2sNoj1Ttz50aztPDdpYP6IQojSsRx8z63nukOL/fW7CVNUFAB1Ps1+kK+QQJBAvMugQ4Lpbky1EpvEhpw63Dqh2XTpof1mMgS9AtWelxsujQ2d5YawKt5ngd1aBhHu0DVOFA3BqbFrfsA7uGyUxJZXZvXDbdb+O3q7l1vhT7wwN13/Emz9YOUKK4uwF2gX+Z94IUMgwSCBF4qCdhGNT9MhAP1TRmou/Ab9mO7n9st9lYc9XZr3aFpfpfyQvup+7L1Q3k0d5UH75eXaviFcoMEggTmWwIB1HG1DJuP5ntchfyCBIIEXiIJBFAPoP4SDb1QbJBAkEA/JBBAPYB6P8ZVyDNIIEjgJZJAAPUA6i/R0AvFBgkECfRDAgHUA6j3Y1yFPIMEggReIgkEUM9APayVvkQjMBQbJBAkMK8S8E/IMoDHpXHz5s164Lwdio5Lowa/yg6I910a826M9jcV9X+3igeXxnntwpBZkECQQJBASwLmq+3LxEB9+/btbaBuoXfzPurdQN3AOw/iAdTDCAwSCBIIEuiDBOwIwzz4+puPOOh8us1HiwLUA/3ShxEWsgwSCBJYcAkY5eJbz512lEK9BEt9wbsnFBgkECQQJDAzCfgLpWasHjlyRB555JFJnPqiBvWJCU7eDp8ggSCBIIGXvwSw0uHWDdSPHj0qW7dulZ07d54YnHqSJCmNDp8ggSCBIIHFIAEWPn1+/dixY/Loo4/Kk08+KZVKpXns26K11AH18fHxxdCXoQ1BAkECJ5AEOh1DQfN9t0Z+x2jdsmWL7NixQ1gotbM8Fy2oh4BeJ9BbEJoaJPAyl4AdSUoQXDsMzm+SUi6cMUqccYfwGk8dP/XtOT/1AOreSXr5caHC63AA7Mt8/ITqBwkECRxPEogczJiF3gnUrbocGKEWe8Rxdi6eOpuP1KUxjqVoZ5TOYPPRovVT74bd2eHdx9MQCHUJEggSWEwS8EC9U7P8k+UCqM+w4zsBe9tRfTPMLyQPEggSCBLoRQK9EgLNnaXN4+yCpd5Fvl3t9F76I6QJEggSCBKYkwQcAk0F7c687Azq26VccsfZFbMj7WYS+2WR0i/+wa9+3yDIYKvPabSGh4MEggSmlUAL1PPA3o4/LfrFDp7eLE9s2y7lcslx6kV3TmkA9R405LS9EhIECQQJBAnMWgJpDoV8cG85OTpQj9XWdAulAdTbRd4LkRUM9VkP0/BgkECQwGwlgA+MUTIG6m5HqQDqErdAXb1fgqXeklcvMg/A3ouUQpoggSCB2UrANzCbeGO0cMuL3YE6CQD1I85SP1FBHVmwEBHHzn9Iffm5xH++k2i+UwKgz3aYhueCBIIEepFAVxodALcMHEhBv7QsdUDdBfQql4snBqdukc0UzjPBqZLLQFyv5akrm/FwS9dJe+Foeum5kCZIIEggSGCyBCKQ2zcsoczbsCejYiK8X9zO0palbqBu9Eu8uBdKG0niLPNMaL7Sw3Jv1BJJEVKSgX5zthM5GccIMIB6eBGDBIIE+iiBFFiP1SjXNdCCSLEUmUGeBQ5wYD6Jftn8iGx74gmp4NKo3i+LHNTrSUOD3JgmNFBPGyK1WirVsao06gA7KtB1WuTMc/09kVTSiBsesNuaRWtB2m3vzV+H4mE3rz97ymYJbdf9+z4d5NM+HfJu0kZ+nl6d2oagX5cOadrq7z1o17W+HdqtSS3vFu3XPvq7Xc8/m7W3rXpe3t1kNpUs2+rdoR/yMuz4d/5dzio4ncza8rIt4N36sVPdbCz45fuyzPdjD+PP5DGtLKfLu9uYnm6M2Cw4R2lOJ8t8P3YbIx29j6cZlx3HiNe+jjLz2tl1/GXGd/O9mWr8KaA7N8QohiIWqQwWpFiJJS5mQstgyYE61zJOffNm2fbEdqmUOByDMAGL3KWxkSYS60qxe6sU/1KRejWV8fG61MZr0mikEqWxOOx2CgCt6UA9kSTNQN0AOgOaNtrGKJ0M/FQvdHmB6WS9bwM8e3ltQtB81nuZNbt83rYc4F23vPXbnvef88v07msVurSrLU/Lq0PebWXm7muxJpNuz3aQWb7svMw7yjLLv1eZWT91k5mNmTZsz/pvksy6XTeAzsZEx36aTmamWI9jWU43/mYkS++9mDT2O7xvMx5/Hd6ftrHQ4b2ayfgzBZMfI/lxiRGZ6k+GUwBRlCioLxkqSXEgs9iboN5wQBa1vF8eB9TLJSlq7JdFDuptxInyKQ7Ux0cbMj6KlU7Es1jiJM4s9NhpS2fba1oH6j5StAC2qXy7Aav3Ihqw+QO/DSgM53PPdCsj/+wkazqXwBRJJzapzRrxJyW5dnWqr9+uSXWaautWfobRpf1zqVtTJl0q3u1+tzL9vjBF2K0f8nnn85yu7G6y7ijvnCxnK7PZjJH8+JxyjGjlJ6eYThbdZDld2dP1/1SynO69m88xAgolSaRUOexAvTEhpXIkQ8NlqQzGEpfUMFcwT5ITHtRz8c4A6YbI2EhdxkbHRRoFidKixPQQVrr2lJs3qdHFr/q72xig1zpQAnmaIj9l63Q/y17HTnP6mbfIvXXabqDQ8XpzROYsfN8i7/J7m/XrpWlTRl1AxF4SAzz/pWqztrrJMi/b3N/WrEkWfIe2dFSi04BfV1nmKBcf/Pzpd3OmP4Mxom3ypuqTZGbKrstYaI6jbrLzxlcvfeD3na+4ZjT+8vREjv7Lyy8/Xux+p+sdZ475WUxu3ObHwlTtMtqsU3unG3/5fmyrf5d3kvYkuvApSruABrV6XaSQyOBQUQaHClIoB1BXY5t46qkS5U5gansnaDqR0ZGGjB0blzgtSCRFiZJs+gO3bijrQhYrL9FcnbaO8b7TNtOXgt1NHxz1Uo5HtILckqxZMJYokla+La5Gp2rUZ7rvTA0102VKSaXAsz4SNE2nbH6Xb2MbJ+mxmV47W21zU0dXxxgHUqcofcoJwSjX5bc5doq0+fKzlmFl5fpE687KNvn6ixaUm7/mm4V+B/QgQ5Nx9qZaf5hMXR/7/dQSXL5/WmAwuf8c4Lh6+s/51/3n7XpbPbw69lp2tzrl2+XWmFwdpx13PYxLNxba25tvu/9OzaTM6WSZ77uZtmsmMuvUxk7tpE68DXi1FIqRFAoitXpDkqghA0OxgnqxHE2y1NlVeijbUbptm6NfTogwAak0MjjPXnbGklrqiYyNjIskgAnWugMVQCgbwRnwJQrshdiBYVJPNUh9sRCLFEQaCWqDCZOztuHvC2kk9VoqOM4UC5GgJ6iFo8yw+E3J8HcisTQkZjqgL0+swKTTsag1O8jIoN5fKpti2MuodbTZCGCbKRkFV2pHzQqZOdACJ01n4K0voim4FtC2Y29dJK7iTaszoDQtt2TrmqeAHEX1bEWfLIvuB32AGGK2QQPQALfbOdc0ZRX4QP+qk1WDVaTMTIsbDtSTQmtKZcoja3vLk2kqgLLZTQbAbbJsB/IW4DSHzSRwdmCYy9MDPxOwswxboN8CnFbenQBWlWFG1HYG3s5lO4Bpz7sz2LrBMlNQ79iuTJadLXUrw1tzyim6dllOblc7qLfu+7Jsld1JWWXvRRfl1AL19rJNlvZedVL8Lduvg2K3fTNxJHGcCmuBDanJAJb6cAbqHqfuDPvJO0pPiJOPUgE8soXPzGIEwyYA9WMTarVHaSEDD4SdoR0ArqCqOpR1aYl1MdUph7jg0tbTREGoAWimqISClKKCpDUHGkynSNcgpziVNCYdF1mQJX0L1J0FXVBgAoLRNxSnWKhWrJsFtCxYs2zzAGX7qcxKBYjrTmFpWwseqMPPISPaCnhm9w2zPVSPI1VNmbyyVQfz+DQjP6qJxGOwgiJSEkkHJAJ49SUxjG5IRDo73yVlpuRA3WnGVCR29UoBe62TU2vOmuf+mAOaetm1CbkWalkbISAtsauzKgbS6azLrETf+mzJst0ay8vSuIxMMXtWp3uu/Xrr5Z5qlmAlWj+2g22LhG7NAnUMNCdNcysz396m7Fq6PVM2voz8MvPjcAay7CCzVrHz0S5fZp6FMk0/OZZu8nuVl43r31b/NeuufdN5jNgz9i6btx0jXO2VOFUrvZFWZWC4JIPDRXVvdIujjlNvB/X20LuFIl4wizigVzdQr44kMgqo65pDHtSdPaqdWgD1G5LUEgX1UlSSQlSQRsMBtRRSaWgnANbOHC+mBSnSB/jBY9kDUoVEkqjugF0tU9QES7RY9AnZZHSFKxeFksSJAjudD+dvVpr3rvX4K5k3HKJmCkyrqoMkEYkBWECfD7Jorco4pYaQGioRR0M569nNbvjO4Ezzq0sK4GJJ6/0BkSQDXmdcKAALoK4oz+yAtqHBDH+zOsV1SVKedda4sjZa8USiwqibedTJvyBpAQ6SGUJBZwfuDXB954O6ey9sXtWj+EKyIIE+S0B91DNaNIrAlIY0kgkZHC63QD0jEfKgvpmTj7a5k4/iQiwB1KcFdfzcE0kbqaS1SApRUYpRUUEdKzoupVJNAexUrXc+yURDSnGMT40kJIwbEsVwZA6kAXV+XEfG4L0zTjNLXIE/SqQBqGXctHX67MaWT4q7qUOT7VGkhDKZyIC2IJJU1Mp2NFFdomhCJK5nNElmMahGQAEUJW4AzNkHwNa8OPAbaxJrHWDmO5K4hcxN5aDK0JlGmXZAGCga5j8ZNZOBuksDgI+6hxqDIlj5pC+MO1DX+mdaVYE9475UkQZQn90YCk/1UwIB1CdLV5mPOFYGxGLIZwulnemXXi11iBWAqAilAvY1oE0y/p3ZfFGkmjakrsDouOCkVpViFEkxBrgBNrhemPdYksj9pMrjF5XKKDSgdjIDFqWgBnBDEgV1Z2GzoOvM3Nl8MtcKm79lBG8TTCkDEAaMdX5XcUCs/H5NonjUAX8y4IAYgNf5RKYAklLmNZSRtErBjCvl47hwQB1undV9b8aQTYEdLeSeTdWy5uNQ3q1b2+zA2oGsqRO4v8Qpl6gqUQQlk4F6MxaELZRTBv3BJ1jqsxlF4Zn+SSCA+gKBuuPioV2wCFkAdVQvu1HVEIz1siTFVBqFhvAPuqcY1yWCIlCOnaSOpmhIwYG6YZiCYlEKDfzkM948o0Xg3pO4pta9o13mCuqmEDLPkybB7QMxoA6P6OgSrT2gDliCyI0hh73xuKTQLEZ1GNg3rfW6SDQhEUDLE6okKm5BmPyyBVSXnAVRJx8FdPJWuVCHWKkrrjseEmVIDZn5AODkPSiC91I07uqp9BKWOu31PV8y6slomf69nyHnIIEZSyCA+kKBehpJsR7JyCGR/XuIKwCFXpCERVBdU0xkIqnKkhWRrF5XlvJQJPWkLpUyG5bg4Sd04bQg0C0O0Bvoh0JDLXEFHgX1Qhuoq2EKr0Y6tdRpsOOeZ/cxS5enHT/urF+3gGngqtczuqcVEwD6AuoFV5+yzjiiwrhaxqoX0pKkAKvOJMzIBpyxnKsuGwX9khRYO4CK0pX+UublA6g765lZAXXgnoI6Zroud/AMFJctLTMjYiaAf6oDcCgiynM8PrMM6uPTTsbfm6U+O0mGp4IE+iGBAOoLBer1SKoHI3l847g8eO8+GT9al2M1L/AAACAASURBVGJa1CBgGnQHPj05KmvPWiJXX3+qnHnBgGJJCUyCB6rVpVSENy+olw1QCv2clBNJ8NSIE4mSgsSNksSJC0xgEAvQ6eKr/jTRcnbjSYHOVs+xouGrAbyCRElJpxs6+8gW7GNdtbUFRq2IpFpxHkklKtYlLYxr/ZTuSMsOiJu+Ys5lUT1cWEhtlEXqTnEVoKgyt051P1RLHNtbuS3dzZs2SpLU3HQmJqhRkXJQIpE0pCiJesLQDhZv3QyEvwF5t3jLwqpPVbVIl6yVs5NjeCpIoE8SCKC+QKCeViPZu03k6587IPd8bZeMHqlKMSmpuyJgxNbduozIKWcslde/6Ty59IrlsnRlJOVyKgR+BATZSAA4NRz+STQoMrhGJF5SkwZUhLpKViRO4Ngd4Dk2Ge7dMddNL5XZDij1VolwGlFruFCEJ6+r508hHZDxYwU5fABOP5ah4UiGl5MOYKbikSS1SI4dEqkzU6lEsnR1KnG5KjXVBGi3Yubj7twOmaVQGPw5M5XqaEnGDqfSgMXJZKKe/YVUBpdGUhlM5dk9IzK8rKQ/Y8dSeX7XmAZaO//i5VIehJtnsRaZVKSRoCTVk1+VhFI4uHlpbYqSwm/h76spElWohSK0USL1uusIO2h3tiINzwUJzKcEAqj3GdTVWgQExyN5ckMqt33qsGzdcFCialEKaVnipOhABf/0eELigZqsPnWJnHrmoKxak0ixVBNC/ipIZ+Z3AwxbUpBlp8Ry8bXDcsq5saSlcfWYKciApHUW8bA2oRqwNktNDz/btNTchTnj0eQsdeoM518q1yUuVKVWrUpRhmT3k4lsvOeQjB4SecUlq+XyKwYlLuPNI9IYh3qqybfv3CvHjlRl/aWny6WvrciS5YlU0VT4buqCKjhK7AriVjgrv6gbtmJ5flcqj248LHufHdEF5zjG7bEhg8sjOXf9sJxy6hK5665dcsqpQ/KKV54i+/c25JtfekGqYw354EfPlhUnNSRJ6tLQnXdl3TWgi7yJSAkGKUFBJbohDFDXSMpptnGLdQ9onyLuqXXdFIYSMgt/xqIMDwQJ9EECAdQXCNRlPJKnvpvK7Z88LI9tOCxSLUoxGZA4KSsFwO5R9n014I8rdYlLzjWwnozqQmIJN0fF04aMJzVJyyVZcWoq7/7QefLqNyyTwZVQCvDVAyKNkqMrorpa7fDClKEMcLYTdfagHqkLJqDLbjXd8Rkdk6RRl7i+TB598Jjc+tntsvOxUbnmmgvkB99/ppxyWqQxnY8eFHng7iPy6U/cI9XxhrzvA9fJ9W9eLitPcV46cdnNQhRj4eOzWDm0W6vdENn2cE1u+8ftcuCFPfLaK0+XJJ0QKSYyvLIgp5+7TE45bY1s3fyCDA7HcsFFJ8u+PYncefsBSeoF+dGPniwDw05BVOsNqbOAG8UK5hYBIo5YzGYBO9bZRJl12TiVKk44pUgKpVQmag1JC/D8zCbQBLP1JOrDGx2yPOElEEB9AUF913dTueNT++SxDS+KVEtSaiyROKmon3msvtxQ0g1p6CIjC5t4hSh77qgU9ctuyHhalxqIt/SA/OgvXSDXvGOlDK6akDo+4OmgUjC60IeCwO86pYyMTM8WEucG6lAVsR4YkkhVkvSYFIl0kCyVh+45JLd+7mnZsaUqa9culfd94Dy54qpBiQqRPPvUhHzlC3vlvrueVxS/6QcukSuuK8pYsl9beMbZJ0mxUpQDh0Zl38H9smSoImtOXimVspvNFFOR7Zsj+fzfb5c4Pig/+dOXS2nQNm0lElUiiUtF2fbIfg01etoZy+XF5xrytVsPSloryYc+ulqKS1IZOypy4MBROXj0mJY7UKnImactk8Eh+PxUjhwYkz3PjcjoaE0qA3VZtnJAVqxaJkMrBnTto56mUijXpIYis7AEJzyUBAEcLxIIoL6QoL4hkS9+ao88dv/zEk0A6oMSNwDcshSkojRNQ/2rbbekC/LBrq9UD0VlYZFLkdQLJTkWPSUf+v/OkmvftVIGVlclKZIOD5KSRHHVuQLiw54MqF+7WwRUe70VBGsWI9Ec+Rk8jQaKZ1SKnK6SDMnD9x2Ur3zhRXluZ0mKhURee/Wg3PSedVKqFGXLwwfk9n/aKUtKZ8iuHXvle2+6UNZfNi4PbnlYjo6k8ta3XSEnrV0qD25+RrZu2yJnnb1GrrjyFbJs2aAkdXbKRvLYg5Hc+tmnpVQakQ//9MUyvEI08H8duRVSOXhwQu64bbusWj0g17zuNBk5XJCvfeGIjI8k8pM/u0YGl0Xy0H375dFHdstEUlMlcuTImFx15XlyyaUnyfhETR7csEt27TwkS4eXysjEAUmimlz6qrPk8ivPkQYLv6WGxKWqKgBhcdj31pmFPMMjQQLzKYEA6gsI6k/dX5cvfvo5eXzDcyITRQX1QqOiLncFKQuR0hKs3ywOsp6UlDmOsEioe3nUjbAoaXFQDiY75MO/cbq87qYVUoErLrGQV5IUX8cC9MtEFk1yIPMTd7FO8v4bsxlQulaQuB1aEf6Z+NE3SvLIxv1y5x37ZOzgclm9fEBGJnbL+z+wXoaHC/Lg/Xvku3c/K1e88nL54m1b5e3vWi/rX1WTezc+LNueOCTveOd1ctElq+TWLz0ku3Y/Ka+58hx53fWvkCWDbAJKlEradG8st352t9Tqh+Qt71grA0M1VXRLVyyRk09bKocOTshf/r+n5Oxzlsg737NORo/EcudtYzJ+LJEP/dQymZioyRc++6jseW5MXvGqs2TFmrLcc/ejctJJa+SdN50tY2Oj8sVbN8vo0UhuuOG1cvjYi7J1+045/6KT5Y1vu1Ri3XRalWrjmJRKbPhqhR6YjRzDM0EC8y2BAOoLBOoslD51P5b6C/L4/XsyUB+QAvw3/uVKv7D06CKkuF2jxHZhKa8kxaisO0sBT3ysa/GgHJEn5cd/fZ1c++7lUlzVkJrGggH8Y/VIcbs6yazs/GCyzUeu02c/lKiT800vaMRJgkwmeDbWRB55YJ9849/2ykC0VC67ZIV861vPydvfeY4sXTYuDz7wnNRGy3LVq8+Umz+9Va57/QVyxesG5Pl9B+VLX9oq553/Crn6+lXyVzd/SU4+bZW86XvXy9nnLNUg/+yuHShW5NENBfmXv9stO558Uk46rSbjtYNSKBfk4leeLW9448UyUBb5f3+6T844uyxvecdyOXKgId/+0jEppgPywZ9YItse2y+3/sOTsmr5GfKaa1fKyafX5b5798uO7XvkPT94tjbrK1/cprObN77pIo2VcWS8IMMrYjnt/IJUhkXGpSb1aER3B8cyIJHGt5mt3//s+yE8GSTQSQIB1BcS1Fko/dRReWzDEZGJgpQbJSkk8Ol6XpKDBd0sZD7lTO85As8FoGIpFauYvaY1WSIT5b3ywV9bJ9d+33Ipr0mkqgfJZuCiQWCgYHAJ1IMJnS+2Bs3KwgPP6p0glCezBWidgtYaPl0jP9ZFNj/wonzltqdlsDAob7rxQrnrm8dk7TpOXTksT2zbLesvuFDOXLdMPvEnd8sb33KFXP+mpTJRH5Xbbn1a0nStXHDxEvnCHd+Ua288X2544zmybCULlPicj0shKsm2B8ryz7dsl6Pje+Wd7ztPSoM1iQslWb5ySFavHpYXnp+Qz3zyaTn1zAG56T1rpTrakK98/oCk42X58EdXywMbDspnP7lDBkprZNW6SOLBUTlw4LCMjhyRD/7YK+Wss9fKxu++KA/ev1smqg1ZefKwnH/RSrn08uWy7pxBmSikMiF1GVwG1VVXP3gNzxtAfVajKTw0/xIIoD6PoK60hwsd6G3QyVwaxyJ5CpfGTx6TrRuOSlSNpZiUdQOSC4OLBwyIjoVOnBYXphdKRs9FVTCuSywTCvpVqUh9YJ/80C+eKte+e5kMnNyQeoFFPHacZvQLlrrmjTVpPLpFaJytZZkdOEFwHDYa1Z0/Od6I0M2b7t8tX71jhwxXlsm73nq5bHp4vzz++NMyNJRKoTAmb3nz5boo/Cd/9E353ndcJde9cbkUy6lsuG9U7r57rxw+MqK7ad/1/WfIJa9eLuUlIsUKi5IHJakNyM7NS+UL/7hN4sGD8tFfulI9ZtAxHNfFDOWZJyfkczc/KyetKcrbb1on9fGafOlfXpC4MSQf+ZmT5L5vH5Iv/fNuOeuMdXLpq1dIcUkiE9VUysVEzruwLOVKKgf3T8jIEZEjx4ryyNbdsvWJ7fKaq9fID7z/1S7oZKUuVbxu1PUycOrzD0shx7lIYDKo16WRVGVQQ++WXOjdrlEaN8sT27ZlURoLUigu+jNKpw7olXIuYLfQu2OR7LofUD8kW+8/JGmV4FtlKUUDGoaXBcdyhOuhRks3EkbjKDsWHFAn3smE+nxPNCKpD+6R93/sLLn++1fKwMlVmSAcLxtqqEM8ptYtLpNRY0idXdxBPo53aT9haSZDyJ3N1yBD3bnq/qliSkQ2bXxavnz7FhkqD8uPvO/18vRTB+X22x6SifFjctll6+Ttb3+lvLg3kj//4zvljW+5Uq5/40oZWhrJjm3j8nc3b5Innzog115/mbz1nafIWecXJCqnUo+OSqF8VCQZlkfvH1RQLy89Kh/9lWulVM42IWkI9VSef3pMbv7ETlm7bqm846Z1UhtryFe/8KJUxwvysz+/TnburMsXPrtNF6Yvu3y5rFxTkAOH6jI8PCjrLxqSF14ck4cf2ivlUiLnnrdGdj09Jvfc94Scf9ES+eEffa1EeIyyk7VY1/g8Eb6asw6ONhO5h7RBAr1JQE8nmBR6F1DnkIxyDtTdwT12SMbmTYA6oXdLWejdAOpTgvozG1O545MH5NH7DyioS60k5XhQilKSWq0uBT03T/dRuqiC2ckFznPFbYhPo6oGrWdrUb3yvHzgl06X697NQmldqsRZj0t6T+IRB+qNAYnqwxqSF5dIFzLAjnfrbZD4qVyMFlczZ6kyHJzVntQjefyR3fKtr22RJaWyfOCH3yB7nxuRr3z5UTly9JBcffV5ctWVZ8qe5xL51MfvlBtuvEKuvmGVDAzGsn9PVf7+lsfl4Yd3yg+89xq57sZTnP96IZVaekxKg6PqrvnYwyX58u07pTw8Ju//yBVSqai6k0IhkUbSkL27J+TWf3haVq8ekje+ZZ1uOvr2V1+U+kRBPvDj66RRj+TOLz8tWx/ZI4ViQwYGIpmoVuWcC06Ta689XY6NiNx7z1Py3HN7ZeXK5TJRi+XIsTG55LKT5E1vPU+KA1m0+EIW9dIOA5m5KMMTQQJ9kUAL1N1eDxdPfTyLp94J1F0Q6cOHD8vmTY/kQD0+sQ/JmM5Sf/q+VO74i/2y7YH9IvWSpHXCc5WlHA24HZopEb/dKUZ2rB2Q1VD6Ba8Y9ojil10UiJhq6Vn54C+fIq9713KprEolIaRAHEtdAzGOZqBedqCOlwqLr3oCk3/CyszGlZ6kxDZLVe+229Nx9Ekjkj27D8v2rS/I0oGSXPXas+XwoUR27jggY+Mjct55J8nJa5bIkcOJ3PvtHXL2WWfIuesHlHY69GJVPvfZHbJj55PyIz92pVz66jVSHuI0qFTqSVWKlQmJ44q8sLsoWzcdlGhgQq64fq3u7kShxAQsS2ty9EAqjz08JoMDJblg/bC6Qu58fEx37l76qkHdPHTkQFV27Twqe58/LCOjIzI0XJH1F6+V089cqqD/3O5R2fX0fjl8eFSiQklWrxmWc85bIWtPHdCY9/WUdY0xp9EkeL/MbASF1P2WQAD1+eTUp6BfZDSSXfem8sW/3C/bHzokBTYd1TmqLlbapRiX9BAMXBYz/xd3apE7z0h/2CgDbQ9oVyWWWvk5+fCvrpPr37VcBla7gILcZ/c6hzwQPjZOSxLVh/TcUgJjuVP4yG+2nHrkFm7jSBpsqU8aGmiME5zYkDQxlsjEaCKVQiSl2J3qhLJi92mpHGvsFGLJ450zcawogwOpjI3V5Mnto/Kv/7xFVq0pyff/0Ctk7elLHUmPT74eIlKTQiGWtFaU6lii/uKV5SjCujRq1CcRjshj52gyUdHWlSvuHNjauMjgAMcGioyPT8jwUEkaNZHxkVTqNbb9x1IecJupNBRDKjI2nsjIKGF5I1m6vCClSixVImoWOVSDI/YIy1DWQzTYFxAWSvsNVSH/XiUQQH2hQH0skt0bU/nypw/LpnsOSFItSNRgoxDkBV7qJTv9NDs0wkVUVADOYn8nxUSSUkMmcKpjYXX4kHzgY6fLtW9dJuXlIvXWCXMSFXEDhFPnzE52meI546ITauxyDSc7i48ebEFcFk4pxy/eneakAbEKRT3NCc1SxZuyIUqPAMolLS6RRuqiOnLW6GClIM/vPiKf/6fvynfu2iXLl58sP/Xz18vZ65dJVBlTK7wYD6rLYK3R0FPRcdksxhw5V5Ma7dM9/bEqFHzZAenBgWXSQHGgxBooFM5ZhNqqSbFUkGp1QsZGqlIuDMpghc1fIhN15ynEEV6R5oVCcnFouN9A4aJYSu5UJMIFF6IBFyqY0L6zVpKz6IPwSJDAFBIIoL5QoD4Ryb7HU/n25w/J/d/eLccOT2hAr1Ja0cBQOAdqqEMlqwH0bGcptAagrhuP6lKTMZlIx6W8ZFBWnVqSmz5wtrz69cR+cRa8EiIEO4wB9YkM1FmMZVGPczex0ucG6kA4oK4HbRdSPawC9z49wkO3vAKI+K/j7piqta4UPBSJ1KRAe+qJes6w0/OhjXvluWdqsu7UNXLJ5ctk2RqCex1TKzxNhiVOB9VnMoHLJ3SvtoGQvRMSEzuA05w4NKSBAiFEMdEViZXjgrpAO1VrY3pt6dIhqTeqevpTfSKSejWSgcGSlCooohGZqE1IoVgiFrJTIEXWO9waR6USS60xIY0E6qUuccTGMeK7u3NPwydI4HiQQAD1hQL1RiSNkVT27KzLU0+MysgRByzluCwNwrSoU4mLxKgn/KinClai22GqoKjXG1JPEt1wM7SyIOe+ckBOPtN5iVShKQA88tCDHmoeqOct9VkGocriqRN4C2DHHRGrlUVK6Av1nGTHK3HfAe4EV0YCZ3GYdk1j2RBQa6BYluo4geELcuhAQ+mQZcvLIljUlXEplMdVUdTrFYnSJc1wt+pdRBvZhEVrURqqDGk054ayYFqXEoHo01jq9brbiKUuolAszDDGpRiVpCjQNAQo45maVCpuraFar6nc4fApL+FIKlRJCSqo7sIAa5heFojtoPHj4XUOdQgScGesOe+XsFBq42HWZ5ROuVCqBngqtWoq1fFIGtVUooTDp2PdjakbePQg6fZh6eKguxPg9IAkLOS6O5g6qqQSD05IcUldwwsQGzzl/FM9oIKj3hrOpTGpKP3C7iAX12sOnDpWsS6WanOkWGIVAOu1rtw0IO789LW22aIqpwnBfzeUBiGiYwlXwAYWvzuxSX/nV8LbyrhEhWoW2xy+eiA7rLruDtCIsnNMAVrkgQUPCBMuN05kdKwqAwMVXbjlHgd1F4oonFjBGzmrPDXYmYWCxF3UHejtAu26AzJ4BrdFDbamk5FUMOR1vaPBnMH56YdPkMDxIoETBdQ1RInzx5z2M0dQb51faW5/bvIObrlNRWwmivRwUSVdlFIArNl2Tuxu/zxMc2fUk3uIKw6doN4n4CaEzJjyyw7MCQeAFQtYsns01SiQnEikMV8U1DMLc9ZQlMGYxhkX9TrRSI161idVB7zdBiysXHf2aIudQBmlDZQNMweUD77uWPUunQtYljtRifvirPxUzxstu2czS6SpCJXrJ0xuQ4oFJNWa9dgCKAQQtBA3s/1duhjKCU1JSpAutzjqZgNZXzoHf2kQyD7CfdLFWNd4N9qGOcRcmHY4hgRBAjOTgA/qGi8qakgjHZclw2UZ6Oin3n+XRg1TnQGwBsLzPt2uqx2cJFIsuh3x+edY54qx0Hr4zBrUYQG6bj6K8NioSyMm+BXTI6iCLBa3HqnmTipqIk0T2p3ni27uUYgk3KtTE8RW1/C8ik4lSZoxSLJTj3RDEJY6BzkA6qR3Lo2z54D9Z7OTgjRfO7LOZgK2s9bxzb6qwhOnoL481JumOArDxachOdczIj7beKVtJb1GRCRPx6xnRzllPvyZ9rDY8b4Sz241qSx34FRr25DuzqJMZ6lrFtlsw327KZO77qqdQf+cIl72MB5DkiCBGUmgHdRTDeWdCpuPAPWSFNn+3dxRyppTf0DdB1wDZKhYPgCyGnRxyw+ea/wogmRgXeXwHdbI1Fh0Lx73plIEnYTVH1AHLLJTetyUH6AFzAwk9dC5JqgrsNAAPWTaBc9yKdWxUUFPeWpNhXKwY+DcwqAzj1EGeL8433cXo93M5t6mLZ1Hk69p3UYmp1h0q2oGd9Y2hd7sXkYl6RnQRJHMgNPOPdUe8840VTllVE5zw5RTJM46znJGIVgdmodFZ/lkeajC0KNK02yDl6kaZO7ybClUq7GDbQfqrRmYa6dbU3DqKmv7jF69kDhIoD8SOF5AHSAFkAFh1rb44XezvAFw0gD0BuJY5karANz87VMs/K0GVRRpPpZ+Okn2CdSpiFmn2Wn0HpgpxKq16GK+mFUY67Frjp9uIiPQhIIwy1Wt12xlVclis5qhedgYlJHy/gHQs6ZfJsdibyeMzKr1j75uY5ScttWTmbhuvHamC1QGuD1OlpHTahk1Y23RtgPqeAxBehMvAI8U5OBmRRqwRV0xTbYmS7fO4GRuQN7emmzqkIUCsEVRJ2ujgHy6bLrBFe4HCfRbAscLqAO4Bti+pc01o2O4bta5Xec5FADfODxYPhruGweJJNFnzOrvRZ59AXV191MrMbMUM4vWtwm5BITrQc1MN/hbaQkLE+DgQ61SBW7wyCziDJeUUzDXSCx1NU+zlUHdCWTo2YssOqQxS9puOWva1VFrlOmeqWcCeoiHArcD9dYEApDlWD4PjLNIv47vcId/6KzDlJ16vjBrMVCvuPZy+lPTcicN9+FQshO8M9qoRYlbnT2Ab970rXYncwfrgU+f5UAKj/VJAscLqJuFDqACzgbQY2NjMj4+ruBsFjyAXalU9Id0vjIwqiZ/zSz2XsTYN1AHH3STpHG+xh4YljT5ZLMc3WHLCl5gUcZusNVfrVAFdUev6IcEFIALn+adWZbKBRvYQ0TMhVP36BHNx8rotmDhW8Ae0Gv986BO3ljwKB/yzdYcjN3Q4gB0Nv8A4rZF33h457ao3jS6smzKgb+JMw+oG1eO0nTrERqOOGPIW2sNPiXjqd4mFZObifQyskKaIIEFkMDxBOo+fTIxMaHxZfbv3y8jIyMCuHOND1QKgD44OCjLly+Xk046Sb+Ngsnz6Wax9937ZaqFUgML3a6vPqRZ/JVs8U1tvuwMUgvopaCtoA6FkkVrVO7YxRdXbrnBjkbc/rKPHo6R0Q6ShYXFU8X58EmkO0vnBuqtRdEMlLV+HUZrxlXrgmjzfmbd6oJty8fbLZoa/WRWMW4mmU+nTQKaoI63DLtBM2Wisxqeb4F2i+t2AOz4b/u4IAzInDlUkzdv0lJGw2RUVlMfZTz/rOmrBXirQxEntASOF1A3+gQAPnTokDz33HP6w+9moes+kowft+9ly5bJKaecImvXrpU1a9ZoGGA+xp/nF1t76ewpLHVe8Gza7fbwq5PGxEgio8cmNK63AkQWT90lsdC5rmgHLHbNIYVCTQaADjCdu18L1J33iyJWxjnH0Zg+SVhdSTjyPvMcUXrCQJ2DlJ07kBq7sXNznJtnNScv2eJituCrsd7bmYjWGoGjPHz/F0eb+AuP2QkbWkvj5LNdmhlOZ8LI6Bd2xhYlSTmmz0lKpWM0U1N27Ty53263YOyWmVuLoZMpI6dsdHrl6YOMDss3upfRFdIECfRZAk2jTSlcgvgxq62qO6PGU+/J+6U459C7gDAUzNGjR+XJJ5/UHyx1+9jiqO9vbs8sWbJEAf2CCy6QVatWqQVvvDzP8VOr1Zrc/HQinQLUMw4kW30143JiLJXxsarUiU2iGOB8xdWV2bOK8ZZQOFBvjTyAZP4u3qKdpjBLtAlezt2PzUUKNgroWOpmsWactLbSecU0FUcGUFOz3dOKJ8cimxXs52oI7ygM53njABQc1Labu2BT5WRWutEbdtCIAbSlUwoFC9vRM06+DnA7t6tVlzZQb0rFZi3Zt7/I0XXxNFMEjhCbTmDhfpDAwkqABUXblKdnGqe6I3tgSUkGBjn4IjMAdT+k23XKB8DdtGmTbH/iCSmVy1KIpz4kw3dZNDdDWwDlG4t637598tRTT8kzzzwjBw8eVGDG8jY6xRZKzSvGFkh5Hm4da/3MM8+Uc845R4HcPGq4Py+gruCY+Us2G5SI1GoitWpDxieqGlDKAbrzkDA/e0coxFLMFtiMH2/v7ekBQhkaRbDMgmyCoEGaWdEZzDWVgkH79GXMbAT6CwL2ZBewM/xt4rA9m9Wphc+TF3ObVrjlnVE0nsrqXu/p2typDS1V6PLN55Gr+8yEFlIHCfRFAoYrKQfYS0N3VAPolYGyDFRiPSBDXcCz4UsYbbfZLpXDhw/Kps2bsnjqFYljYh8RDM95q5iF7H9bI+y+v8kI0N2xY4ds375djhw50vRyMR4c0MYC52/j131PFxZIUQCnnXaavPrVr5bh4eFmPSg37+44lUC7WuoG6gqXpt7cMaLSqKdSrdZ116GCurqK50E9Uq+67vTHdOAzVbW7gUzegu7HWOpkI/fSlumAcfJspr32vcw5ZlKPbrLplEebBuqHUEOeQQKzkoAuQ2WH4ZABQF6pANAuFIk/pW2BeiKHDx9SS/2JJzj5aPagboC7Z88eBXV4dBZEfRdEQHb16tVy1llnKXBjzT///POKq5bO/NpXrFghr3jFK9RiRwmYf3uvu0kNt83SN2UQpdl8waYNPqi7h9glpUeMOpvO7SJv+qwQLwAAIABJREFU+6iVnccHtUAzQzCPv52u+8bwdPdV+8wg73xd7O/80PKv95LGf366MrrJw2+3tatbvaar03T3O+Xbqyyn68+5yDJf75nIspPMfKppurxnK+vsXWjjxqaTUa/tmtI068LH9TK+en2v8uO62xiZyTvbzT7y7Z+pcCLzdFPqVxlFF9YCQM82jmZB91yl+gHqYCRW+tatWxWssdJtk5H5mvP3ySefLOvXr1evl8cff1x2796d1cltQAKEAWBA//TTT5dXvvKVqgjIW5VVttO0F803paVuqN/mStPJkJvKQOwEitO9VNPd7zRwOg2yTi9yt5eolzK7AfxsX1z/OR+IOl2frn7z2a68LKfLeypg6kVm3do+zQutwyAPAH6f+yA7E1CfTtZTAVe+vQsty+lklqcF/UnYVLKca7tmIrNO9ehW7yxGnWVvYO6wy/3obmi8f70dm+2Wenla+sWnWsjb3zyEZb5x40YFarb6G2VjO0KNWwekAfUXX3xRjh071nRh9Dl2ylm6dKm89rWvVSrGx945uzQ2+yAzwacF9o4qJIf2k6zG3LTe7UDqrowmPZ8lzb/Izbc9W+zVYizvrMy2vFyc8o5ldyszb7l0ZEe4yHQmy7uZV64O+ev+C+AD16R2eT6i+c1B2l7bydRBpFO1a5KSytd3Kln6su7Frsil6Vovq0NW9lQym4oha7vXbfx1opt8WfdaZ2/m2HX8dRsj3tjuOLa8Okz1XrjV+tzKui9Lxqfdz8sjK6OTzLTM6cZf3jrpoc5TDZlmdv74mwIuPFxwZyK0tuHbQqmjXwB1t6W/E6dugO5TILY5CHoEP/QNGzYIFIx5tFArvzzywMsFUMdDhg1JeeVg5VCPyy+/XM4991ytG39jsfdKwUxrqbfAvV14vkOLT700+99ijEyS+WzNvunM4bxZNluTZSpTptsAyj/TtBv8tzo3R+6lPVOZN53aO5Vsp6uTr0w7yaBbXWbTn6apOr30U5hkmYtstm24A0LMRANPZ47PRpZ+u6aS92xkllc0U5mzsyk737+dxvp0MptqjHSrU/66X24vY4E09tOigTtFqZ0PULcNQn6cF6zue++9V1544YUmlaJvZxYPhm9cFY1Tf/bZZ5V7t+3/1Atrf2BgoMmzX3zxxXL++efL0NCQgjozgPxsoRsa9QzqVkkdtm0Sy4OB6qjML7rd6nZd1G1gtChxV9nJ6dyWms4vbifbqhfosLJsu07nfKY2a/Nbfdrr33q2W96dn29nFvIdOJ0su9Wh/RWaSpaT77W/Yt3b1U3FtdrQ3bTs3MeTy5qpLDvB7dQwM7PxN3m8utytn/J93F7/2Y8R50jcvtVs6r7v1q7JENHtnfLblXeu7TxGuo2lqd+r6fJutlvDb7dWRZ0veF45zM1SJzcLzmUhcs1/HB79vvvuU5fGPD7qoTlpqhuMLr30UgXuLVu2qB97UwXm2BDSXHjhhfqDdW+KZM70i+8k397dPlDzeydQd9dnf+BzNx0UrgcJBAkECbRLwOF3fmbuW+1uX4sulGZoP1P6hef9eCzmq47XCvQLoI6lzsf3PDHvFkAdSgWQfvDBBxXUSWcBvnB5tHC8pMEDBksdgG8aH3M9JKP7wPFDr+ZBvV07BlAPr1+QQJBAvyXg4LwTFrVomRaoO4CfKagb9eFHXcRi5wdq5P7779eFUjvMwuK1WMhcA3X8zx944AH1lPEtcFM2cOcslL7qVa9SugYO3rwQe5XjjOgXl6mBejdAN8udk4B6O6mj18qGdEECQQJBAu0SsLAcneL8zz+om2eLqpFscybW+iOPPCJPP/20Wu3GcpgfOkBtoA5H/tBDD6mlbunMsic9C6j4qGPVEzrAPwmpV3DvEdSnssi7CbN1gk5Ht7Ne1kC6rSeZYrZZl+kRP89OaXops9tzdj2/PuVfn24dabq1t05rX34b8zPMXtozXZ06tStfZp5hm6odnfpgOplZeZ1kOZ3MutXVJ4Q7/T5XWU415vz2dqrfTPrN77/pfp+ur6eTZa/jr1PbpxsThsT5dL2+V/Z8J9lNG8LCgftcF0qpQj5EANewznfu3Kk/RGU0Dxj/EIxTTz1Vfc/ZUPToo4+qpY4ysDz9AzAAdOgXs9KbG4jml36ZCtTzb6KN4kxL+oAQjIwggSCBIIH5lEBTOZu2sEB5vuZxBc4HqPvujRYuAMuYxVLbgIRlDkfON9QMbomE1rUojOwmhf4x+kYRMzvXlDC8hAkgDgxUj9E7AHyvnyks9emOLfOnNr769cyuAOi99kNIFyQQJDBbCbR5unTPZK6gbry3gblRMfwNTYL1DbCzucgWQM1t0Q8JYMG5jHcnH5QAwI3HC/7pLJAa9QIlA21DXrahaSpRzQHUe+DLA6jPdpiG54IEggR6lUAneq/Ds7MFdaNcLEt/sdTfMDQ6OqoRGgF33Bux0o2KMd7cYqqbqyN5YsmzgApFQ/hdYqyTDqDnA6hD2/gUzTyDevviw5Ry98M2knA63q3X+5aXTQpeTpy6CSzPDXoTnDY5+W2cKw/cqQ/8a53k6vPR+bpM11/d8svXo1vbp+Oep5NlflzMtP4zWdPptm4wmzI7tatTP3XiwGc7RmYy/vrBqXca53kCYJIsezTRs2TzAepmpRuYm/VucVvYiAS9wu5Swu9Cs2CZm9VtYQRoCkAPmBPEi81JLJBCv5AnoA7wm8WvTZ87p96NfunBQrdBqaDumevaSVlPef2RX9/psr+oV70d0r2EErBYG21VmNTBL2EFQ9GLRwJ2mE6nFuUXx+fAqXeKn54HdaoAcAPCWNZY7dAweMRw+pFRLYC/WeD4o69bt05/AHascQvsZcoDcIeWscBevXRej94vvWTVIQ1hHJMsoo5aGlnsXmJiFtzuUALX62FvUcHtviM+g556lM0IetROs6zhAj5GmOKsWd5GiUmRMPtWI1e+0/i+WTa/BRrn5wa9uX21FoLmt7SQW5BA7xKYq6XuA3knUPc5d95rrHKL84IFD9CTBlCHM8cfnR9AOx+q1/KyiI+9cOktW9pFfTRFonW10Lu9i6tTysxK56vp2m6gzlnLBLlqHqCmGXDuPcjDMXR6uhFbf3ucYc2trv1/2nxa8/Ebuu/c7X+d+lFCJyW12NrYD7mFPPsvgX6Cuu9D7lv2tkvU3n+rA8BugcR8K34+pNA3S10POiZOsJprWVUV591xRo00kQa/F7K4mHriKYdFZwwNZ0fHBTMr56OtL2ke3UD9Ja1UnwrPg3gA9T4JOmQ7Iwn0E9Qx1uwdp1K+Z4yBLNft0AufH7cFUN9an1HDcon7BuoNOyNUQdqhutEq0C2NhLM3iUrbCsQTZ9Fi4szI1yA9i4Z+cVSEyuElaFN+N1q/6hAs9bm8juHZfkqgn6BuYXHzxpvNzM0a78hpaAAy6Mr5oSX6COqOK9dlVXhyKo6JnnE9WOr8nqDhsh1hsVrryv84GiaKs+hr/ezqhct7sYO6rzj8AfpStnvhejeUdLxLYCFA3WSQH/M2W/W5cj+NWfrzIcO+gXrCImgG6gbSYLeGy8wYGb7rzXSRUjXtoO4OgQ2fl4cEpqJZAgXz8ujDxVzLfoK6jW/j030qxmTqW+N5y73XAzB66Z++gbrzbMGThSVPB8xpvSFJrS4SRxKXS0qtNDI7XY144jM0GgINE+MNA6f+Mv8gYIvclu+4hQa6hSyv3QsmKOaX+TBeFNXvJ6hb3v5GpW7WeidhviwsdVZHk4TTqQHoWJJ6IhNHj8mxI0ekISJDy4ZlybKlIpkXDAIYHxvTU74B/8GBQVm2fKWUKuWX9YCiXZxqYsdl+dzbQvHrpljyA28+eTy/kygHv1rKZfEH/90w43pZD+NFUfl+gjoC8o02n1v3r+eNnfxa13wIum+Wuh6S0XCgDqmyf+9e2b5lq7ywZ6+MTUzI8Iplcu768+Ws886VysCgHsT6gMYkflbqVWIKL5OzzjlXzr/wAlm2fHlbW00Q8zll6SZMv3Psdwu0Y4DNBoPHHntM/VJXrlypW30JyEMHbt68WWMtv+c979ETxc1/1A+3mS87r+FtV5nFZjawNPDENcqmc7aFWWdG2QIMAEusZwL5U78rrrhCAwz5rld+O/MAbPlYeeyS+8Y3vqGBh8444wz1s82v4D/88MN6avp5552nsaFtRx31srR2Qro/CPMD0uqIDKgX352UhO3A8/15La+FGCfz8TKGPPorgX6CeidXZZ928VvWacY8n7PovoI6C6TSSGRidEwef2SLPHDfBhk9NiJjY2OSxCLnXHi+XHPddbJizWp5bvdzcscdt8uRAwelOlGVypJBOe3Ms+Sa171OLrjwgkkuQgtp5RrI2qAwUGczAWcT3nLLLbJr1y4NukNaTgJ/5zvfqbEcvv3tb8uf/dmfyR//8R9rOE0A2OpOWgOjTpasvwXZwnSa25N95w+k7bQjjTQol49//ON6QvlP/MRP6JZkUyz+IMhvoLDBZtNDdsuhwH7+539efvZnf1be/OY360xkx44duqGCsKH44P7Lv/yL3HbbbfKmN71JfuRHfkSvmRzNrcs/HsxeCgN8K9fnKEljsTSsLwzokanF0/CtH0tvwB5mDP0FzuM5936Dut/2l3Kc9Q/Us92jUCkH9uyVjffeJ488vFkGymXdRXp0ZEROWnuyXP89N8rJp54qj23dqqBeLBSkOj4hUbEowytWyOtvvEGuvOoqBcP8QsNCCM4AwixZA02ACXD767/+awXu17/+9RpakyhtxFS+4YYb5Hu/93tl27Zt8lu/9Vvy6U9/WjhMlnwAONsSbEF//KhulAFAAlKAOaDJt3UWsrDQnmY987dFezOlYUdtAeqci/gnf/InCuq/8Au/oLMJ5Eca7hvvb0qHfLlnGyQAc8oHiFFgKIh3vOMdqqiID33rrbdq3Iof/dEf1W3PgDrK7i1veYt8+MMfbtYdq95mHJRvioU6mIKiHORibaI9Jh+jsfwZCc8hI9LY7jw7GZ42mM+wP0M4nsEn1K0/EgigPle5YqUTAqDRkP3P75X7v3OvbH7gIQWqykBFqvW6rFyzWl73hhtkzbp18simTXL77bdLqViQWrUmxXJJlixbJtffcKNcdfVV+rL61rlvqc21qlM9b+X4lA/gAeh8/etfV7CG0vi93/s9pTSeeOIJvQ6QYKVyHuHv//7vy+/+7u9q29k2vHr1arn66qubwXuI6gYwEgCI8rDwL7vsMlUSXAOQOf8QoCdfwnNC5XAiOfegrij7nHPOUbAmpgT5bNy4UetDXQ8cOCBf/OIX5aKLLpKPfexjmo4PgIgSwpJnyzKB/LmGMuIUF+oJMFI/yrnkkkv0729961uaF7MT+u3zn/+8BiX6d//u38m73/1u+fKXvyx/9Vd/paD/ute9TuNfEH0OKobQojbbMcVMW4zCApChtAh2dPbZZ2v9iX4HcCPrK6+8UtvPs1Z36CUUDzJAeXLSjH9qjPUxcrHYG/0cNyHv408CAdTn3CfZDqIklfGjI/LYw5tkw933yL4X9kl5oCLLVq2UM845W1515RWybOUKeerJJ+WrX/2K7N+3X6oTEzI4NCRnnnW2XH3tNXLBhRe2cbL+SnG/rXXjcn1+zMqHevmLv/gL2bt3rwIlYALIQcsAjFjjgBuAf+2116piAqS5BwXyhje8QQHrH//xH+Wee+7RIoyO+YEf+AF54xvfqGAOOKIoADgAneuUA0jDXaMkADyAGkAlHSD3R3/0R6pEAEIAedOmTVrmL//yLyvXbfTP9u3b1fImqBD1IsocyoqX4Dd+4zeadSSvH/qhH9KyfuZnfkYtcHj1f/3Xf9V2Atrvete75Cd/8ifl3/7t33QWQ5spC/Dl+e/7vu8T2kadbNZDPWg/6UmHQkMZEemOw3dJC48P8KOc/uN//I8qT56D22dWQDkWu5rZwVvf+lZ9jr5CxnxmctDAnId/yOC4k0AA9Tl2iXNpbLht/0kqL+5+Xh7f9IjsfuZZdWk85dR1cv4rLpJTTj9NomKsL/yWR7fI9ie2S3V8XJYMDcn69a+QC9evV7Dwnfb75bXRqck2Zc+vbJOWmMlYqYAawArgsnCIJQoYUU/A+D/9p/8k3/M936OAS+Q2QBwwBPxQAFi5WK6vec1rFNTg4LFGf+qnfkrB+M///M/lm9/8pvzgD/6gAjrgC5gB9j/8wz+s1+6++27l95kdXH/99fKJT3xCvvKVryjVgrW8YcMG+exnPyvXXHON/OIv/qIeamsc9bPPPit/+qd/qsrpx3/8x9Vi/p//83+qkoI7x2LmWWYQ733ve4X073//++V3fud3lF5hIRhAZnEY5YY1/3d/93d67fTTT1dFQFkoCizpj370oyoj+yBb5EQdAGboKoD4U5/6lII77bvxxhtVUVH3X/qlX5L3ve99OpO4+eabFdyhggBtZMWMBr6fBWFrI9+2DtFvQ2COr054vE8SCKA+R8Hif95I8TknUFcs9fEJOXbgkBw7ekTSNJIlw0OydNUKKeI5Ebk9pSMjx2T/gQPqq14ulWTF8pWydHjppAhmvtU8x2pO+7h5lRj1YyBhdAyWNBQI4ANFAOBhob/97W9XYP7a174mf/iHfyj/+3//b11A5f5f/uVfKgABPCgsDqLleQCcnzvuuEPBF2sYyx2AJu/f/u3fVmscrxJmCAA55aBQOMiW65SJNYxCAEBRKCgbqJj/9b/+l4IpoIg1bzMOygSE77zzTlU+cOaf+9znlDaBjiGtrRuwVsAhux/5yEfkV3/1VxVMoWoAYPh68oZT53k4dcAYEMe6R1Hw+dCHPqTA71NoKK2/+Zu/UXn8wR/8gSo7m8GgDFmzANRp7wc/+EH5wAc+oPVEUSBv8kOmzF6gV1Bmb3vb27Q8343UePxpOz4kWHQSCKA+xy4F1OvEf0kaktbquvg5MTKuVjifAsc3LRmQyuCAlCoVSfFsSBMZmxhXX/akkchgeUCGlwzpS1ooFCWK2Y+abWTKooT12+qyBVLfC8QWJy0IPhw2P4AOwIgVDRBCT0B5/Jf/8l/UaoVWgD8HiPgAPOT1z//8z7rACgfMz1133aWgjpXMB2oEC598sHwBc5QEFrUdZmseJfwND47FjeUPl8+sAcUBHYO1DRj7ljJWMaD6mc98RmkdLFqs4PXr1yu9gyJhJvVjP/ZjmheWOUCN1QzdwoG7KCrqBqjDdwPIKAqAlRkJZzjiAYSSwhsGWfjePcgNJcCz/+2//Tctj1kQskBJQbdAv5DfTTfdpAuylMtshbZTNuCNgkK5fP/3f79cd911WgbXbaGZsdTvMTPHVyc83icJBFCfgWB9H0sFwSza7tHxETmw70U5uG+/HDt0WEaOjsj4yKgenAGQY63jg37SmjXKqy8dHpbRsVHZuWOnvLBnjxSjoiwbdjGHV590kqw8aZWUyxXnGqch1/u/UzEP6sYDA3rf+c535IEHHpBLL71UOVzuAeJY1iwMAspY0P/9v/93tawBXCxurFrqzn0WIEkPyEJtAKhY9li7WNsMxE9+8pMK6iy4Al4ALRQN1vd/+A//QakUQAtXURYI8VgB9Pj9P//n/6zgDBD/n//zfxTUjVM3GgtQpJ7kSZugawBOLN//8T/+h37jqvjv//2/18Xb7373u2op//qv/7pSSoDr//2//1frRn2gYQD0v/3bv1UQph3Iy0AdOgaZGR1i3DhKhWf/63/9r6oEAHVmCIA6So5ZES6U+PxDO8G5/8M//IO6ZzLDYJzwHAoW5UNd1YDIDvD1KZgZDO+QdJFIIID6NB1p9INN4Q1gLX7wsdER2fHUU7Jli+PRx0dHFXgIE5AmqdIrvGylckXWrVsrF164Xi5af4EMDQ0rnXHvd74jB/cd0HgwcMjnXnC+XHzppcrFq3tjHEvMbtRun3k6bccGgnHr5guNpwVTfaxLOGcoBRbmAGkWDfEEAVihKgBpuF9oELw6AC/kBf0CQGKJA7yAFQuBgCvA+tM//dPaOqx8AIwFVzh7eHese8rG2wSLFDAD+AFf5IUCQOEAvlATKAIWFOHJf+VXfqXJ+Zv4eB7lgeV71VVXKWCjJABYo1toD4AJd88s5Nd+7dfUUocGQTExy6DO1IH6AezQJVj1WN7MLpgVUCdAnTFk8mR244M69Ms//dM/6QIqawnUCVCH/oHPZ9bAeEKupEW5oLBQMMw2WLNAqXX6LIQxsEhwcFE1I4B6j91pYOf7HB8+clg23H+/fOeeexRsSFMpl53F1GhI2nBRGBN8rzOAh0s9/7zz5K1ve7uMjRyTb339G+pmhydMsVSSUrkkZ551llz9umsV4CsDAy4sbzdjfZ5A3bxffI8b830GgL/whS8o6ALygDqUDNQLliScNACIhYq1DpABgH//93+viglgsoVQdnsCmFj75IGXChQK6QBavD9YQDTrk3yw+OHsoRsANu5RLgul1O3nfu7n9Bt3R+rM72Y58wz9Qp8YsOKxwoyCBcbf/M3f1IVguHEWMbGu8bsHuFl0xSLHAgfUmZUAyFAlUDXUkzQsIAPqgDhlA/zIE5BGwfG7uRdikQPi+LrjcQMHT32Y+WCd4wpJfeDTaR+UDmlZf6Bs5I9yRRGhAKB4kLe9yP4u4PmKW93jKxKSHScSCKDeQ0dgaRno2YuC4J5+5hn55re+KY9s2eJ2AHqxgjmuDiAvRLFuNNK/Gw5cFOg+9CFZPjQsD2x8QB595BFVCqNjY1Kt12RoeEiue/318tqrrlLaJi4S9KuLtT7PoG7i8Hdh0n5oBVwCmV3QBigArGkoAWgLrGd81eG54YsBcax5PDTw8wbU4MbJA1dH6AcAzfzOKQ8eHrACpMjf3PSwXLH0yZPFQigH3AdRDtSFcpkZ0AfkR18xg2AWQJo830xdURYoJ2YO1IOy4bLJF0qI+gCuzEZYlEWBkT8LvawL0GYWRy0vqCGAHqWCjPgmLxZ3/Y1deN4gA54nXwttQBuRJ+m5hkXPTITZB4YA44P1AsqjHljn5G80lD+jpA+Dld7Di71IkwRQn6ZjDcz97dwG8rycX//GnfLEjh1SAHSxytmMlB2U4U5DShXc+S7gbhYX1Npiqn7KyafIls2bZdNDD6sViBVab9R1l+nrb3y9XHv99bJilfNB7vqSzhOoN+udnWxiwGAzFP5GFtTRdlyagrIdobQLELedlKQFzC1mCkAHLWF0hK9A7Bmzqn0g5neA1warW1B2AbT45h5Khw/XbGcl5XZy0SQfCz7m141rtgPW+hs6BcVg9bOdqZSFcs4H9CKd7VylnrZgSZm2yGszIJ5HHuZp5IdGAMSpm9WP8shXqb1s5mFy8A0NNS7iuG2/wyLFrtCsLhIIoD7N0OAlMlA1YLVFxaefeVqpl51PPSUlIvR5eRGx0QBdLXiAHoBPRaM0Qh+sXLlKnnj8cdm+bZuMjY0rBTPBNvKkIVdceYW8+oorZNnyZRIX3HF3HRmYeQJ1a5MP5vyeB0XkAXAZuPi7Fn2wNsVn29xte76JCADl43tp+HXgnlEJto3fFIvVy+eqbYMR3/62ewNMe8aUlykrm5HwbZt68usnPGt1M2Vj2/l9edk4MavZj+di1/JWtMnF95DxKRQ/vU+N5RftrV2W3hRbQL4TTwIB1KfpcxOQvUT+y4kV99zzz8uxkWOai+8OqBCsVjq0TKzf9hkfHZNXXXaZlAYG5MC+fXL00GGp1+rq6lhPGgrsa9etlZPXrpVypexAXa3/Dp95AnVytmBaPpD7vs9mbQKaPqjxnO10NJD0AaiTtYyssDzN4iY/s0CtlQaSfh/4gGmRDM3yndQHOa8h8vPr3dZf3tmL/qzIlILfBivHrGK/Tr4yM1mQ3n/R/FmfP0PK1x/FZ54sJk+rh68M8nnwNz8W3+bEg7UTu8UB1Hvo/7wVay+YgRyBuxr4qWdnc6qVhN8wYK4Bv7DQ3fl89uJWSmXdcYqfOouqLKbCm6c8I4kUikVFcc1rAUCd+hkY5K08AyrfejZAMy8gaAt73hYGrb2+YjAKwhYt8xa0AaGls7gmfhgDs4Ct66zuBtrUw6gJH/Cs36w9ZtX7+RgAm8VLPf1FZOs/6gD/n58V5IeTjR170UwWJhubHdjYMbn6StHqZHLtpIzybZiSsuthzIckL18JBFDvoe/8l9peRrNqNVa2eqSrqe78yjnKjsOl+VN5dVcI1jrWaTkL2qUhe737ekJSvabXAHI9UQnaJVsk7aelDrcL4Phg61uH/gzFBo2vpLhmNIk9Z1SN+bz7FrBx2nbPeGBTEj5PjOwsJrm/gGtgZxSP/W3AmC/XlI5RKD7lYVSOX0cbGnnPIJ/2ySsBXyamsPw0Vgfj/g30TVYGxmaJ59d0fCVjCsIUl7XXnwn0MLxDkkUmgQDq89ChGWZPyqkTCDctdv+htgxUE7RxLfn8m/najXnYm+TPJGYrknweU+WZn7n4YDrVvdnWzbdkOwH3fLS/l7qZcszXYbryp7vfS9khzYkhgQDq89DPMwH1ScV1etgD6a55+zfmAdTnQQwhiyCBIIHjQAIB1OehE7oBby9ZKx53NcUn37I8oXaanwDqvYg6pAkSOCEkEEB9Hrq5X6A+Vb5toE4bArDPQ0+GLIIEXv4SCKA+D304r6CegbPl2VyEzXDbsHsSqAdgn4eeDFkECbz8JRBAfR76cC6g3sRiz9+8E6BbugDq89BhIYsggUUsgQDq89C5vYC6D9RNXty3vgOoz0NPhCyCBIIEAqjPwxjoBdQpxqgUrG3DcA0fYDdz1Itd9pVAG8syjy6N8yCGkEWQQJDAcSCBAOoL2AkG6sRbJGhAE9CnqEPA7QXsoFBUkMAikEAA9QXuRLPQPbZlgWsQigsSCBJYzBIIoL6Yeze0LUggSOCEk0AA9ROuy0ODgwSCBBazBAKoL+beDW0LEggSOOEkEEC+Aec5AAAgAElEQVT9hOvy0OAggSCBxSyBAOqLuXdD24IEggROOAkEUD/hujw0OEggSGAxSyCA+mLu3dC2IIEggRNOAgHUT7guDw0OEggSWMwSCKC+mHs3tC1IIEjghJNAAPUTrstDg4MEggQWswQCqC/m3g1tCxIIEjjhJBBA/YTr8tDgIIEggcUsgQDqi7l3Q9uCBIIETjgJBFA/4bo8NDhIIEhgMUsggPpi7t3QtiCBIIETTgIvB1CPokjSdPLxQlzjXi8f0sZxrPlYm6O0U6695DbDNBTjF0Wl/Ub12ogZFnvCJvcHRr6Lg6xP2GFxwjS8n6COEO0dyuOYvXc+ttn75z9DHoAx9fSf4XqtVtN7vbynxwWo04hCodDUKiagXhpwwozIOTYUGefl6itVG4hzLCY8HiRw3Eqgn6DO+2PWsQG2gbAP0lzjwzWrD9hn1wz4fdDvZr13E/RLDupUzLRStVqVUqnU/NsEcNyOkpdRxZrTsGwKZzI3YA+g/jLqzFDVWUmg36Bu4NxoNBSwwS+uGQ1iRlUe/O16nmLx6RN7ppeGv6SgbtrKKoowAHUTSAD1Xrpw5mkCkM9cZuGJl78E+g3qPl759KaV64N7sVhs472RrrEVZuGTHkw0kO61B15SUKfCIyMjyhetWLFC62ycUq/8Ua8NDemcBAzQrePDGkYYGSeKBPoJ6oA0eGaGKX/DPBw9elTGxsZkfHxccc6o5oGBARkcHGz+lMtlTc/zhoM+/dzJuj8u6Rca8eSTT8qePXvk6quvFhpKw9FYwUqf31dtqtVz4/xs+ji/JYfcggSODwn0E9TNCOUbYD58+LA8//zz8uKLLyqoHzt2TL95xwBwfgD1VatWyamnnipr1qxRloKPKQez3n3OvRcflpfUUj948KBs2LBBnnrqKbnxxhtl/fr1qq1oXFgk7c+LYFM6GzDI2RZRgyLtj8xDrseHBPoJ6rxXgG+9Xlcg37Vrl4I6YA5I27vle8bwDMC+evVqWbt2rZx99tkyNDQkWPlm1ZOefMmjV0x8yUAdAT/99NPyrW99S3bv3i0XXXSRvPOd75xkpffakJdq2NAOBO5PrVBKpl37Wf+8i+J0ZZEeawFlyiBbtmyZDio+YaH0pRpBodyFkkA/QZ33CYN07969yj4A6BMTE5MA2QDeaGbaDl7wLp577rmybt06td7NYjevmuPOpbHTqu7o6Khs3rxZ7r77bjl06JA25P3vf7+cfPLJzQUEX6sZYC30Il/ea8QGoFEWACSdSGeilZcvXy7nnHOOnHbaaUon0XmsGwDy9rdZx3mtbXnn/VyNC/d9Wk2Z2MKycXV+HnlZYUU888wzctttt8nSpUt1dnTmmWe2WREL9YKFcoIEFloC/QR13m/erZ07dzaxgPeVd573zj78bouk/G4WPGAPBp511lly8cUXN41C86AB1M34mk5ufbPU86u/VMT30QQEsdIfffRRXUSg8W9729vk8ssv19+tAVP5a05nmU7X+F7u+wMhbxmjjO666y65/fbbtePgyWgLUylrC5311a9+VU466SS57LLLdKqV90WlHr7y8OXUqSPtefJmgPir6nnFYH8b7YK8f//3f1/B/CMf+YhccsklTTEshDx7kXlIEyTQDwnMBdRtodIs5/zMlvd+y5YtSrvwu3n2mYs22LBy5UrFiAMHDugCKml8gCdPsOM1r3mNGod2z6dIe5FL30HdrxCFMUWBAsC6/frXv64NpHE0Fk4d6xGNZbw6GtAHQd+h31cUvTR2NmmMb/bBlWuA+MaNG+Vv/uZv5Nlnn5X3/v/tnQe8VNW1xrfP3nsHG4otigoqCCJNVMQERVFiw0axoNGoSdRn1JfyrC/WqBBFeUZFEbGLiijSRARFQbEXbGDv5fl+/5V8N8uTudzhnpm5cy9r+PGbO3PO3mfvb5/51trfWnufAw6wqdOUKVPSxIkT0/bbb5/69u1r/Tj77LONRA877LDUokUL6w/fM/jSyhhAXsprlXXXzYGhk3fOuV4H5zOYqsxyyy1nRA+mvGPlmQryN5LXmWeeaVO9o48+OrVs2bImn7Y++ESZQKCxIJCH1D2Ji4PkBPEb5nf14osvmp7unT/9nnHmcKCYIc+cOdPiiJTnN8v70ksvbdy4wgor2G+T3yV/85JHX6zTVRZSp1IIC2mCKDCEAqC8f/rpp/bdvHnzbLpCg5UGBNFtueWWlt5IwAC9F2Lie4iK7wFF1q/Y6Uiem07kKcMiYGn3mDFj0rBhw8z7PuOMM8wbp0/Tpk2zSxLRvu6664zo0cx69epl/5s1a2ZG7c4777SpGqRM9g8GjbooP2PGDMMGi0693bp1S5MnT7abAUy4sTp37myGEO973Lhx5iVg4Tt16pR23HFHuykwmlOnTk3jx49P77//vhkX5JdWrVqlQYMG2VSPlyLvebCKsoFANSNQX1Iv5J37XHLIGKLmN43U6hcdKRuG3yW/PcgbJ3D+/Pk1ThqYKSWS8+GANm3amBQt4l+YJIaykTqeIwFQCAei4zMXg6i8V6nvIBXAgbDoOJ6ppAXI6Wc/+5kRPlMYH0ku903kra68ZlntZ555Jt14440WG+jRo4d5582bNzcDxAtCveaaa4z8IXgInfNoP8YAwwZhY+UxbBzv3r27zWCGDh1qGj36fPv27dMuu+xi302YMMFuDrCA1DFyV155pV0Pw6G8/5NPPjltttlm6cEHH0yjRo2yumgb13nggQfMSBxzzDF2DjhHOmO576Sov6ERKDWpi7BxYHGc4Dt51VpIpLiWYmpgAM9p1i2D4duGMwup83tVerdXDOrCsSykzkUhD0gNnQmvE+tEZyBsgSGdigbLU0Qq8F4xHjvTETxPUn4ge+nsC2O96gJiQcez3jrn0ga8aLzw0aNHmwdNW5FXdt11VxsU+oRRO+uss2yABgwYkLbZZhvzmPGc6Q9eOxjdcsst1s/+/fvbsSFDhtjx3r17mzcOLpdeeql5Az179kzt2rUz44EBwHAMHDjQrvnSSy+lW2+91crRjquvvtqMzl577ZU6duyYMESXX365xS4gdaaElcjUyYN/lA0ESoFAHlL33rrSF+EfSBxHilk00ks2sUJcpZx0fmsoGEp1VL2+fzi2OLHwAX/DeXBnscpE2UhdHjjEjtYkjx0JRhKGMkg8YL5zeJ4QGgRENgkd1KuSK061VNcPgPoHsSN7oKMzBUNOQSaCRLt06WLe+ODBg42geYf0kaCIkvOfepCjCBrjgUO0kyZNSnfccUfq2rWr6fDcEC+//HL6y1/+YsYSAkc2wTO48MILzXtnBsAiBqZ106dPt1lDnz590gUXXGA3HvVC+ozFOeecYzMe5JfWrVtHnnopGCPqqHoEykXqcAC/f7iuUGIHvIGUQto2jtisWbPMOZNzyHFp75TH8UVT5z+ELr09G5ytDfCykrqkCzpNJ/ASISc++wCoCBpvVBFfSAcQIC/IDq9XQYVKErpuBEkvujaWk76wGpb2QajywG+77TaTVU499VQbZMgc43TssceaZ0654cOH203AZ4gao8cgErxkZjNixIjUoUOH1K9fP7sRmAlcdtll5rEfd9xxZhzA9Pzzz7eALWWRYsCVmwBSR2IhSEubmSUQVceQ/O53v7MoO9+hrfuga9X/MqOBgUA9EchD6lzSc5ZkEX6POGmQOu9ZR1W/LZIoyH5DSub3PWfOnJ9kA3pSh8j5PcMZ/ParKvtFpE6jyEuHhFhBikcLeUPSdJoOaRUV7wQVIBuICXJUZog8fFnDYqcj9bwHrJhfyeVXhmGYkF3QywlyHn744WZVkTqQPBhgSB2ihYTRriF1yBRN+6KLLkonnHBC2n333S3mQEAVMj7xxBNt0K+//nrT1yF5+o/ujqeOMeEcpmZ45ZQbOXKk1Q1pgxHXhvS54f70pz/ZdI/2IdngJfznf/6nafI+UJoHoygbCDQGBPKSOs6RJF85d5JfmC3zO/MqBJhokRGeukgdjsBJ00uGQHIORI78summm9osXZJ0g2a/aFqRJV/yurFokBqN9fnV0tXpGF4v+i9EqJx1T+CV9Cx1I/iNdvgOoFk4hUeNpkbmCnIRUgykTIDziCOOMKI+7bTTTGIh7XGnnXYyDR19HHkFi0wZ5BeIGnJWAJbjyCZgwDl46txE8tSRstDf+R6SRq/XJmkEXfEKbr75ZtPdmU1wU6H7obljiPDUuXkqGXhuDD/+aGPTRCAPqUv6kLfuOQ5Hi9kyzpmcVDms/P75TeKc4qTymyS7jd+zl18kmVAXKd1IzszilRVTSHuvuPyiBvvAAfLE2LFjjdi1PF2esIIPgMFUhSAfQTyCjz5QqamIQCjWetX3NvXyiwyL2oxlRr9mkPDclWqJpo7XzGwDwiR1kRkKRI/Ozo1BWiHGgDIMPN41xCvPnUVNEDWfIXVkHmYFvCB7DB8vvifDZe7cuTV6HilRe+yxh+HIjYbB4CbCAwBPvASwpR6/orRSgef6jkWUCwTyIJCX1OV5eycIHoIPkFOIV/E7FvFzPXnqa6+9tvEBvz+cNlQLr797/oMn+H2iWEjm8Q5yXRiUVVP3F6fjdITVlWjKSlek0dLL8X5JD4KU8CTxarFaXs9WxozqrhSpa1ahAVWqEpYVLxyDRR8J5jJwtBurTNvRziFf+oz8gkFDOqEc5TECGlRSH6kHj5p6sPD0Ea+cMlyfuhU0pn5uJGZBRNSphzr4rxsB48NxPtMmUkppA3U3RDZRXTdlHA8EyoFAqUhdXruXg/l9I23yLm/dz+75zaI84FjBfzhhWizoswD5XUL+JFb4PaTkJBeDS9lIXR1SuhxEgpYOqZMRIu0cj5OO8B3ECMlxDE0Yr5ZUQF7yjr03WW5C57pe6lEWjA9q+MVIGCW8bpVT30Wusup8rzxWP0i66bTbm1/E4DNwsulVOibjx80gzc9rfJwnL0LxAfVFs5Bibpo4JxBojAiUgtRF6P73pZgh3jqJCMzAsy+cJ5I/4DacM/jQqw5y6pg5I6NqPQ6/TzhxYWbRZSP1rO6NV0qCPvILxwgckNlChgueKpaLAAJWjHOZriAhoDl7csymDJX75pKHrsGUsVLwVh67b4emXNoPxs80RPjKxdfNoaCy3lWfDAGffcDYny+N3+8jQTu1tUAhz6JQQKfcWEb9gUBDIpCX1PWbkVOlwCmfmTmTYowEww6NWmzpHTzOx/GDF7ReR9o7jhgKBTEuSav8nrUFCPWLU+vCsGyknr0wXjgLdWbPnm06LtYI7cjnngMEGjXkjnVq27atET8yhJ/q+KyaujpYiuOaJnkPXZYzKw3peiJaBk8P/pBlRkrRjo2cT185pv1ufAxB0y4ZAR9LkMGR1005bgLJNVxbaaA+HYvv/Eo1eQmlwCrqCASqFYH6kno2hVqf/Tu/O37XyKZkqkHwSJ7aldHPiPU7R2rmhSQDoSO5oFBQF9mCcKNm7dqNtRhtvWKkjq5MgI6OE9XFU5cMIW8XkCB2LB3n48GjQYvUKyG3ZG9IEaxuCD8NypKvyNXr7vLaabskJHnO2QCwv7YMAGW0N44IXjeItLis3s952vmSv3U9lfdGxnsf1fpjjHYFAqVAoBSk7qXP7O9KadmQOdo6/+ExbaYnfoCgNeNHZkGVgA/FddoPSxv3FZJqF4RHxUgdkuG/NujKLk33soMCpoCGR6uskoYgdb/gqTYgvVHy8pCPfntyl9ctwtUUrTaC9dhowETQ/hp8x80imUbtzdarNnpDlZV9SvEjijoCgWpCIC+pexkzK2nSTz97h8hF7hC7ZBftDQOnyWnFS8db166qPt4lT39hctUrRuqe+IoZaJ3vrWEx5Up9jifpuqxjlqy97p0l2ELauSf5YvuRvYYnfRF/bcaw2L4V25Y4LxCoZgTKSeqe5DWDhohRHiB4JFYRO8eRRrUTrSRTL7GqPv2+fdvrwrhipF5XQ+J4IBAIBALlRKBSpO7jf4q5+Zm1YljaxLCQfJoHhyD1POhF2UAgEGg0CFSC1LMzcp8FqDiZZuTeMy+l/Bmk3mhuyWhoIBAI5EGg3KSebZuXjrl2NlHCy61eus3TR80I/IIma8ePxeTN5L1ylA8EAoFAoIIIVJrU6ZpfhyJvXB67p9lSJoGEp17BmyouFQgEAg2HQKVJXUTtU4+9d54l9VL50kHqDXePxZUDgUCggghUktSznrey+bye7gOqpYQhSL2UaEZdgUAgULUIVIrUC0kp8sJ9GnGW1EslwQSpV+0tGA0LBAKBUiLQkKS+oH6Uer1IkHop75qoKxAIBKoWgUqRutfNGwKMIPWGQD2uGQgEAhVHIEi94pDHBQOBQCAQKB8CQerlwzZqDgQCgUCg4ggEqVcc8rhgIBAIBALlQyBIvXzYRs2BQCAQCFQcgSD1ikMeFwwEAoFAoHwIBKmXD9uoORAIBAKBiiMQpF5xyOOCgUAgEAiUD4Eg9fJhGzUHAoFAIFBxBILUKw55XDAQCAQCgfIhEKRePmyj5kAgEAgEKo5AkHrFIY8LBgKBQCBQPgSC1MuHbdQcCAQCgUDFEQhSrzjkccFAIBAIBMqHQJB6mbD1ewfrmX2FntVXyqdrl6krUW0gEAg0IgSC1HMOVqHn7WU3g8/u+8vnxRdfPOnBrP5p3GqONwSlelJIzq5G8UAgEGgECASp5xykH374IUHASyyxhNUEoCLt2p6i7R/5JMLPNsM/kTtnE6N4IBAILEIIBKmXYLD1sFXvcfPd999/X0Pw/jIYAl4YAp7AnfXO+VyozhI0NaoIBAKBJo5AkHrOAc5q5yJkCB7y/u6772rIXZdCeoHQ5d1LXmEwJMuoHt5Dfsk5SFE8EFiEEAhSL8Fgy6uWZAKZf/755+mDDz5I7733Xvr000/T119/bd73kksumZZffvm06qqrprXXXjutssoqaZllljGP3UsuQeQlGJioIhBYBBEIUi/BoAMi/3l9++23RuRz5sxJr732Wvrss8/M05Z2DnlD+njk66+/ftpoo41S8+bNjdwhfJ0rUg9yL8EARRWBwCKEQJB6zsGWlw6QX3zxRXrjjTfSc889Z4QOga+11lppjTXWMO8c0kaOmT9/fnr33XfNe19uueVSixYtUsuWLdN6662Xll566RoDUSgrJmdzo3ggEAg0cQSC1Es0wJ988omR+dNPP22k3axZs7TtttuaFw5RQ+i88NIB/eOPP06zZ89OL7zwgpE7pL7zzjubJCMyrxYvnTYr6OvhYrbBfx/szcKZTe8sdDzbz2xev47XltNfaB1AxCJKdGNHNY0OgSD1nEMmT/2ll15KDz/8sEkvm222Wdptt92MoAmGcg5AQ34ibEjyyy+/TC+++GKaPHly+uijj9J2222XOnTokFZaaaWa4GgliV1ZOWqnJKVXXnklTZs2LWG4eEHkK6ywghkujBHxAV7ZTB6+ow7qlVHz/VcwmXcdBxfOBzeVJeagbCLO9cFkrvHNN9/Y+cyCJG2pDwpG+2GuJKY5b68oHggsNAJB6gsN2U8LQDYEQidMmJBmzJiR1l133bTLLruYVg7BLLXUUqarQ4zo7a1atTICg3QAn7J47FOmTDGPvUuXLmnrrbc2WabSaY0icZGzvPOnnnoqDRkyxAwQswnahcwEif785z9P+++/v5G84gEiV2X4cD5Y+DgB1wAPT9KcI8yU/y8Cpy3U5zOFRNwc4z9jAI6dO3dOO+20kw2U+uSJfEEzi5y3QxQPBBocgSD1nEMA+SChPPLII0bWkMkWW2xRo41DSvPmzUuTJk0yAu/Vq5cRtlaTMgAffvihEdKTTz5ppN+pUyfT4eXdV4qEslKJFlI9/vjjaejQoUa4xx57rM0kCASPGjXKjNNJJ51ksww8ZgwTpK4FWZC9Zit8z+yE88AFWYpjGD7q4TjHvvrqKyNpPHSw4p1yGAGlfXIufzNLoK73338/3Xffffa/R48ead99900rrrjiT1bt+plSzmGP4oFA1SIQpJ5jaCAugqMiZIgNLx3S81sBQDgTJ040HX2//fZLyy67rJGNyBoiw1t/4IEHjMT22GMP8/SlV1daLvAzBOAZN25c+tvf/mZt+/3vf2+ZOnPnzk3XXnuttfvXv/51atOmjcUUMF5vvfWW9Z94AnLSxhtvbOTNMWIOpHpC3Mg3GLAtt9zSRoHZzBNPPGGzAG5MZj277rqrzVxef/31dNVVVxm2tAMpCOLHK99+++1N+nrwwQetPRjVAw44ILVr185I388UJPPkGPYoGghUNQJB6jmGB/Ag7LFjx6Y333zTCGiHHXYwj126MNVDYtLN8SDxUL3sQD148/fcc0965513jNQhMmnJlc6CkYcunfyxxx4z+QUjc/rpp1smz8svv5xuv/12I+fjjz/esnyuuOIKI2SyeMAAI4bmDsFyHnVgDDbccEMjWki8bdu2aZ999jGCHj16tOFENhD4gS1/H3HEEVZvv379rCwSEG2cPn26vV9wwQV2HPzQ/jEwffr0Sdtss02NgdWshz7EKxBoyggEqecYXYjn1VdfNS8Rb5vgKF4nhCYS4RxIHU+dYCgEByny8rnryAt46niy3bt3N+OAR6oBKre37q/jF1PRTuSXK6+80gzOnnvuaQT8/PPPm9Sy++67GynTx1NOOcVkmJ49e5qkMmbMGPPa8eQJJF933XVGuH379jXDdv/991v/wI0UUDxxJJOjjz7avr/77rvt+9NOO82uOWDAAPO+OQ6GI0aMsDKcx8wGo4Ak1Lt3byN1ZkSSlCS90J9yY5njloqigUBuBILUc0AIYaMtQ07IC926dUubbLKJ1QiJ4BVyjjRzMmPwwll0pGwNnYdejMyBlIOkAKlrpWklvEt55578RIiQ+mWXXWYEi16N9EFbkT3w0iFU2g35ksaJp06/3377bdPBzzjjjPTMM8+khx56KO21115m2CB18EAbR1K566670iWXXGLSjoKcBGaRt4455hiTYgYOHGhGZdCgQUbYd9xxRzr77LPTLbfcYrEI9PSRI0emgw8+2GQucMPY0iefBROknuOmj6JVj0CQeo4hgriQEPBIAbJjx45p0003/ckCIogFEiQIindLABQyREaAtCWt4PWiJ0OgGIfWrVvXZMkUSsvL0exai/p8bwVyOXn8+PHpmmuuMW/55JNPNlll2LBhVk///v1NKpo6daodIxNGgWIIG/JGLoGAqQdSxpPG0+Y414H4b731VtPtSQfF8EHEXA+Pf/PNN7cgM9diZkCwlvKQ+bnnnmseOte89957a0iddmj1roysOh6kXo67J+qsFgSC1HOMBOChEROgQxPHw0bHhch8eh6kxQpSdGjkCAicICJkhQfK+ewVg4yAdwrx4XlCaD6gmqOpdRbNyjw+WProo4+aHk4my3nnnWeSBoRKvzFkyCnILyeeeKLJI8QNCIIyQ4GY6SfZQcOHDzcDgKeOR04sAsO24447pmeffdYCr3yPR77mmmsaphAzujzpooMHDzaMjzvuOCuHIfjDH/5g7cBI4qkjySAHIb8gXyklUv3xM5E6QYkTAoFGiECQeo5BgyjIQYf0kBcgNDxsn0rnH4YBcWMEZs2aZYSFDIMRWG211UyKwJuFxCF1PH6/YCdHM4sq6m8EFVDWCIFSPHNIElJfeeWVjYT5jlkIGjfEe/nll1t6J4YKSUWEjOSCp01aJNo68gyeNueSHYNXTSAV6QQZh+Orr766efLIWUgpzHJOOOEEI3U8dQweBH7RRRcZuWMsmA1hfJBm0PUJXBPAVf48/ap00Lko8OOkQKCECASp5wQTT3TmzJnmdZI+B7FDRJJMtOhGuzBClBAhWjxltY0AnijyBOTIAqR11lnnJ5t7VUIyyC524uag/aQJIgthZA488EDz2DFQpCjSbvqMxMJ5aO1IUsxGWFELaXMMPDgXiQltHmNHqiNBUqQT+sf34AietAVCRqoCD4wegdatttoqde3a1eojUwbvHKOCESRbBgkGA4CxhNjBUfKL5KVKYJnztorigUC9EQhSrzd0/ygIgEgPkBGkBJlAcnizfhm8X01JOe2zTnnS8SBNiAuSk7ev+ivlXWYNkDJ4IGhmJBAp8gjtof18j4eNFMLshPJk8RDc1MpQcPD7xnM+sgxGDm+cFwSvzc50LS0+wuOnfiQs6uY85CrKEwTFQHINvtPqXmZBGB7aqr3ruY5fO5Bz2KN4IFC1CASp5xwaAITgWHgDMfM3xI6HiaepfV+yqzUhJe3qyDJ8tHaySNq3b2/yhVZhVorQZUAkUfhcdbVBwVO9+1x8lYdEfcCV7yFobY2Q3dtFXrSGQVKJn9kUMo4iab/aVoaTdmkbAnBUFpJWuYannvOmj+JVjUCQegmGB7IgI4SFL2jrEDsyAZkceJFovGjIkAneJS/kC2QKdGU8dAwAHj7Ejl7spZBKbBPAjSBC9wSrPVh8wFYbf+k7EbHqUP696hPJcp5IXaTt6/VGQ3vjqC4ZEG8wuJ7fG4byPv1T15VBVb8qkSJagtsqqggE6oVAkHq9YPtXIRGGZBhIGr2chUYEFtHMkQIgdnn1kApETh4335EpwqIltHitNs16quX2LrOLj/is72RUpLFrcZU8eJGryF5E7MndzwRU94KW7GevjaGUsRP6PqMFY8HLbwWsOvyzYrM7POYc/igeCFQdAkHqOYfEyyqQGtozUgrZIWjlkIj0cy4FkfEd2jGBVbx5Uv4I6CkVslDaXblJXTB4YvbEqg23IEgZHsr43RTlmQsTkbrq8Zq9jzH4VZ9erpLRkNfuPXn9Ld3f46Ny6ouMiPZ/rxSWOW+tKB4I1AuBIPV6wfbvhTy5Q+J46qTvQfAQPYE+rWwEdPKwIfMNNtjAvHgvR8irraSerh7Jq/VetDxieeReZoE45bl7zVoySbYvIlh5/1ky9shms3H8rKiQzu+NQ9bg6Dq+XYoGmyUAACAASURBVCUa+qgmEKgqBMpJ6nTUy8GFMsq8U+c5LCuDCjSdI4euWKfLKwI1SsOPtV2lhEMEwaOfo6VzYQJ3kDgZHV4KKLYjJWxaVBUIBAJNEIFykrocN82e/UzZx+X831nSlmHwTpu4UM9YKIYPG4zU6QAX1wpTwNB+Lw3pkTfBezm6FAgEAv9MsxYpkvJL8gZxPj23QBlhSlIQJ0n29bNg/3fWs84mT4iQmbn7eJsneG3doeQKr3Do+sX62g1O6tm7TZ3i+2KsUtytgUAgEAgUg0A5PXVJL1niVeYZ3yPh+piZJ3DvtXtJVMS/MJl+DUbqXifyHfLabpB6MbdqnBMIBALFIFBuUqd+EaoSFiByfS9VgmN47X5mIK7LJjiorNa5FNPPBiN1yS/eI/fTkfDUixm+OCcQCASKRaCcpJ4NjELgxAyRedjfCQmG7xQ/JFOOGCIrzvlPmrdk52xdknOktdfV3wYldRF7ZGDUNUxxPBAIBPIiUE5Sp260eV6QOVuksOaGbD9WyJMQIvlFD57nfLbsIG2bRZakcivQKgOgOGOxero4VVmDFc1+kdXxVinklry3bZQPBAKB2hAoJ6lzTSQSCJxHeLIqHmLX6m2I3K8GlxSDDMM+Tmzyx0JL/uY7rTCXJs/nQut0CvW1Kjz1rNTiF8UE0cePNBAIBEqBQDlJHSLGQ+dB8Dwfgp1ReSGziM8ULNVGfRzX+hfkF3ZnZX0Oa3WkoSsDRw/OKQaHBif12hoZi2GKGb44JxAIBIpFIA+pZ/dk8ouH9DfPg2BhJRq6tufQAkTaWNtmfJJM2AcLj13PYVawNftAm7r6W7WkXlfD43ggEAgEAguDQLlIHRKFyHneAVugSCrhe22SB2GzyyyLK3lQPdKMz3SRYSBoyvOMeVCQvHy/aV8x/Q1SLwalOCcQCAQaPQJ5SN3nl/vFSJJQXn31VXvkJs9EULaKSBuSRVJhPytIHb0d8tf+UJJYFGzlEZQ8sYwgKmWRXhZmw70g9UZ/q0YHAoFAoBgE6kvqIulCK0ohUDJbWJ2Kns6GhARFOVcSDG3DU+fhN5AzxM++Vz6F22/qRxZMmzZtLCsmu9V2Mf0MUi8GpTgnEAgEGj0CpSJ16ePSvHlq2ZQpU0xW8ZKLJ3UtOKIsRiC7QlQ7p/I9+es8TAiPXYuUFCgtJnEkSL3R36rRgUAgECgGgTyk7r11ETcEDHGT9cIzhvHAeRVad4OUAkmTm45Uw7l47VqUBHlD7HyHlk56Y4sWLexvSB5DUAyhc/0g9WLuhjgnEAgEGj0CeUidzvssFD10Bg8aKWX8+PG2epSXrqMgKZ/JasH75sFATz/9tGXJINPIQ4e8IXhe6O4tW7Y0DR5C91t4FzMIQerFoBTnBAKBQKNHoFykDplPnDjRMmB4SR+HtLkm3vx6661nz2iG1HluM0FVjmUDoJxLzvoWW2xhxA7BQ9J6NnMxK0uD1Bv9rRodCAQCgWIQyEPqhYKlInA09cmTJ6f58+fX7O8iIlbAlG0AROrPP/+8ZcBo2wBtu6unwUH8rVq1qnmMJ7MBvPVGs/dLMYMR5wQCgUAgkBeBPKSuNEafziiShXRnzJiRXnvtNct+8efgYXOclMbtttvONu+aNm2anSuvWxkuInWdS167vH0tXCoGg/DUi0EpzgkEAoFGj0AeUlc6o+QS7YUub53gJ89fRopBH1cQFQ8bUsdTR1NHWiH9EU9deezUqbbxjpZOoBSP3T8wvhjphfYEqTf6WzU6EAgEAsUgkIfUqV8STHbxEfVC5njr7777bo2uTuBTOzdC0JtssomROl46e8MoT93nouPJQ/7NmjX7N0KP7JdiRjnOCQQCgUUGgVKQepbYRfbUjfdNVgvpisorl2cPcUPolNfCI2W/KJ+d4xA/XjqLleSlK689SH2RuVWjo4FAIFAMAnlIvbZtArzXTr46xI4njufO9ZR7DoHzguz5Ts8r1da8ZLmQIQOhr7HGGhZE1b7rWqUqaaWuvob8UhdCcTwQCASaBALlInXAoW609I8//tgWF82dO9f+/vLLL807V/aK35wLgoe42UOd4Chb77JAiRflkG6UPbMwuepB6k3ido1OBAKBQF0I1JfUsw+nyKY3itTxtnmRr45mzk6MSDF48EgokDgvyF9Ej1fOwqTVVlvNPHTq4DzlsMtjV+57XX2UN1+2Jx/VFq0tVhsqpgNxTiAQCAQCxSBQClIvtKmXvtP2AXyGmPG2IXjIHTkGGUUePStFIXIIfeWVVzZPnpeeeKQnJSlHnaBrgz/5iA56ED3ontSVGiQDIIBkcfw+CoUGLgxEMbdznBMIBAJ5Sb02QgdZr7l7pJXhAimLmPXcUQKhCoZqc7BSjFLZ5BeROu8eDJG1cjSzpJ19Oog/7j3/2kAsBShRRyAQCDQ9BBqC1D1nZfkry2HF5qHXNTJlI3XpTNqwJvtIJr/vQdZL10qtBXnh4aHXNbRxPBAIBLJes3gDOYRFQHPmzLGAJM4kkodPQdTDK3yGSyFvfUGeuue27GhkSbxUnFY2Ui/UYHnv6EboTQQQ0Jn4rKdqk59JIEE7nMmzF3Cl6njc7oFAILBoIdDQnrrQLjeHlY3UpSV5+UR7D7/33nvpzTfftCeFfPTRR6Y1QebkaZLSwztP/yCY4Lev9Hp7pQBatG776G0g0HQRaEhSz8YRvXcvxMWZeUegbKROw5BelIoDcfNkELadZMrDjmak+eChayMbPHeW07I5/Oabb5423XRT2zNBS239I5/Kbe3yAhvlA4FAoLoQaEhS95krtenspUKrrKQuXZ20Hoic3clYRgvBsySWjkLsWnWltB4IG8+dJbNsVwm5k7+pQQlCL9XwRz2BwKKDQEOSeqEsvqxEnX3EXX1HpmykrqmENrrhaR/a7EaeuUhfy2Epo+Wz0tnZLJ6HsG6wwQY1uZzS2QvJMfUFIk85ZfgUqsMPHH3CoPGdpCX6LMOm3FS/tNjnwHrJScHkQjdCoSwhj1mevkbZQKCxItAQpK7fXTZgWk7HtGykTsUkzs+aNcue34eGLrISmQOyiBxCw3vnaR+82EOB1VjIMRtttFHq0qWLSTE+gFpOYLI3bnZQ9Jl3NsnHYGHAMEosKuA/AV/6p3NeeOEFw4E+tG3b1pYG8xmMvvjiC+snCxHeeOONxF7KfOZ7Fi+Azfrrr1+zAEH7SujJ5b49upF4z077Cq0R4LxKYtlYSSHa3bgRqASpe8fLo7WgLJhSo1pWUmepLITOPsPo5ZAZpEfGi4hHJM2WkzvttJNtaAOJPfXUUxZIVRB19913T1tttZVtMi/vtFJEpKwd7zXzN98rNeq+++5LkDb7OPDUkvbt26ett97ayBhjRixh6NChRv7ISkceeaSR9l//+ld7agrlunXrZqR+yy23WPn999/f0q5GjRplMYaDDz7Y4gv+BtFeErSHv7lxtXmQjKdSszzxa+ArhWGpb9yoLxBYWAQaktQXtq15zi8bqSM1zJw5Mz300EM/ecwTJM4xraSCgJAi2BgeUqNBEDp7E+OpQ+oQD3sMQ3R4q9Le83R8YcpClh4o/Y2HjtGChOfNm2dxANqKnMKM44ADDjCC57z7778/XXfddWnbbbe1WQdPQeEFuVNun332MZmJ2MP555+f9txzz9S/f397luG9995rpA7J+5zZQrvAqW0c80uO5dFrV7jaZJ2FwSXODQQaEwJB6jlGC2JBNnj88cftP+QiskGSQHYgeMo5eN4Q3c4772xSC0/lhtAhSZ8Wuc4666Tu3btb0FTZMDmauFBF/bMEJadglNiNbciQIWnSpEnptNNOs7ZB6Hx+9NFHzRAdd9xxthUnXjqB4n333Td17tzZ+v3yyy+nU045xWYoffv2NUPArOaiiy5KPXr0SIcddpjNcN566y3z4MkKYuc3bb5Paihtwyhi7BR8po0YRGYRkDhBZuQgjIcyjvSYLMUDShWkWShg4+RAoIIIBKnnABvw2HoSLx1JQh4juedIKJAdXjxeKdtNQmqQ3GOPPZamTp1qnq1e2icB77xnz54maWgFWKWkAxkX/4QSyPKRRx5Jw4cPN8I9++yzLbeecwgK45WzwAqyHzFiRLrnnntMVoJcNeu4/fbb0/Tp063vfNe7d28zbJA6s5ZDDz00TZgwwWYCePYDBgwwj5+6IHJSRN9++20j9MGDB6d27doZgWNE8PbBF+OJMTjwwAMTEhb1aysGxTh8nCLHsEfRQKCqEQhSzzE8kAWpi2PGjLFAIOQLoJAxpIz8ID16lVVWsSvxhG08XBYjSWKQli3vGC93hx12MELjVQlSr01Ph7BvuummNHLkyNShQ4d08sknG6FyPmR6/fXXG7lfeeWVhgHEzPedOnWy8wmEIjP9+c9/Tq1bt0777befYYPcAiHvscce6aijjjLDiJcPYSPV3HnnnXbNHXfc0eqZPXt2uvbaa80gQPoQ9M0332wG56CDDjKMmPnwgtgpJwmMtvpAayXwzHFbRdFAIBcCQeo54IPUkRYgdbxGbRCPbIBXC7EgueA18mgngogQIHIBr0JyB3X+4he/MN0ZGaFSLy8BKdCI0UEWufHGG41k8YCRWRSQRJbhGDMP5Bn6jOcOiffp08eInT6Q4QNx77333hYExYvHM7/44otrvoPUb7jhBosn9OvXL+Hdjxs3zowAMxeM4aBBg0y+GjhwoEkzl156qZE553NtJLApU6YYqVNG4yFd3c9EKoVrXCcQqDQCQeo5EIeAScuD1PE8IQ9tlAPpQF6Qc/PmzU2mQUfGm/WrS32yvrI5ID956tLoczSzqKLKB/ftgbzx1G+77Tb7T19OPfVUaz/HkJzw1CFcCJpUzGHDhqWJEycasSKtoH9j+PC+IVqkFjJgCLxShvjBIYccYh43ZXfddVczAEg5Tz75ZE091IFHDi6QOnLLH//4R6sLSYcYBjINK3i5RteuXf9tu8/IhCnqVoiTGjkCQeo5BhDwSGfEy0Qz5qV0RnLXIXbkB8gdEiL4h44OcUq3zuZTQ4JeU+caxW4an6MrNemDqkOBRfqAxwzhQpznnnuubXhPu/GK8a4h+TPOOMPkIj5D2BAwpM533lPHq4aICRSjqSNRESgdO3ZsDakfffTR6dZbb7X68ew5B0kHQwGp47FjbCB1nkbesWPHmvRP2og3jyHlhaGUwco+HT0PXlE2EKhWBILUc4yMsl+QEpj6k5fuH7BKBoYyWETOlIHw9agnSFMyDE0htxvvldxuDITItdw6sIhP1/M54swukFUIXqJno4NjoO666y6Tk2gv5Es/yEcHjyOOOMJInf6T1YI3TqYL34vU//u//9vqwovHU0fCQVPHE4fU8fgxAsg+zApInUSXP/74461edHyCspA8uGE4kbbYLI2gqtJJ/V46YFxuLHPcUlE0EMiNQJB6TgghMqQXSAnygrB5Bh/ZLxCPUuqUeQFZQuSQOqSPFo9sgAfPYBAURFcmHVIEW6msDQVqs8/9gxRJUyRgitRC0Ffpm0gyeNB4xrT38ssvt0AwqYt77bWXaepIVJAzkggEzsyF2Q2aOKSOQXj44YctEErfIfXRo0ebVk/dvXr1Mk8dUsdTh9QhbRYzXX311TZT4Pq0iXUAyFe8e8z9MEdaY86bPopXNQJB6jmHByIjkwXvFOLDW2T/FhbVrL766jXSiV8dKm+ecwkqspqSXHakCspphaYCe37lZM7m1lrcB0q1itSvzCRgSmAUUkf64HwMD4uF6K+2CiCFk9WkkCqzDQwb/WQlKp8xdpAwMQb6TVnqwCBSN3WykImsIowdx/DCmRncfffdJv2Q9oi3T73UgQSGgaQNeOms1sXw1DbLCU+9XHdR1FsNCASpl2AU5K0jFxDQQxfHgyVwqFWaWvkoOQZiwWMnIwayhKTY1Av5AWKTt0zzKuFZ6kbQMnylAXJ9juk432uZvgKmfOZv9VVPgdJTViirxUD+MX58L81bRoX6wcivElUMAnmLvzmudtI+ZkdavauYhgyT0kypV0HsEgx5VBEIVC0CQeo5h0beLFouui+eKl4n5KU8c11C5OcJCw8dQsQjxRBoewDpwPIqK+ldipwlHUmHpg203ZOx16i9h59NH5RhEl6Ukycto+FJV/3VMaUnZiUi6hGhK3VR78Ldl6kkjjlvrSgeCNQLgSD1esH2r0I+wIhEQaYHqYu8Q9hKo1O2C8QF6HjpkD76MnIB/8nkELF5zzlLUjmbXGtxH1AU+UKYvESq3gsXWcrb9l6++iHCVX+8pKS6s4/0k9GQkeCzgsaaJciYaH8cLx+pgz7fXkbEG6Fy4Rj1BgINiUCQegnQ94TCIiP0YjJGCIKyNwnfIRHwH3JnmT0BRAgdnZm9UAiuQo4izWxOdSU8TNqnXPtCJOxz2UWYIlzJNN4Tl9SifnupRSRNeZ9q6NMPvZeu+mVI9K4sIr+QKzsb8LOEShnIEtxWUUUgUC8EgtTrBdtPC4lg5IVDzOi/bETFYhikGTRlvHPOIYAKsRPM42+W3WdJ23vqJWhiUVXIUxeBauWo93x9yqPXreWle49a5cFCC64KecxeqvH10x7+Q9xqk8rr2vLyMRxKYcxi50m+EsaxKLDjpECgTAgEqZcJWAUUJRd4L1dk59/L1IwGq1bk7El4YRvjc+XrKuuvV9e5cTwQaMoIBKlXYHS9p1jocuE9VmAQ4hKBwCKCQJB6BQY6SL0CIMclAoFAoEamlKOoJ5axeE9beRPbUiJDVjXIZpD5z1SedUAb0iFV3JH3Gsn1x7rYNm6SQCAQCAQaGQLhqTeyAYvmBgKBQCCwIASC1OP+CAQCgUCgCSEQpN6EBjO6EggEAoFAkHrcA4FAIBAINCEEgtSb0GBGVwKBQCAQCFKPeyAQCAQCgSaEQJB6ExrM6EogEAgEAkHqcQ8EAoFAINCEEAhSb0KDGV0JBAKBQCBIPe6BQCAQCASaEAJB6k1oMKMrgUAgEAgEqcc9EAgEAoFAE0IgSL0JDWZ0JRAIBAKBIPW4BwKBQCAQaEIIBKk3ocGMrgQCgUAgEKQe90AgEAgEAk0IgSD1JjSY0ZVAIBAIBILU4x4IBAKBQKAJIRCk3oQGM7oSCAQCgUCQetwDgUAgEAg0IQSC1Es0mHqGNU/X9s+z1mf/1G2O//DDD0lP8i5RE6q+mponfi+2mLUVHPjvMQOTvC/VqWuovoZ88nnePkX5QKBYBPz9/8knn6Rnnnkmvfjii2mppZZKiy++uP1fYokl7HcnDuJdvw/e9V+/Rx3z5/n26Lh+08W2tT7n0QbPsdQBt1jbfsweqc8VMuTkO0d1nrCyJKZjtQFVz+ZUbTHB7Q2gJ3q+z0vqtRlXjUXVghMNCwRKhIB3lD766KM0ffr0NHv27LTkkkva70vELt7xxO5/J57csyRfiNCzTlSJurPAarwhol8lJfUFkYa3XjUWZbHFzFvnZY35p/daCSAa8hqapdBf+g0evPKSufrkp54ea3/DLSpYN+Q4x7UbDgGROvf//Pnz07Rp04zU8c75zXlil7eud/FYltD1ffZ3Wui3VCJfuVYAff3iTtpls49SeurZzmW9UXmhnAfYfOZdIDfcLVC5KwsTEbkn9VIQe3YmpJubARfmi8qsqHKjGleqFgT8TFh89PHHH5un/sILL5j8ImIX78hL9+ReyEP3ZF/Igc0qFJXCRGoHfS+pp57tgEjLd96TPA35/vvva7xTgVgpIBrqOvRZN09W9/ZGrxTt0xj4QffeSCmuEXUEAtWEgGap+m1xv6OpP/vssz/R1Gvz1OX1FkPqhYi9tu/KjRH9RvWwdpfKU1ejs9MOEcp3332Xvvrqq/TNN9+kFVZYIS233HLp22+/NauZtYDlBqAh6xfw3nMuNdFmZ0iSuLyHXiqppyGxjGsHArUhkM1+mTFjRpozZ4556nVp6vqd1Ca/ZBWJuj6Xc5TkCEr1KCup+47inRKsIPr84Ycfpo022ihtscUW1tcsgOUEoBR116WV1aVVUx48eGHQdPMpml1X+WL6IM1e00oMqv6WBCNjWkx9cU4g0NgQ8MkHyC9kvywsqWf5Ket8FvqtVkqCKXTtmpl5KT11r+fKQ8dLBFSCFE8//bSR+wYbbJDat2+fmjVrZtFoXo0lUOplpUI3el0e8Ndff20YgM9qq61Wk1alOINupPr+iBgDZkRMOcF0lVVWMYyzxqiudtb3+lEuEGhIBHyAVJ42/IP8AqkXk/3ipWCvs4vUqyGlUW3Ruzx1+1wqUi8UoOM7yGXWrFlG6G+//bZ5qUsvvXTabLPNUrt27dK6666bll9++RqPXTdE1kBU4kbxGre/HkT+wQcfpHnz5llb119/fSNMziey/v7776fVV189rbXWWj/JYPFWW6T97rvvJqaCTAN32GEHI10ZwGxqo74XAat9WS1e16E8+M6dOzdNmTIlLbPMMobxGmus8W9BUt82TeEqgXFcIxCoBAI+npT11LOBUhG3T2/U78NLMIU8d0+uvl91zejzYuDrFz/U8EcpSF3TfXncTPf5j5cOoT/22GMmu0h2UINatmxpHvvGG29sBCQSox6fHVIKSaIYEAstDKIc2v/dd99t/1u1apWOOuooiwvQvzFjxqRbb7017bnnnql37941Cxb89TgPI8A7Efjrr78+rbzyylYPhkAGwnsZnrg1i8kGn2X4hDvtBGOmmhdffLEZn2OPPTZtsskm1i7p+ZJeKE8Z3jG0td2gxWAX5wQC1YRArCjNORpZSQIC+fTTT23KM2HCBCN0SB5yktzy5Zdf2t+Q5I477miSDMQCyUA+HBP5eN05Z1OLLu77RHB39OjRaeTIkWnbbbdNxx9/fFpxxRWtTxD9DTfckHr27JkOPfTQn+Sd0xdeyy67rJEt/Xn55ZfTZZddZoHiE0880SQYkboCmuCHkfOzFhkXrgk2PkoPllwDckbeYVZ0/vnnpxYtWqSTTjopNW/e3Nrqs2toC/3iRVtkmBuLDFb0QMaJiyQCQeo5h12eN0DyH0LHI33yySfTa6+9ZlKD3xJAudmQHh4vnuT2229v7xCM98wpR/2VzmX30zeR+ogRI9I222yTTj75ZJNhIOq77rorDRkyxEj9yCOPNEJFkoF40baph34hN/HdK6+8kq6++mrD5LjjjjP5CVnn1VdfTW+99ZaR8oYbbpi23HJLMxycB2lznFkPhg/MmN3gifMZwgZvDMYXX3xhctB9992XNt988zR48GALTL/33nt2DvIP7aA8pM+MQdNOP6Wr1Owo560XxQOBgggEqee8MUTmEAFE9/rrrxuhS0OH3PheYr7+Xnvttc17xcuE+LbaaisjOU/gXhKpFNF4WQPCg9TvvPPOdMsttxipn3766dZmDA6kfs0116S9997bPPXzzjsvPfHEE2nNNdc0bxuShpzx7pmVQOoYAYzCgAEDjJSvvfZam9HIO4fIO3fubIYCzZ0Zz9ChQ23GQ7nPPvssbbfddqlv374WbH7++efTVVddZcYBwuY4Y9C9e/d0wgknmBG46aab0uTJk608xM9199tvv9SlSxf7Lqsh5rwlongg0KAIBKnnhF9peprek92BZ8hnCIagHd6jJBhIHULs2rWrSQMQO4QGEeKpMyDamyGrc+dsatHFvdcKqY8aNcpIHfnlt7/9rbXXkzoEfNBBB5n3TSC0T58+ZgCYqVC2R48e6fDDD7fMF0gdokVTxzu/7rrrjIwhcrCA4AnucBxvGo380UcfTZtuuqnh8/jjj9vxww47zDz6Cy+8ME2dOjXtv//+5uVD8hibtm3bGqnj6V900UXW95///OdG/m+88UZq06ZN6tSpkxkOpTqG/FL0LRInVjECQeolGByRAlVJn8X7Y7r/wAMPmOeI16rcbP7+5S9/mbbeemvzGikvDR1ZRst5Ra6V8NKzWSXqizx1AqIQ9e9+97saSQmtHZL+xS9+kfbdd1/z4mfOnJl+85vfpN12281mK3jvkOVZZ51l78gveO/INQSRJ06caIROsBWDN3bsWJNP+EwdeOgvvfSSGRFwgtSRWjAckDrkT/bNueeea/n/7HPxP//zP4lA9MCBA63c5ZdfbrIYdXIuWOPlI8OAdTZaHymPJfhRRBUNhkCQek7ovaaupf94ngBLet29996b3nzzTfMYFRTkGJ4rWnM2KOgDepJsKrFfSTalUKSOkaEPf//7340ozzzzTJNf+B5ZZtiwYeYl77XXXulXv/qV5cNC4CJkgpaQ8p///Gcrh1SCxz1o0KB0//33m2ffq1ev1K1bNyPg8ePHp//93/9Nu+66q81m0NKZJTDTwavGUEDQGEVInbJ45RgPvHlInWsRfCZQSkrjI488ksaNG2flMKLrrbeeSS+tW7e2z35cKoF1zlsuigcCC0QgSD3nDeKDmSJCETOe+h133GEyg7R3NHY8RTxMgngQXaHFN34RQM4mFlW8EKkrzfLBBx+0VMR11lknnX322TXZL/QNsodgIWXkDvqKRNOhQwf7G4J95513LCMFY0c9GLJ+/fqZ/j5p0iQjbyQargcBUy+kSzD09ttvNwnmnHPOsetzHG+e88l1R/pBr//jH/9oeELql1xyiUlbZNhgQJB9GCcM0VNPPZUeeugh0+UPOeQQI3/1sxIzoqIGI04KBHIgEKSeAzxP4n4RjHKzWbSDpoynjhcP2HiCn3/+eTrmmGMsQ0Pyi8/C8IReKQlGm20pp1yLEpCKCHDikSOXnHbaaTbDQFJCksGD/vWvf23kSLbJc889Z0HTjh072t9XXHFFOvjgg01zRwv/29/+ZpIH8gtkjzSCYYPkV1ppJfPS8cYxEGDC+XjzEDVtGj58uK3QhZAxBsg/aOj9+/c3cieGwTmkip5yyimmsVMn8QCMD2268cYbDXvGABkma5grbVBz3oJRPBD4CQJB6jlvCJGuslr84hYC4RM+5QAAEktJREFUpniVeOyQH2BD4njr6NCQY3bhi9IJPZlXQuP1nrraoI23MEJ41JCn+kAWCX3dZZddTKvmb7JcIFEIlIVFeMh4x8ggZPcQOEWywVNnsRJkTqokpE0WCudSL3LKPvvsY9digROGkSAoWjzeP1IW1yTrhhTKCy64wM4l2Ex5jAJpohgTcMfbJ1iNp49h4T8zASQjLaTS/jDcDuGx5/xRRPEGRSBIPSf8hUhY03nIEIKBxOUNauEL+jSeqfRcv6LUL2OneZXSeWVIskFTPrPlAfni9Ic+8B0aN5IHZEqmD+TNxmUETQlaIrcQmORvpSPi4eOpQ9IYNLx1iJr6pZsTwISAuQZkjK4OkXM+dYIPxzkPbJBnmBXxom7GZNVVV7UYAJ+ZKdFuLYhCkqEsaaXg71+VMKA5b7koHgiEpv7PpBRtBljjlJZqmwCRIN465AOBQ3y8K2tDoyD9XMFU6e8QDaSlz1l9vhLeo3LUJT8oq0dSDP3DQPEZspRXC7B4v8gdBEpPPfVUC5Rqpaeeh6hcft5FpsqF12pRGQxhyHkcQwbib82E5FmTnaMFXkobVbv0PZ/pixaBaQEY7dAq34ZYExDcFAiUA4Hw1EuAqpa4Q2yQGnKLiEOevF8OrzQ6kaZf5Siy9PJLpQjdG55C8QJ9J8L1RgDZ44wzzjD9nVWnbKaFkdIWASJaGTr6JLL30pVuSGUSeZL3XrUwwfv2+eWa8ciCqx6VlQHWmGmcZEx99lEJbo2oIhCoOAJB6jkhV1461aChk3eNRqygqN7lucuzFOlQHo8WDRgiZOl6ISkmZzPrLF5IcvE7JHojo1RLT5SQJ/1GRyefHU2dfuA9i8BlFLxkJa9d2UG6ppdBhIffi502ULdmN9kO+odjqO1aJ6AxUfBacY2sUasTtDghEKhCBILUSzAoIil0ZVYrogPLexQReS8TklGWiQKP5E7zX/JCQ65uzMouIlzarf3J5aVzTH2DZHnJu/YavbxyBYz1mfO9gfOetqQqSViqV4Svzc+0A6MfShkpzlW7aLtiG16Lo/3eo6/EzKgEt11UEQgURCBIPeeN4SUIiEE7AkIMfudBXQYy8ZKEBiC7ilRerfTsnM2ss7gIWDJJ1jP3/cySpwK52aCx74NI1mfW6LjKS/P23/M3ZcDMS1Nqjw80++vxt+rTzMJnuKgdmk1wvgxppQLTdQ5KnBAI1AOBIPV6gOaLeHIQccnb1DRfnz2xeeLw0ofqzgYtczazzuJZUi9UQG3K6s6FpBufwSOPW165x0dGROd4ycd7zMIyi082v9/3Qze3UjN1fRkKr6/78VCguE7Q4oRAoAoRCFKvwkGJJgUCgUAgUF8EgtTri1yUCwQCgUCgChEIUq/CQYkmBQKBQCBQXwSC1OuLXJQLBAKBQKAKEQhSr8JBiSYFAoFAIFBfBILU64tclAsEAoFAoAoRCFKvwkGJJgUCgUAgUF8EgtTri1yUCwQCgUCgChEIUq/CQYkmBQKBQCBQXwSC1OuLXJQLBAKBQKAKEQhSr8JBiSYFAoFAIFBfBILU64tclAsEAoFAoAoRCFKvwkGJJgUCgUAgUF8EgtTri1yUCwQCgUCgChEIUq/CQYkmBQKBQCBQXwSC1OuLXJQLBAKBQKAKEQhSr8JBiSYFAoFAIFBfBILU64tclAsEAoFAoAoRCFKvwkGJJgUCgUAgUF8EgtTri1yUCwQCgUCgChEIUq/CQYkmBQKBQCBQXwSC1OuLXJQLBAKBQKAKEQhSr8JBiSYFAoFAIFBfBILU64tclAsEAoFAoAoRCFLPOSg//vhj4v9iiy1m/7MvjmVfhc7L2YxGUVw3m/ov3NR4YeWPq8x//Md/NIo+RiMDgYZGIEg95wh40s6SdSFC1+U8wS0qJO/7zN/CR4QtA+kJPFuGY4sKXjlvzSi+iCIQpF7GgfekLhKDkCCmRdkD9YTuZzhZA+nJm2OUC1Iv4w0bVTcJBILUcw5jIcmgUJUAzUukLq9U3y0K3qewys5SasMQTBY0E8o5dFE8EGiSCASp5xxWkTUepIjaa+wc5//iiy9eo7vL46xLj8/ZtKosniVpeeBeR6fh8sh1/oLiFlXZ0WhUINBACASp5wQ+S+pZL5TPP/zwg5E6Lx3X52ywMGdzGk1x9dvPWDw+kmWyZL8ozGgazSBGQ6sSgSD1nMPipQP/9/fff5++/PLL9MUXX9j/b7/9tobcV1hhhbT88sun5ZZbLi211FKLpE6clVwwfJrB+FmP5Kos4ecctigeCDRZBILUSzC0WW/7u+++Sx999FF6+eWX02uvvZY++OADI3jOW3bZZdOKK66Y1lxzzdSiRYvUvHnzBMkvCil7nsj9jAYD+Pnnn6fPPvvMjNwqq6ySllxySSN5XpKuSjBUUUUg0OQRCFIvYoiz3niWxL0kAKG/++676ZlnnkkvvPBCev/9981D92Xw2pdZZpm08cYbp1atWqUtttgirbzyyj8h9mxOdxHNLPkp6vf8+fPTiy++aH2RLEJ7MUjrrLOO9YXvfXZKNl6QTe8EE3nh4DFr1qw0adKktNJKK6Vu3bql1VdfvWCWUCFN3gdUsznw2esCUlbS0SxAkljJgYwKA4EKIhCkXgfYPvipVES+k0QgYhJx45U/+eSTaerUqeadQxRePwbwJZZYouaqa6+9dtp5553T1ltvbR68CCpL6g3hyavvEyZMSH/961/T008/bSSON01bt9pqq7TbbrulNm3amJwEBrRT2OhzVgfns0gdILjOvffemy699NLUsmXLdOaZZ6a11lqrhtQVNBUmalcWWz+U3qjo+0L6vAK1nMO4hGZfQfaJS5UFgYYk9WJ+P4UcrfoA4Xm4hi9/LKJ2SQCqgItDSPL4FAiFwN977z2TXPA6582bZ+dBFJASJIj08s477xiJQUgieDz2Dh06pE022cTOL6TTV8KLzOrc+jxu3Dgj9Q8//DAdeOCB1g9kpZkzZ1qb+/fvn5o1a2bt/uabb0xGYXCXXnppO9cTPV75119/bTEGjhNX4DV69Oh0ySWX2KzlvPPOMwmGWQ/SDOfR/6+++soMCp+5Fsc+/fRTOxfciF0o24jj4I/nz/kaR0k9HGOGoVmGcI88+Pr8vKJMNSEQpF7HaHhS9wuH+B7igEgg87feeivNmTPHpBeIQ//RhiEdvFq8cmSZV155xQhLVg3Cb9euXdphhx1qZBjVr2sWYwHz3lgLIvVrr73WdO5zzz3XiPi5555LN910kxH24MGDTUoCBwwaGFAXhMoMZKONNjIy5nswevvtt42g6TfHN9hgg/TAAw+kCy+80HD6/e9/n5B8wBSZZ8sttzTN/fHHH7dzt9tuOyP52bNnJ2YR++23n7Vp+vTpJhGpHxgYrv2zn/3MxoA4B2W4vkh9/fXXt/ppqw/U5sUyygcCDYVAkHoRyGuK7lc/UgxCf/XVV9NTTz2VXnrpJSMqSA6vT978aqutZqSy/fbbW0AUT/2JJ56w8yURQJaQ4jbbbGMkBMFIWuC9Ul66ZKKsRo2nDqlDkscee6z1j3gBEtOGG26Y+vbtm+jnqFGj0pgxY4ysqQuC7dKli3n3kO7tt9+exo4da9iABZ7/TjvtlHr27JlmzJhRQ+pHHHFEeuihh4x8O3funPbff3+71gknnJB23333NHDgQPOwb7vtNvPuMS6Q9g033GD1IN0gB73xxhs2UzjkkENsJoRBHTlypBkI2sNsivejjjrK2qGZU0NIXUXchnFKIFAUAkHqRcAk8uXHjgeuHz1Sy2OPPWbeKUBCNBAW5A6ZMO0nELrLLrsY0fBCpoHM7rjjDvNs8dghSYh9jTXWSOutt555q3ik1AHBNjSp00f0brzctm3bmhf9+uuvp8022yz169fPCJM2DhkyxPrevXt3+/z3v/89ffzxx+mkk04ykv/Tn/5k+FEGbxuSh7gharz4K664Iq277roJ7xly7tGjhxkMcGFmQDk0/OOPP95Im/JnnHFGuueee+wcSB1sDz74YJsBYGAwRuDfp08fMwxTpkxJe++9t3nnzA4oe9BBB6VDDz3Uxk7EXomZURG3XpwSCCw0AkHqdUAmbVa6MCQsfZdsjfHjx5vH7hfLiOBbt26dOnXqZATkvT/qhMwefvhh06YheggFYof0IPT27dubvizNt9zeow8sZj11SP2qq64yzxsCxBOHdKdNm5bo46BBg9Kqq66aPvnkE+sPHjC6OjMYyP+//uu/TPq4+OKL7fwBAwbY+XPnzrU6Se+EcP/yl79Y+idYkAFz9NFHGwbo73jZzBLw/PHYwfTGG280/R3yJoBLG/HCKYcxZTbxm9/8xmYTeP9cD0PDTEgxDIwthkRB0tDUF5pDokCVIRCkXsSASFf3ZIeX/eijj1pGiIKmvEPKkDOBQzRySAPSYpqv7BlIj/8Q3vPPP29/6xhGg/KQGR4mueyVysooFKClz8gveOHo4uecc47NIN588800bNgw87BPP/10864JpqKDIyVJd8dzlkYOaRM7OPLII41YIWsFP/Gazz//fCNldHTww3uGxLkuOCOT7LHHHmYUkG/w1KkbSYV4BSRPH/DUme3Qxl/96lcmDWEQSJPEEBPTwHiAOwYUQ4Xnrgwm8A9PvYgfRpxSlQgEqRcxLFlNHdAgDEidDBDp31TlUx3xspFTunbtaiQFOUNaI0aMMFLBAEBq2kYAzRoCo35ID1JH68UrrcTLJwN5fZ1+Xn311dZPSBTChsxvvvlmI8gTTzzRjNepp55qHjOBS4j/kUcesfz23/72t0a2eOoQ62GHHWY57sQV6DMZNBMnTkwXXHCBec1485MnT7ZYxC9/+cu0+eabm8SF/IL8gydOG9DwMQR33323yS/Dhw+3bJgDDjjAymIwOU75ww8/3HDF6NAGDAqaPCQP4UPsmo2Ft16Juy2uUS4E/Kwb+fPZZ5+1BAWtXleczt/v+tsrDtm/xW+8ix/4m98VXIZDKglTxyUtKwtQ/FiqvsvRruGrYlIaBZD3xj2pQxzeq6PRdIxO8g6ZEwjEe8UDRJbAwyVgqgwYygC0pB0+cy6e/q677mokVO6XCF0GzA8gpH7llVeaIerVq5fFCvByuVEgcwgTkj3rrLOMLDt27GjtR79mRvOHP/zByH7o0KEmiaB349mjk2P00OC58SB9CJhAKMFkDCYBZgKlpEHidYMNmHCDkvmCJg6p0w7Vj3RFwBlDgdGhzXj8yEXUSy48RpNgLIFuNHr0e3no5Za6yj2WUf+iiYAnc6kLODlIl8T/+M0om06c4wnek7h+/+I2HfPpyVxDKcxIr3AbTqrInXPhBeRafm/8x9nz63TqO1JqT5avFoPUacCCXkotlPemSvBU0YGVxeKJXeBC6sgC6OqQGKSB/o6HCdnJQ5eVgRCpB/D5jwTDwh4yO8r98lM2XUv9oJ945dwcSCMMDLMHpAvkFNrIzUHwlzgB5ZCc6A+xA+QZPGdIHAOB1w3uyCJ77rmnlccA4GnjtUOy4Hv//febFk+Qk++RaMieoV5uELCiHMYA44AMg9EQztxgBGQJjFKeYxgBiFwBao737t3bZgh+llVuvKP+QKDUCGiNhp9pogxw3yP18rvQMZGztuDQ9z7DL0vyfOYa1EM5HC0cPX6r/E75LC4Td/CutG5+Y5Ki8/bdk7quZX354YcffiR4VtuLglqUIsAgYk1j0IsBTWD5ekT+gAUBUg8XxcsFBIEIuajjnliVQQOhl3rKUqi/WgylXG1ZeggcK4wR0hQLy0u7OUb7hBPHkTeoS9aYfuClcy5kjGXHsKl/EDvnckNwHfrK4FMXlp/vZeUpxwyBOsCcceA7zuczWTmcT3sozzvauzwEPnPzcR5tRB6TAVXMgzZWKoaR98aO8oGAEODe9vsl6f7n98RvhGQM7nV/vtSHbKp2oXP4Dp7id8t1+O3w4rfId8oa4zO/Ic7hd8T3UiD4jcED4pa8oydH+idJHnjquoAWC4mw67pgVsup63wPlNeuayvng5aFzqHdIqBSTGcWZNg8aHX102tt2XMhXMiUAS/Hqy7M/jUD+cdGYSn9+I9/P/5f4vGyPya+55t/HPvmm69RDNMPS76X3v/+gTT/+/Hpmx/nlaPppanzx/+zti+2WP2f57rEYsulrZc+P628xLaladMCalnY31zZG1TLBa598IN0x6SP/+1ot1YrpeN6rJmWXrL+eJe7T5Cs5NxSXGtBv+9//b7+8czm+rxoLy+c3/q8/h+rzYXtgWDOPwAAAABJRU5ErkJggg==;" vertex="1" parent="1">
          <mxGeometry x="18.06" y="220" width="121.94" height="170" as="geometry" />
        </mxCell>
        <mxCell id="FYxI648YfG9HQdf40o8M-12" value="&lt;b style=&quot;font-size: 10px&quot;&gt;&lt;font style=&quot;font-size: 10px&quot;&gt;&lt;font&gt;&lt;font style=&quot;font-size: 12px ; line-height: 100%&quot;&gt;MainActivity.kt&lt;/font&gt;&lt;br&gt;&lt;/font&gt;&lt;font style=&quot;color: rgb(108 , 118 , 125) ; font-size: 10px&quot;&gt;Colocar opcion drawer como contenedor principal&lt;/font&gt;&lt;/font&gt;&lt;/b&gt;&lt;br style=&quot;font-size: 14px&quot;&gt;&lt;pre style=&quot;background-color: rgb(255 , 255 , 255) ; font-family: &amp;#34;consolas&amp;#34; ; font-size: 8px&quot;&gt;&lt;pre style=&quot;font-family: &amp;#34;consolas&amp;#34; ; font-size: 10px&quot;&gt;&lt;pre style=&quot;font-family: &amp;#34;consolas&amp;#34; ; font-size: 8px ; line-height: 100%&quot;&gt;&amp;lt;&lt;font color=&quot;#000080&quot;&gt;&lt;b&gt;androidx.drawerlayout.widget.DrawerLayout&lt;br&gt;...&lt;br&gt;&lt;/b&gt;&lt;/font&gt;androidx&lt;span style=&quot;font-family: &amp;#34;consolas&amp;#34; ; color: rgb(0 , 0 , 255) ; font-weight: bold&quot;&gt;:fitsSystemWindows&lt;/span&gt;&lt;span style=&quot;font-family: &amp;#34;consolas&amp;#34; ; color: rgb(0 , 128 , 0) ; font-weight: bold&quot;&gt;=&quot;true&quot;&lt;/span&gt;&lt;span style=&quot;font-family: &amp;#34;consolas&amp;#34;&quot;&gt;&amp;gt;&lt;br&gt;&lt;/span&gt; &amp;lt;&lt;span style=&quot;white-space: normal ; color: rgb(0 , 0 , 128) ; font-weight: bold&quot;&gt;androidx.constraintlayout.widget.ConstraintLayout &lt;/span&gt;&lt;span style=&quot;white-space: normal ; color: rgb(0 , 0 , 128) ; font-weight: bold&quot;&gt;... &lt;/span&gt;&lt;span style=&quot;white-space: normal&quot;&gt;&amp;gt;&lt;br&gt; &lt;/span&gt; &amp;lt;&lt;span style=&quot;white-space: normal ; color: rgb(0 , 0 , 128) ; font-weight: bold&quot;&gt;include &lt;/span&gt;&lt;span style=&quot;white-space: normal ; color: rgb(0 , 0 , 128) ; font-weight: bold&quot;&gt;...&lt;/span&gt;&lt;span style=&quot;white-space: normal ; color: rgb(0 , 128 , 0) ; font-weight: bold&quot;&gt; &lt;/span&gt;&lt;span style=&quot;white-space: normal&quot;&gt;/&amp;gt;&lt;br&gt; &lt;/span&gt; &amp;lt;/&lt;span style=&quot;white-space: normal ; color: rgb(0 , 0 , 128) ; font-weight: bold&quot;&gt;androidx.constraintlayout.widget.ConstraintLayout&lt;/span&gt;&lt;span style=&quot;white-space: normal&quot;&gt;&amp;gt;&lt;br&gt;&lt;/span&gt; &amp;lt;&lt;span style=&quot;white-space: normal ; color: rgb(0 , 0 , 128) ; font-weight: bold&quot;&gt;include &lt;/span&gt;&lt;span style=&quot;white-space: normal ; font-weight: bold&quot;&gt;&lt;font color=&quot;#660e7a&quot;&gt;...&lt;/font&gt;&lt;/span&gt;&lt;span style=&quot;white-space: normal&quot;&gt;/&amp;gt;&amp;nbsp;&amp;nbsp;&lt;/span&gt;&lt;pre style=&quot;font-family: &amp;#34;consolas&amp;#34;&quot;&gt;&amp;lt;/&lt;span style=&quot;color: #000080 ; font-weight: bold&quot;&gt;androidx.drawerlayout.widget.DrawerLayout&lt;/span&gt;&amp;gt;&lt;/pre&gt;&lt;/pre&gt;&lt;/pre&gt;&lt;/pre&gt;" style="html=1;shadow=0;dashed=0;shape=mxgraph.bootstrap.rrect;rSize=5;strokeColor=#DFDFDF;html=1;whiteSpace=wrap;fillColor=#ffffff;fontColor=#000000;verticalAlign=top;align=left;spacing=20;fontSize=14;" vertex="1" parent="1">
          <mxGeometry x="520" y="290" width="310" height="150" as="geometry" />
        </mxCell>
        <mxCell id="FYxI648YfG9HQdf40o8M-14" value="" style="shape=image;verticalLabelPosition=bottom;labelBackgroundColor=#ffffff;verticalAlign=top;aspect=fixed;imageAspect=0;image=data:image/svg+xml,PHN2ZyB4bWxuczpjYz0iaHR0cDovL2NyZWF0aXZlY29tbW9ucy5vcmcvbnMjIiB4bWxuczpkYz0iaHR0cDovL3B1cmwub3JnL2RjL2VsZW1lbnRzLzEuMS8iIHhtbG5zOmlua3NjYXBlPSJodHRwOi8vd3d3Lmlua3NjYXBlLm9yZy9uYW1lc3BhY2VzL2lua3NjYXBlIiB4bWxuczpyZGY9Imh0dHA6Ly93d3cudzMub3JnLzE5OTkvMDIvMjItcmRmLXN5bnRheC1ucyMiIHhtbG5zOnNvZGlwb2RpPSJodHRwOi8vc29kaXBvZGkuc291cmNlZm9yZ2UubmV0L0RURC9zb2RpcG9kaS0wLmR0ZCIgeG1sbnM6c3ZnPSJodHRwOi8vd3d3LnczLm9yZy8yMDAwL3N2ZyIgeG1sbnM9Imh0dHA6Ly93d3cudzMub3JnLzIwMDAvc3ZnIiB4bWxuczp4bGluaz0iaHR0cDovL3d3dy53My5vcmcvMTk5OS94bGluayIgdmVyc2lvbj0iMS4xIiBpZD0ic3ZnMzYxNDQiIGlua3NjYXBlOnZlcnNpb249IjAuOTIuMyAoMjQwNTU0NiwgMjAxOC0wMy0xMSkiIHNvZGlwb2RpOmRvY25hbWU9InRhYmxldC5zdmciIHg9IjBweCIgeT0iMHB4IiB2aWV3Qm94PSIwIDAgNzcuNjggNTMuMzciIHN0eWxlPSJlbmFibGUtYmFja2dyb3VuZDpuZXcgMCAwIDc3LjY4IDUzLjM3OyIgeG1sOnNwYWNlPSJwcmVzZXJ2ZSI+JiN4YTs8c29kaXBvZGk6bmFtZWR2aWV3IGJvcmRlcmNvbG9yPSIjNjY2NjY2IiBib3JkZXJvcGFjaXR5PSIxIiBmaXQtbWFyZ2luLWJvdHRvbT0iMCIgZml0LW1hcmdpbi1sZWZ0PSIwIiBmaXQtbWFyZ2luLXJpZ2h0PSIwIiBmaXQtbWFyZ2luLXRvcD0iMCIgZ3JpZHRvbGVyYW5jZT0iMTAiIGd1aWRldG9sZXJhbmNlPSIxMCIgaWQ9Im5hbWVkdmlldzM2MTQ2IiBpbmtzY2FwZTpjdXJyZW50LWxheWVyPSJzdmczNjE0NCIgaW5rc2NhcGU6Y3g9IjUxLjc4NTEyMSIgaW5rc2NhcGU6Y3k9IjM1LjU3OTkwMiIgaW5rc2NhcGU6cGFnZW9wYWNpdHk9IjAiIGlua3NjYXBlOnBhZ2VzaGFkb3c9IjIiIGlua3NjYXBlOndpbmRvdy1oZWlnaHQ9IjEwMTciIGlua3NjYXBlOndpbmRvdy1tYXhpbWl6ZWQ9IjEiIGlua3NjYXBlOndpbmRvdy13aWR0aD0iMTkyMCIgaW5rc2NhcGU6d2luZG93LXg9Ii04IiBpbmtzY2FwZTp3aW5kb3cteT0iLTgiIGlua3NjYXBlOnpvb209IjExLjg1MDc0MyIgb2JqZWN0dG9sZXJhbmNlPSIxMCIgcGFnZWNvbG9yPSIjZmZmZmZmIiBzaG93Z3JpZD0iZmFsc2UiPiYjeGE7CTwvc29kaXBvZGk6bmFtZWR2aWV3PiYjeGE7PGcgaWQ9ImczNjE0MiIgdHJhbnNmb3JtPSJ0cmFuc2xhdGUoLTAuNzUsLTAuNzUwMDYxNzkpIj4mI3hhOwk8dGl0bGUgaWQ9InRpdGxlMzYxMjciPlBhZ2UtMTwvdGl0bGU+JiN4YTsJPGcgaWQ9Imdyb3VwMzI1MC0xIiB0cmFuc2Zvcm09InRyYW5zbGF0ZSgxLjUsLTEuNSkiPiYjeGE7CQk8dGl0bGUgaWQ9InRpdGxlMzYxMjkiPlRhYmxldDwvdGl0bGU+JiN4YTsJCTxnIGlkPSJzaGFwZTMyNTEtMiI+JiN4YTsJCQk8dGl0bGUgaWQ9InRpdGxlMzYxMzEiPnJlY3QxNTUxMDwvdGl0bGU+JiN4YTsJCQkmI3hhOwkJCQk8cGF0aCBpZD0icGF0aDM2MTMzIiBpbmtzY2FwZTpjb25uZWN0b3ItY3VydmF0dXJlPSIwIiBzdHlsZT0iZmlsbDojRkZGRkZGO3N0cm9rZTojNTU2QThBO3N0cm9rZS13aWR0aDoxLjU7c3Ryb2tlLW1pdGVybGltaXQ6MzsiIGQ9IiAgICAgTTAsNTIuODZjMCwxLjExLDAuOTgsMi4wMSwyLjE4LDIuMDFINzRjMS4yLDAsMi4xOC0wLjksMi4xOC0yLjAxVjUuMDFDNzYuMTgsMy45LDc1LjIsMyw3NCwzSDIuMThDMC45OCwzLDAsMy45LDAsNS4wMVY1Mi44NnoiLz4mI3hhOwkJPC9nPiYjeGE7CQk8ZyBpZD0ic2hhcGUzMjUyLTQiIHRyYW5zZm9ybT0idHJhbnNsYXRlKDIuNzIwNjQsLTIuODk4NTEpIj4mI3hhOwkJCTx0aXRsZSBpZD0idGl0bGUzNjEzNiI+cmVjdDE1NTEyPC90aXRsZT4mI3hhOwkJCTxyZWN0IGlkPSJyZWN0MzYxMzgiIHg9IjAiIHk9IjguNjIiIHN0eWxlPSJmaWxsOiNFNUU1RTU7IiB3aWR0aD0iNzAuMTkiIGhlaWdodD0iNDYuMjUiLz4mI3hhOwkJPC9nPiYjeGE7CTwvZz4mI3hhOzwvZz4mI3hhOzwvc3ZnPg==;" vertex="1" parent="1">
          <mxGeometry x="320" y="240" width="78" height="53" as="geometry" />
        </mxCell>
        <mxCell id="FYxI648YfG9HQdf40o8M-15" value="" style="shape=mxgraph.mockup.containers.marginRect;rectMarginTop=10;strokeColor=#666666;strokeWidth=1;dashed=0;rounded=1;arcSize=5;recursiveResize=0;" vertex="1" parent="1">
          <mxGeometry x="210" y="210" width="270" height="200" as="geometry" />
        </mxCell>
        <mxCell id="FYxI648YfG9HQdf40o8M-16" value="Componentes" style="shape=rect;strokeColor=none;fillColor=#008cff;strokeWidth=1;dashed=0;rounded=1;arcSize=20;fontColor=#ffffff;fontSize=11;spacing=2;spacingTop=-2;align=left;autosize=1;spacingLeft=4;resizeWidth=0;resizeHeight=0;perimeter=none;" vertex="1" parent="FYxI648YfG9HQdf40o8M-15">
          <mxGeometry x="5" y="5" width="90" height="20" as="geometry" />
        </mxCell>
        <mxCell id="FYxI648YfG9HQdf40o8M-17" value="&lt;font style=&quot;font-size: 10px&quot;&gt;&lt;font color=&quot;#0085fc&quot;&gt;java&lt;/font&gt; / &lt;font color=&quot;#0085fc&quot; style=&quot;font-size: 10px&quot;&gt;ui&lt;/font&gt; / MainActivity.kt&lt;br&gt;&lt;/font&gt;" style="html=1;shadow=0;dashed=0;shape=mxgraph.bootstrap.rrect;rSize=5;strokeColor=none;strokeWidth=1;fillColor=#E9ECEF;fontColor=#6C757D;whiteSpace=wrap;align=left;verticalAlign=middle;spacingLeft=0;fontStyle=0;fontSize=14;spacing=10;" vertex="1" parent="FYxI648YfG9HQdf40o8M-15">
          <mxGeometry x="30" y="40" width="220" height="20" as="geometry" />
        </mxCell>
        <mxCell id="FYxI648YfG9HQdf40o8M-19" value="" style="html=1;aspect=fixed;strokeColor=none;shadow=0;align=center;verticalAlign=top;fillColor=#3B8DF1;shape=mxgraph.gcp2.files;fontSize=11;" vertex="1" parent="FYxI648YfG9HQdf40o8M-15">
          <mxGeometry x="5" y="40" width="20" height="19.4" as="geometry" />
        </mxCell>
        <mxCell id="FYxI648YfG9HQdf40o8M-20" value="&lt;font style=&quot;font-size: 10px&quot;&gt;&lt;font color=&quot;#0085fc&quot;&gt;res&lt;/font&gt; / &lt;font color=&quot;#0085fc&quot;&gt;drawable&lt;/font&gt;&amp;nbsp;/ activity_main&lt;br&gt;&lt;/font&gt;" style="html=1;shadow=0;dashed=0;shape=mxgraph.bootstrap.rrect;rSize=5;strokeColor=none;strokeWidth=1;fillColor=#E9ECEF;fontColor=#6C757D;whiteSpace=wrap;align=left;verticalAlign=middle;spacingLeft=0;fontStyle=0;fontSize=14;spacing=10;" vertex="1" parent="FYxI648YfG9HQdf40o8M-15">
          <mxGeometry x="30" y="70" width="220" height="20" as="geometry" />
        </mxCell>
        <mxCell id="FYxI648YfG9HQdf40o8M-21" value="" style="html=1;aspect=fixed;strokeColor=none;shadow=0;align=center;verticalAlign=top;fillColor=#3B8DF1;shape=mxgraph.gcp2.files;fontSize=11;" vertex="1" parent="FYxI648YfG9HQdf40o8M-15">
          <mxGeometry x="5" y="70" width="20" height="19.4" as="geometry" />
        </mxCell>
        <mxCell id="FYxI648YfG9HQdf40o8M-53" value="&lt;font style=&quot;font-size: 10px&quot;&gt;&lt;font color=&quot;#0085fc&quot;&gt;res&lt;/font&gt; / &lt;font color=&quot;#0085fc&quot;&gt;drawable&lt;/font&gt;&amp;nbsp;/ menu_lateral&lt;br&gt;&lt;/font&gt;" style="html=1;shadow=0;dashed=0;shape=mxgraph.bootstrap.rrect;rSize=5;strokeColor=none;strokeWidth=1;fillColor=#E9ECEF;fontColor=#6C757D;whiteSpace=wrap;align=left;verticalAlign=middle;spacingLeft=0;fontStyle=0;fontSize=14;spacing=10;" vertex="1" parent="FYxI648YfG9HQdf40o8M-15">
          <mxGeometry x="30" y="100" width="220" height="20" as="geometry" />
        </mxCell>
        <mxCell id="FYxI648YfG9HQdf40o8M-54" value="" style="html=1;aspect=fixed;strokeColor=none;shadow=0;align=center;verticalAlign=top;fillColor=#3B8DF1;shape=mxgraph.gcp2.files;fontSize=11;" vertex="1" parent="FYxI648YfG9HQdf40o8M-15">
          <mxGeometry x="5" y="100" width="20" height="19.4" as="geometry" />
        </mxCell>
        <mxCell id="FYxI648YfG9HQdf40o8M-22" value="&lt;b&gt;&lt;font&gt;&lt;font style=&quot;font-size: 12px&quot;&gt;Secuencia de Pasos:&lt;br&gt;&lt;/font&gt;&lt;font style=&quot;font-size: 10px ; color: rgb(108 , 118 , 125)&quot;&gt;Descripcion / Detalle&lt;/font&gt;&lt;/font&gt;&lt;/b&gt;&lt;br style=&quot;font-size: 14px&quot;&gt;&lt;pre style=&quot;background-color: rgb(255 , 255 , 255) ; font-family: &amp;#34;consolas&amp;#34; ; font-size: 8px&quot;&gt;&lt;pre style=&quot;font-family: &amp;#34;consolas&amp;#34; ; font-size: 10px&quot;&gt;&lt;pre style=&quot;font-family: &amp;#34;consolas&amp;#34; ; font-size: 8px ; line-height: 100%&quot;&gt;1. Crear el proyecto&lt;br&gt;2. Cambiar el tipo de drawer para activity_main.xml&lt;br&gt;3. Crear otro layout menu_lateral.xml, diagramar&lt;/pre&gt;&lt;/pre&gt;&lt;/pre&gt;" style="html=1;shadow=0;dashed=0;shape=mxgraph.bootstrap.rrect;rSize=5;strokeColor=#DFDFDF;html=1;whiteSpace=wrap;fillColor=#ffffff;fontColor=#000000;verticalAlign=top;align=left;spacing=20;fontSize=14;" vertex="1" parent="1">
          <mxGeometry x="520" y="120" width="310" height="150" as="geometry" />
        </mxCell>
        <mxCell id="FYxI648YfG9HQdf40o8M-23" value="&lt;b&gt;&lt;font&gt;&lt;font style=&quot;font-size: 12px&quot;&gt;Comandos Utiles&lt;br&gt;&lt;/font&gt;&lt;font style=&quot;font-size: 10px ; color: rgb(108 , 118 , 125)&quot;&gt;Descripcion&lt;/font&gt;&lt;/font&gt;&lt;/b&gt;&lt;br style=&quot;font-size: 14px&quot;&gt;&lt;pre style=&quot;background-color: rgb(255 , 255 , 255) ; font-family: &amp;#34;consolas&amp;#34; ; font-size: 8px&quot;&gt;&lt;pre style=&quot;font-family: &amp;#34;consolas&amp;#34; ; font-size: 10px&quot;&gt;&lt;pre style=&quot;font-family: &amp;#34;consolas&amp;#34; ; font-size: 8px ; line-height: 100%&quot;&gt;&lt;br&gt;&lt;/pre&gt;&lt;/pre&gt;&lt;/pre&gt;" style="html=1;shadow=0;dashed=0;shape=mxgraph.bootstrap.rrect;rSize=5;strokeColor=#DFDFDF;html=1;whiteSpace=wrap;fillColor=#ffffff;fontColor=#000000;verticalAlign=top;align=left;spacing=20;fontSize=14;" vertex="1" parent="1">
          <mxGeometry x="398" y="660" width="460" height="250" as="geometry" />
        </mxCell>
        <mxCell id="FYxI648YfG9HQdf40o8M-24" value="" style="shape=table;html=1;whiteSpace=wrap;startSize=0;container=1;collapsible=0;childLayout=tableLayout;" vertex="1" parent="1">
          <mxGeometry x="420" y="720" width="360" height="120" as="geometry" />
        </mxCell>
        <mxCell id="FYxI648YfG9HQdf40o8M-25" value="" style="shape=partialRectangle;html=1;whiteSpace=wrap;collapsible=0;dropTarget=0;pointerEvents=0;fillColor=none;top=0;left=0;bottom=0;right=0;points=[[0,0.5],[1,0.5]];portConstraint=eastwest;" vertex="1" parent="FYxI648YfG9HQdf40o8M-24">
          <mxGeometry width="360" height="40" as="geometry" />
        </mxCell>
        <mxCell id="FYxI648YfG9HQdf40o8M-26" value="&lt;pre style=&quot;font-family: &amp;#34;consolas&amp;#34; ; font-size: 8px&quot;&gt;&lt;pre style=&quot;text-align: left ; font-family: &amp;#34;consolas&amp;#34; ; font-size: 8px ; line-height: 8px&quot;&gt;&lt;span style=&quot;color: rgb(0 , 0 , 128) ; font-weight: bold&quot;&gt;tools:openDrawer&lt;/span&gt;&lt;b style=&quot;color: rgb(0 , 128 , 0)&quot;&gt;=&quot;start&quot;&lt;/b&gt;&lt;br&gt;&lt;/pre&gt;&lt;/pre&gt;" style="shape=partialRectangle;html=1;whiteSpace=wrap;connectable=0;overflow=hidden;fillColor=none;top=0;left=0;bottom=0;right=0;" vertex="1" parent="FYxI648YfG9HQdf40o8M-25">
          <mxGeometry width="165" height="40" as="geometry" />
        </mxCell>
        <mxCell id="FYxI648YfG9HQdf40o8M-27" value="Muestra el drawer" style="shape=partialRectangle;html=1;whiteSpace=wrap;connectable=0;overflow=hidden;fillColor=none;top=0;left=0;bottom=0;right=0;fontSize=8;" vertex="1" parent="FYxI648YfG9HQdf40o8M-25">
          <mxGeometry x="165" width="195" height="40" as="geometry" />
        </mxCell>
        <mxCell id="FYxI648YfG9HQdf40o8M-28" value="" style="shape=partialRectangle;html=1;whiteSpace=wrap;collapsible=0;dropTarget=0;pointerEvents=0;fillColor=none;top=0;left=0;bottom=0;right=0;points=[[0,0.5],[1,0.5]];portConstraint=eastwest;" vertex="1" parent="FYxI648YfG9HQdf40o8M-24">
          <mxGeometry y="40" width="360" height="40" as="geometry" />
        </mxCell>
        <mxCell id="FYxI648YfG9HQdf40o8M-29" value="&lt;pre style=&quot;background-color: rgb(255 , 255 , 255) ; font-family: &amp;#34;consolas&amp;#34; ; font-size: 8px&quot;&gt;&lt;span style=&quot;color: #660e7a ; font-weight: bold&quot;&gt;android&lt;/span&gt;&lt;span style=&quot;color: #0000ff ; font-weight: bold&quot;&gt;:layout_width&lt;/span&gt;&lt;span style=&quot;color: #008000 ; font-weight: bold&quot;&gt;=&quot;280dp&quot;&lt;br&gt;&lt;/span&gt;&lt;span style=&quot;color: #660e7a ; font-weight: bold&quot;&gt;android&lt;/span&gt;&lt;span style=&quot;color: #0000ff ; font-weight: bold&quot;&gt;:layout_height&lt;/span&gt;&lt;span style=&quot;color: #008000 ; font-weight: bold&quot;&gt;=&quot;match_parent&quot;&lt;br&gt;&lt;/span&gt;&lt;span style=&quot;color: #660e7a ; font-weight: bold&quot;&gt;android&lt;/span&gt;&lt;span style=&quot;color: #0000ff ; font-weight: bold&quot;&gt;:background&lt;/span&gt;&lt;span style=&quot;color: #008000 ; font-weight: bold&quot;&gt;=&quot;#FFFFFF&quot;&lt;/span&gt;&lt;/pre&gt;" style="shape=partialRectangle;html=1;whiteSpace=wrap;connectable=0;overflow=hidden;fillColor=none;top=0;left=0;bottom=0;right=0;align=left;" vertex="1" parent="FYxI648YfG9HQdf40o8M-28">
          <mxGeometry width="165" height="40" as="geometry" />
        </mxCell>
        <mxCell id="FYxI648YfG9HQdf40o8M-30" value="&lt;div style=&quot;text-align: left&quot;&gt;&lt;span&gt;&lt;span style=&quot;font-size: 8px&quot;&gt;tamaño predefinido para menú&amp;nbsp;lateral&lt;/span&gt;&lt;/span&gt;&lt;/div&gt;&lt;font&gt;&lt;div style=&quot;font-size: 8px ; text-align: left&quot;&gt;&lt;span&gt;alto&amp;nbsp;&lt;/span&gt;&lt;span&gt;coincidente&lt;/span&gt;&lt;/div&gt;&lt;div style=&quot;font-size: 8px ; text-align: left&quot;&gt;&lt;span&gt;fondo&lt;/span&gt;&lt;/div&gt;&lt;/font&gt;" style="shape=partialRectangle;html=1;whiteSpace=wrap;connectable=0;overflow=hidden;fillColor=none;top=0;left=0;bottom=0;right=0;" vertex="1" parent="FYxI648YfG9HQdf40o8M-28">
          <mxGeometry x="165" width="195" height="40" as="geometry" />
        </mxCell>
        <mxCell id="FYxI648YfG9HQdf40o8M-31" value="" style="shape=partialRectangle;html=1;whiteSpace=wrap;collapsible=0;dropTarget=0;pointerEvents=0;fillColor=none;top=0;left=0;bottom=0;right=0;points=[[0,0.5],[1,0.5]];portConstraint=eastwest;" vertex="1" parent="FYxI648YfG9HQdf40o8M-24">
          <mxGeometry y="80" width="360" height="40" as="geometry" />
        </mxCell>
        <mxCell id="FYxI648YfG9HQdf40o8M-32" value="" style="shape=partialRectangle;html=1;whiteSpace=wrap;connectable=0;overflow=hidden;fillColor=none;top=0;left=0;bottom=0;right=0;" vertex="1" parent="FYxI648YfG9HQdf40o8M-31">
          <mxGeometry width="165" height="40" as="geometry" />
        </mxCell>
        <mxCell id="FYxI648YfG9HQdf40o8M-33" value="" style="shape=partialRectangle;html=1;whiteSpace=wrap;connectable=0;overflow=hidden;fillColor=none;top=0;left=0;bottom=0;right=0;" vertex="1" parent="FYxI648YfG9HQdf40o8M-31">
          <mxGeometry x="165" width="195" height="40" as="geometry" />
        </mxCell>
        <mxCell id="FYxI648YfG9HQdf40o8M-34" value="" style="shape=table;html=1;whiteSpace=wrap;startSize=0;container=1;collapsible=0;childLayout=tableLayout;" vertex="1" parent="1">
          <mxGeometry x="50" y="660" width="300" height="120" as="geometry" />
        </mxCell>
        <mxCell id="FYxI648YfG9HQdf40o8M-35" value="" style="shape=partialRectangle;html=1;whiteSpace=wrap;collapsible=0;dropTarget=0;pointerEvents=0;fillColor=none;top=0;left=0;bottom=0;right=0;points=[[0,0.5],[1,0.5]];portConstraint=eastwest;" vertex="1" parent="FYxI648YfG9HQdf40o8M-34">
          <mxGeometry width="300" height="40" as="geometry" />
        </mxCell>
        <mxCell id="FYxI648YfG9HQdf40o8M-36" value="" style="shape=partialRectangle;html=1;whiteSpace=wrap;connectable=0;overflow=hidden;fillColor=none;top=0;left=0;bottom=0;right=0;" vertex="1" parent="FYxI648YfG9HQdf40o8M-35">
          <mxGeometry width="60" height="40" as="geometry" />
        </mxCell>
        <mxCell id="FYxI648YfG9HQdf40o8M-37" value="" style="shape=partialRectangle;html=1;whiteSpace=wrap;connectable=0;overflow=hidden;fillColor=none;top=0;left=0;bottom=0;right=0;" vertex="1" parent="FYxI648YfG9HQdf40o8M-35">
          <mxGeometry x="60" width="60" height="40" as="geometry" />
        </mxCell>
        <mxCell id="FYxI648YfG9HQdf40o8M-38" value="" style="shape=partialRectangle;html=1;whiteSpace=wrap;connectable=0;overflow=hidden;fillColor=none;top=0;left=0;bottom=0;right=0;" vertex="1" parent="FYxI648YfG9HQdf40o8M-35">
          <mxGeometry x="120" width="60" height="40" as="geometry" />
        </mxCell>
        <mxCell id="FYxI648YfG9HQdf40o8M-39" value="" style="shape=partialRectangle;html=1;whiteSpace=wrap;connectable=0;overflow=hidden;fillColor=none;top=0;left=0;bottom=0;right=0;" vertex="1" parent="FYxI648YfG9HQdf40o8M-35">
          <mxGeometry x="180" width="60" height="40" as="geometry" />
        </mxCell>
        <mxCell id="FYxI648YfG9HQdf40o8M-40" value="" style="shape=partialRectangle;html=1;whiteSpace=wrap;connectable=0;overflow=hidden;fillColor=none;top=0;left=0;bottom=0;right=0;" vertex="1" parent="FYxI648YfG9HQdf40o8M-35">
          <mxGeometry x="240" width="60" height="40" as="geometry" />
        </mxCell>
        <mxCell id="FYxI648YfG9HQdf40o8M-41" value="" style="shape=partialRectangle;html=1;whiteSpace=wrap;collapsible=0;dropTarget=0;pointerEvents=0;fillColor=none;top=0;left=0;bottom=0;right=0;points=[[0,0.5],[1,0.5]];portConstraint=eastwest;" vertex="1" parent="FYxI648YfG9HQdf40o8M-34">
          <mxGeometry y="40" width="300" height="40" as="geometry" />
        </mxCell>
        <mxCell id="FYxI648YfG9HQdf40o8M-42" value="" style="shape=partialRectangle;html=1;whiteSpace=wrap;connectable=0;overflow=hidden;fillColor=none;top=0;left=0;bottom=0;right=0;" vertex="1" parent="FYxI648YfG9HQdf40o8M-41">
          <mxGeometry width="60" height="40" as="geometry" />
        </mxCell>
        <mxCell id="FYxI648YfG9HQdf40o8M-43" value="" style="shape=partialRectangle;html=1;whiteSpace=wrap;connectable=0;overflow=hidden;fillColor=none;top=0;left=0;bottom=0;right=0;" vertex="1" parent="FYxI648YfG9HQdf40o8M-41">
          <mxGeometry x="60" width="60" height="40" as="geometry" />
        </mxCell>
        <mxCell id="FYxI648YfG9HQdf40o8M-44" value="" style="shape=partialRectangle;html=1;whiteSpace=wrap;connectable=0;overflow=hidden;fillColor=none;top=0;left=0;bottom=0;right=0;" vertex="1" parent="FYxI648YfG9HQdf40o8M-41">
          <mxGeometry x="120" width="60" height="40" as="geometry" />
        </mxCell>
        <mxCell id="FYxI648YfG9HQdf40o8M-45" value="" style="shape=partialRectangle;html=1;whiteSpace=wrap;connectable=0;overflow=hidden;fillColor=none;top=0;left=0;bottom=0;right=0;" vertex="1" parent="FYxI648YfG9HQdf40o8M-41">
          <mxGeometry x="180" width="60" height="40" as="geometry" />
        </mxCell>
        <mxCell id="FYxI648YfG9HQdf40o8M-46" value="" style="shape=partialRectangle;html=1;whiteSpace=wrap;connectable=0;overflow=hidden;fillColor=none;top=0;left=0;bottom=0;right=0;" vertex="1" parent="FYxI648YfG9HQdf40o8M-41">
          <mxGeometry x="240" width="60" height="40" as="geometry" />
        </mxCell>
        <mxCell id="FYxI648YfG9HQdf40o8M-47" value="" style="shape=partialRectangle;html=1;whiteSpace=wrap;collapsible=0;dropTarget=0;pointerEvents=0;fillColor=none;top=0;left=0;bottom=0;right=0;points=[[0,0.5],[1,0.5]];portConstraint=eastwest;" vertex="1" parent="FYxI648YfG9HQdf40o8M-34">
          <mxGeometry y="80" width="300" height="40" as="geometry" />
        </mxCell>
        <mxCell id="FYxI648YfG9HQdf40o8M-48" value="" style="shape=partialRectangle;html=1;whiteSpace=wrap;connectable=0;overflow=hidden;fillColor=none;top=0;left=0;bottom=0;right=0;" vertex="1" parent="FYxI648YfG9HQdf40o8M-47">
          <mxGeometry width="60" height="40" as="geometry" />
        </mxCell>
        <mxCell id="FYxI648YfG9HQdf40o8M-49" value="" style="shape=partialRectangle;html=1;whiteSpace=wrap;connectable=0;overflow=hidden;fillColor=none;top=0;left=0;bottom=0;right=0;" vertex="1" parent="FYxI648YfG9HQdf40o8M-47">
          <mxGeometry x="60" width="60" height="40" as="geometry" />
        </mxCell>
        <mxCell id="FYxI648YfG9HQdf40o8M-50" value="" style="shape=partialRectangle;html=1;whiteSpace=wrap;connectable=0;overflow=hidden;fillColor=none;top=0;left=0;bottom=0;right=0;" vertex="1" parent="FYxI648YfG9HQdf40o8M-47">
          <mxGeometry x="120" width="60" height="40" as="geometry" />
        </mxCell>
        <mxCell id="FYxI648YfG9HQdf40o8M-51" value="" style="shape=partialRectangle;html=1;whiteSpace=wrap;connectable=0;overflow=hidden;fillColor=none;top=0;left=0;bottom=0;right=0;" vertex="1" parent="FYxI648YfG9HQdf40o8M-47">
          <mxGeometry x="180" width="60" height="40" as="geometry" />
        </mxCell>
        <mxCell id="FYxI648YfG9HQdf40o8M-52" value="" style="shape=partialRectangle;html=1;whiteSpace=wrap;connectable=0;overflow=hidden;fillColor=none;top=0;left=0;bottom=0;right=0;" vertex="1" parent="FYxI648YfG9HQdf40o8M-47">
          <mxGeometry x="240" width="60" height="40" as="geometry" />
        </mxCell>
      </root>
    </mxGraphModel>
  </diagram>
</mxfile>
